<?xml version="1.0" encoding="iso-8859-1"?>
<!-- Generator: Adobe Illustrator 19.0.0, SVG Export Plug-In . SVG Version: 6.00 Build 0)  -->
<svg version="1.1" id="Capa_1" xmlns="http://www.w3.org/2000/svg" xmlns:xlink="http://www.w3.org/1999/xlink" x="0px" y="0px"
	 viewBox="0 0 512 512" style="enable-background:new 0 0 512 512;" xml:space="preserve">
<g>
	<g>
		<path d="M226,32h-72c-5.522,0-10,4.477-10,10s4.478,10,10,10h72c5.522,0,10-4.477,10-10S231.522,32,226,32z"/>
	</g>
</g>
<g>
	<g>
		<path d="M310.74,420.85c-1.87-1.87-4.44-2.93-7.07-2.93c-2.641,0-5.21,1.06-7.07,2.93c-1.859,1.85-2.93,4.43-2.93,7.07
			c0,2.63,1.07,5.21,2.93,7.07s4.43,2.93,7.07,2.93c2.63,0,5.21-1.07,7.07-2.93c1.859-1.87,2.93-4.44,2.93-7.07
			C313.67,425.28,312.6,422.71,310.74,420.85z"/>
	</g>
</g>
<g>
	<g>
		<path d="M197.069,456.69c-1.859-1.86-4.439-2.93-7.069-2.93s-5.21,1.07-7.07,2.93s-2.93,4.44-2.93,7.07s1.069,5.21,2.93,7.07
			c1.86,1.86,4.44,2.93,7.07,2.93s5.21-1.07,7.069-2.93c1.86-1.86,2.931-4.44,2.931-7.07C200,461.12,198.93,458.55,197.069,456.69z"
			/>
	</g>
</g>
<g>
	<g>
		<path d="M123.819,237.93c-1.859-1.87-4.439-2.93-7.069-2.93s-5.21,1.06-7.07,2.93c-1.86,1.86-2.93,4.43-2.93,7.07
			c0,2.63,1.069,5.21,2.93,7.07c1.861,1.86,4.44,2.93,7.07,2.93s5.21-1.07,7.069-2.93c1.86-1.86,2.931-4.44,2.931-7.07
			S125.68,239.79,123.819,237.93z"/>
	</g>
</g>
<g>
	<g>
		<path d="M394,126c-12.013,0-23.61,1.809-34.539,5.161c4.499-8.522,5.825-18.379,3.593-27.977L356,72.852V40
			c0-22.056-17.944-40-40-40H64C41.944,0,24,17.944,24,40v32.852l-7.054,30.332c-2.727,11.727-0.146,23.84,7.054,33.428v54.294H10
			c-5.522,0-10,4.477-10,10s4.478,10,10,10h14V472c0,22.056,17.944,40,40,40h252c22.056,0,40-17.944,40-40V355.73
			c12.16,4.133,24.982,6.27,38,6.27c65.065,0,118-52.935,118-118S459.065,126,394,126z M343.573,107.715
			c1.422,6.112-0.001,12.437-3.903,17.352c-3.903,4.915-9.741,7.733-16.018,7.733c-11.277,0-20.452-9.175-20.452-20.453V108.4V84
			h34.858L343.573,107.715z M155.6,254.997h118.19l-21.692,107.917h-2.786c-4.28-13.882-17.228-24-32.497-24
			c-15.269,0-28.217,10.118-32.497,24h-15.525c-4.28-13.882-17.228-24-32.497-24c-14.183,0-26.358,8.731-31.45,21.099
			L78.872,199.311c-0.783-4.844-4.965-8.404-9.872-8.404H44v-40.034c3.936,1.255,8.088,1.927,12.348,1.927
			c12.725,0,24.09-5.912,31.511-15.127c8.144,9.264,20.067,15.127,33.342,15.127c13.859,0,26.251-6.386,34.399-16.366
			c8.148,9.98,20.541,16.366,34.4,16.366s26.252-6.386,34.4-16.366c8.148,9.98,20.541,16.366,34.399,16.366
			c13.274,0,25.198-5.863,33.342-15.127c6.598,8.193,16.313,13.776,27.333,14.911c-24.333,19.875-40.62,49.249-43.133,82.413H155.6
			c-5.522,0-10,4.477-10,10S150.078,254.997,155.6,254.997z M230.814,372.914c0,7.72-6.28,14-14,14c-7.72,0-14-6.28-14-14
			c0-7.72,6.28-14,14-14C224.534,358.914,230.814,365.194,230.814,372.914z M150.295,372.914c0,7.72-6.28,14-14,14
			c-7.72,0-14-6.28-14-14c0-7.72,6.28-14,14-14C144.015,358.914,150.295,365.194,150.295,372.914z M96.801,84H145.6v24.4
			c0,13.454-10.945,24.4-24.399,24.4c-13.454,0-24.4-10.946-24.4-24.4V84z M165.6,108.4V84h48.8v24.4
			c0,13.454-10.946,24.4-24.4,24.4S165.6,121.854,165.6,108.4z M234.401,108.4V84h48.8v24.4c-0.001,13.454-10.947,24.4-24.401,24.4
			C245.346,132.8,234.401,121.854,234.401,108.4z M44,40c0-11.028,8.972-20,20-20h252c11.028,0,20,8.972,20,20v24H86.8H44V40z
			 M40.33,125.067c-3.902-4.915-5.325-11.239-3.903-17.352L41.941,84H76.8v24.4v3.947c0,11.278-9.175,20.453-20.452,20.453
			C50.072,132.8,44.234,129.981,40.33,125.067z M336,348.5V472c0,11.028-8.972,20-20,20H64c-11.028,0-20-8.972-20-20v-34.083
			h219.667c5.522,0,10-4.477,10-10s-4.478-10-10-10H44v-207.01h16.486L86.927,374.51c0.783,4.844,4.965,8.404,9.872,8.404h6.998
			c4.28,13.882,17.228,24,32.497,24s28.217-10.118,32.497-24h15.525c4.28,13.882,17.228,24,32.497,24
			c15.269,0,28.217-10.118,32.497-24h10.976c4.763,0,8.865-3.359,9.804-8.029l16.502-82.096c3.676,8.097,8.249,15.802,13.702,22.924
			l-7.048,26.306c-0.925,3.451,0.062,7.133,2.588,9.659s6.206,3.514,9.659,2.588l29.69-7.956c0.318,0.183,0.644,0.354,0.964,0.534
			C336.058,347.384,336,347.935,336,348.5z M394,342c-18.451,0-36.43-5.159-51.99-14.919c-1.607-1.008-3.451-1.528-5.313-1.528
			c-0.866,0-1.736,0.112-2.588,0.341l-17.061,4.571L320.924,316c0.845-3.153,0.098-6.52-2.002-9.019
			C304.141,289.379,296,267.013,296,244c0-54.038,43.963-98,98-98s98,43.962,98,98C492,298.038,448.037,342,394,342z"/>
	</g>
</g>
<g>
	<g>
		<path d="M420.342,197.338c-4.809-2.716-10.909-1.019-13.624,3.792l-42.852,75.907c-2.715,4.81-1.018,10.909,3.792,13.624
			c1.554,0.877,3.241,1.294,4.907,1.294c3.489,0,6.879-1.83,8.717-5.086l42.852-75.907
			C426.849,206.153,425.151,200.053,420.342,197.338z"/>
	</g>
</g>
<g>
	<g>
		<path d="M428.024,252.006c-14.337,0-26,11.664-26,26s11.663,26,26,26c14.337,0,26-11.664,26-26S442.361,252.006,428.024,252.006z
			 M428.024,284.006c-3.309,0-6-2.691-6-6c0-3.309,2.691-6,6-6c3.309,0,6,2.691,6,6
			C434.024,281.315,431.333,284.006,428.024,284.006z"/>
	</g>
</g>
<g>
	<g>
		<path d="M359.976,183.994c-14.337,0-26,11.664-26,26s11.663,26,26,26c14.337,0,26-11.664,26-26S374.313,183.994,359.976,183.994z
			 M359.976,215.994c-3.309,0-6-2.691-6-6c0-3.309,2.691-6,6-6c3.309,0,6,2.691,6,6
			C365.976,213.303,363.284,215.994,359.976,215.994z"/>
	</g>
</g>
<g>
</g>
<g>
</g>
<g>
</g>
<g>
</g>
<g>
</g>
<g>
</g>
<g>
</g>
<g>
</g>
<g>
</g>
<g>
</g>
<g>
</g>
<g>
</g>
<g>
</g>
<g>
</g>
<g>
</g>
</svg>
