<?xml version="1.0" encoding="iso-8859-1"?>
<!-- Generator: Adobe Illustrator 19.0.0, SVG Export Plug-In . SVG Version: 6.00 Build 0)  -->
<svg version="1.1" id="Capa_1" xmlns="http://www.w3.org/2000/svg" xmlns:xlink="http://www.w3.org/1999/xlink" x="0px" y="0px"
	 viewBox="0 0 512 512" style="enable-background:new 0 0 512 512;" xml:space="preserve">
<g>
	<g>
		<path d="M462.31,41.517l-39.924-12.104c-0.18-0.066-0.355-0.142-0.54-0.198L326.901,0.43c-0.062-0.019-0.363-0.094-0.451-0.116
			c-0.342-0.086-1.114-0.223-1.159-0.228c-0.395-0.052-0.788-0.074-1.181-0.078C324.073,0.007,324.037,0,324,0H188
			c-0.041,0-0.08,0.007-0.12,0.008c-0.389,0.005-0.779,0.027-1.17,0.078c-0.046,0.006-0.824,0.143-1.166,0.23
			c-0.085,0.021-0.383,0.095-0.448,0.115L90.152,29.215c-0.188,0.057-0.366,0.134-0.549,0.201L49.69,41.517
			C19.969,50.528,0,77.449,0,108.506V502c0,5.523,4.478,10,10,10h492c5.522,0,10-4.477,10-10V108.506
			C512,77.449,492.031,50.528,462.31,41.517z M328.676,21.901l75.331,22.839l-79.015,137.889l-56.495-56.495l41.93-72.625
			L328.676,21.901z M306.68,20l-25.34,43.89L256,107.779L205.32,20H306.68z M183.322,21.901L243.5,126.133l-56.494,56.496
			L107.991,44.74L183.322,21.901z M94,492H20V344h74V492z M174,492h-60V344h60V492z M222,492h-28V334c0-5.523-4.478-10-10-10H20
			V108.506c0-22.184,14.264-41.413,35.493-47.849l32.859-9.962l87.802,153.223c1.549,2.703,4.269,4.529,7.355,4.94
			c0.441,0.059,0.883,0.088,1.322,0.088c2.634,0,5.183-1.042,7.07-2.929L222,175.92V492z M398,492h-60V344h60V492z M492,492h-74V344
			h74V492z M492,271H371v-44h121V271z M492,207H361c-5.522,0-10,4.477-10,10v64c0,5.523,4.478,10,10,10h131v33h-84h-80
			c-5.522,0-10,4.477-10,10v158h-28V250.627c0-5.523-4.478-10-10-10c-5.522,0-10,4.477-10,10V492h-28V155.92l13.999-13.999
			l64.097,64.097c1.888,1.887,4.437,2.929,7.07,2.929c0.439,0,0.881-0.029,1.322-0.088c3.087-0.411,5.807-2.238,7.355-4.94
			l87.802-153.224l32.861,9.963C477.736,67.093,492,86.322,492,108.506V207z"/>
	</g>
</g>
<g>
	<g>
		<path d="M151.069,455.93C149.21,454.07,146.63,453,144,453s-5.21,1.07-7.07,2.93S134,460.37,134,463s1.069,5.21,2.93,7.07
			c1.861,1.86,4.44,2.93,7.07,2.93s5.21-1.07,7.069-2.93c1.86-1.86,2.931-4.44,2.931-7.07S152.93,457.79,151.069,455.93z"/>
	</g>
</g>
<g>
	<g>
		<path d="M375.069,455.93C373.21,454.07,370.63,453,368,453s-5.21,1.07-7.07,2.93c-1.86,1.86-2.93,4.44-2.93,7.07
			s1.069,5.21,2.93,7.07c1.861,1.86,4.44,2.93,7.07,2.93s5.21-1.07,7.069-2.93c1.86-1.86,2.931-4.44,2.931-7.07
			S376.93,457.79,375.069,455.93z"/>
	</g>
</g>
<g>
	<g>
		<path d="M287.069,198.93C285.21,197.07,282.63,196,280,196s-5.21,1.07-7.07,2.93c-1.86,1.86-2.93,4.44-2.93,7.07
			s1.069,5.21,2.93,7.07c1.861,1.86,4.44,2.93,7.07,2.93s5.21-1.07,7.069-2.93c1.86-1.86,2.931-4.44,2.931-7.07
			S288.93,200.79,287.069,198.93z"/>
	</g>
</g>
<g>
</g>
<g>
</g>
<g>
</g>
<g>
</g>
<g>
</g>
<g>
</g>
<g>
</g>
<g>
</g>
<g>
</g>
<g>
</g>
<g>
</g>
<g>
</g>
<g>
</g>
<g>
</g>
<g>
</g>
</svg>
