<?xml version="1.0" encoding="iso-8859-1"?>
<!-- Generator: Adobe Illustrator 19.0.0, SVG Export Plug-In . SVG Version: 6.00 Build 0)  -->
<svg version="1.1" id="Capa_1" xmlns="http://www.w3.org/2000/svg" xmlns:xlink="http://www.w3.org/1999/xlink" x="0px" y="0px"
	 viewBox="0 0 512.001 512.001" style="enable-background:new 0 0 512.001 512.001;" xml:space="preserve">
<g>
	<g>
		<path d="M489.265,150.591l-0.109-0.244c-2.258-5.039-8.172-7.294-13.214-5.037c-5.038,2.257-7.293,8.173-5.036,13.212l0.109,0.244
			c1.663,3.712,5.31,5.913,9.131,5.913c1.366,0,2.755-0.282,4.083-0.876C489.268,161.546,491.523,155.63,489.265,150.591z"/>
	</g>
</g>
<g>
	<g>
		<path d="M501.105,448.299l-39.71-39.71c0.299-0.312,0.584-0.644,0.847-1.002c22.806-31.066,38.556-67.549,45.546-105.506
			c7.128-38.704,5.139-79.104-5.752-116.831c-1.531-5.305-7.078-8.366-12.38-6.833c-5.306,1.532-8.365,7.074-6.833,12.38
			c5.212,18.057,8.132,36.584,8.874,55.145h-88.074c-2.156-32.11-14.701-63.648-37.648-89.076c0.039-0.357,0.061-0.718,0.061-1.085
			v-17.37h7.492c26.233,0,51.447-7.284,73.444-21.095c2.71,3.736,5.331,7.559,7.839,11.491c2.97,4.654,9.15,6.024,13.807,3.054
			c4.655-2.97,6.023-9.151,3.055-13.807C438.895,66.661,388.54,28.61,329.885,10.91C270.661-6.963,206.967-2.743,150.541,22.791
			C88.265,50.972,40.692,101.718,16.582,165.683C-7.527,229.647-5.283,299.17,22.898,361.446
			c28.182,62.277,78.929,109.851,142.892,133.96c29.366,11.069,59.901,16.582,90.372,16.582c35.899,0,71.707-7.655,105.392-22.897
			c16.123-7.296,31.481-16.242,45.65-26.589c0.527-0.385,1.002-0.815,1.43-1.276l39.772,39.772
			c7.265,7.264,16.807,10.896,26.349,10.896c9.543,0,19.085-3.632,26.35-10.896C515.633,486.467,515.633,462.828,501.105,448.299z
			 M491.651,265.939c-2.036,45.708-17.262,90.671-44.517,128.39l-63.458-63.458c11.785-20.081,18.431-42.364,19.946-64.932H491.651z
			 M396.671,372.147l-24.415,24.416l-24.49-24.49c4.474-3.539,8.794-7.362,12.924-11.492c4.13-4.13,7.953-8.45,11.492-12.924
			L396.671,372.147z M346.548,346.44c-49.9,49.902-131.098,49.902-180.999,0c-24.174-24.173-37.487-56.313-37.487-90.499
			c0-34.186,13.312-66.325,37.487-90.499c24.95-24.951,57.724-37.427,90.5-37.427s65.549,12.476,90.5,37.427
			C396.451,215.344,396.451,296.54,346.548,346.44z M434.468,101.559c-18.36,11.054-39.245,16.855-60.941,16.855h-7.492v-8.401
			c0-29.36-11.564-56.07-30.377-75.814C373.245,47.631,407.53,70.483,434.468,101.559z M248.534,20.339
			c5.314-0.153,10.623-0.125,15.917,0.079c45.695,4.251,81.587,42.807,81.587,89.594v28.446
			c-52.886-40.565-127.095-40.564-179.979,0.003v-28.449C166.058,62.922,202.416,24.17,248.534,20.339z M158.786,41.01
			c5.974-2.704,12.018-5.12,18.11-7.285c-19.081,19.791-30.836,46.691-30.836,76.287v8.401h-7.48c-21.681,0-42.55-5.794-60.9-16.831
			C99.342,76.472,126.64,55.557,158.786,41.01z M65.196,117.355c21.981,13.786,47.174,21.057,73.384,21.057h7.48v16.949
			c0,0.493,0.048,0.973,0.116,1.447c-22.397,24.766-35.566,55.884-37.771,89.134H20.383
			C22.424,199.634,38.102,154.798,65.196,117.355z M65.13,394.564c-9.218-12.704-17.293-26.517-24.011-41.362
			c-12.829-28.349-19.554-57.927-20.762-87.263h88.048c2.2,33.193,15.327,64.261,37.656,89.007v18.524h-7.486
			C112.34,373.469,87.125,380.753,65.13,394.564z M77.647,410.313c18.355-11.048,39.235-16.847,60.926-16.847h7.486v8.401
			c0,29.513,11.687,56.345,30.671,76.119C138.937,464.48,104.595,441.424,77.647,410.313z M258.712,491.815
			c-1.887,0.019-3.772,0.014-5.655-0.013c-48.24-1.584-86.999-41.315-86.999-89.934v-28.445
			c26.443,20.285,58.216,30.432,89.992,30.432c25.944,0,51.888-6.765,74.929-20.287l15.058,15.058v3.242
			C346.037,450.597,307.104,490.4,258.712,491.815z M353.309,470.87c-5.994,2.713-12.047,5.139-18.137,7.312
			c15.673-16.244,26.401-37.284,29.747-60.675l29.528,29.529C381.65,456.281,367.822,464.303,353.309,470.87z M486.963,486.856
			c-6.73,6.731-17.684,6.733-24.416,0l-76.151-76.152l24.415-24.416l76.152,76.151C493.694,469.171,493.694,480.124,486.963,486.856
			z"/>
	</g>
</g>
<g>
	<g>
		<path d="M192.542,319.701c-0.089-0.092-0.18-0.183-0.272-0.273c-3.938-3.869-10.258-3.804-14.126,0.131
			c-3.857,3.923-3.812,10.229,0.083,14.104c1.953,1.981,4.534,2.978,7.119,2.978c2.498,0,4.999-0.931,6.939-2.802
			C196.261,330.007,196.376,323.677,192.542,319.701z"/>
	</g>
</g>
<g>
	<g>
		<path d="M256.048,145.952c-29.379,0-56.999,11.441-77.773,32.214c-15.893,15.894-26.415,35.943-30.429,57.98
			c-3.918,21.518-1.418,43.464,7.229,63.469c1.632,3.777,5.314,6.034,9.183,6.034c1.324,0,2.67-0.265,3.963-0.823
			c5.068-2.191,7.401-8.076,5.21-13.145c-14.738-34.096-7.286-73.103,18.984-99.374c16.997-16.997,39.595-26.358,63.633-26.358
			c5.521,0,9.999-4.477,9.999-9.999C266.047,150.429,261.569,145.952,256.048,145.952z"/>
	</g>
</g>
<g>
	<g>
		<path d="M333.885,178.233c-3.869-3.94-10.199-4-14.14-0.13c-3.941,3.869-3.999,10.2-0.13,14.14
			c0.026,0.026,0.124,0.123,0.149,0.149c1.95,1.949,4.502,2.922,7.056,2.922c2.56,0,5.119-0.979,7.073-2.933
			C337.797,188.476,337.789,182.137,333.885,178.233z"/>
	</g>
</g>
<g>
	<g>
		<path d="M358.629,216.193c-1.993-5.15-7.782-7.708-12.933-5.717c-5.15,1.993-7.71,7.783-5.717,12.933
			c12.857,33.229,4.889,70.975-20.299,96.163c-16.963,16.963-39.516,26.324-63.506,26.357c-5.522,0.008-9.993,4.49-9.985,10.013
			c0.008,5.517,4.483,9.985,9.999,9.985c0.005,0,0.009,0,0.014,0c29.321-0.041,56.886-11.482,77.619-32.214
			C364.602,302.93,374.34,256.802,358.629,216.193z"/>
	</g>
</g>
<g>
	<g>
		<path d="M282.386,209.284c-4.806-2.714-10.908-1.018-13.622,3.792l-42.847,75.898c-2.715,4.809-1.018,10.908,3.792,13.622
			c1.554,0.877,3.241,1.294,4.906,1.294c3.489,0,6.878-1.83,8.716-5.085l42.847-75.898
			C288.892,218.097,287.195,211.998,282.386,209.284z"/>
	</g>
</g>
<g>
	<g>
		<path d="M290.068,263.946c-14.335,0-25.997,11.662-25.997,25.997c0,14.334,11.662,25.997,25.997,25.997
			c14.335,0,25.997-11.663,25.997-25.997S304.403,263.946,290.068,263.946z M290.068,295.942c-3.309,0-5.999-2.691-5.999-5.999
			c0-3.309,2.691-5.999,5.999-5.999c3.309,0,5.999,2.691,5.999,5.999C296.067,293.251,293.376,295.942,290.068,295.942z"/>
	</g>
</g>
<g>
	<g>
		<path d="M222.027,195.941c-14.335,0-25.997,11.663-25.997,25.997c0,14.334,11.662,25.997,25.997,25.997
			c14.335,0,25.997-11.663,25.997-25.997C248.024,207.603,236.362,195.941,222.027,195.941z M222.027,227.937
			c-3.309,0-5.999-2.691-5.999-5.999c0-3.309,2.691-5.999,5.999-5.999c3.309,0,5.999,2.691,5.999,5.999
			C228.026,225.246,225.335,227.937,222.027,227.937z"/>
	</g>
</g>
<g>
</g>
<g>
</g>
<g>
</g>
<g>
</g>
<g>
</g>
<g>
</g>
<g>
</g>
<g>
</g>
<g>
</g>
<g>
</g>
<g>
</g>
<g>
</g>
<g>
</g>
<g>
</g>
<g>
</g>
</svg>
