<?xml version="1.0" encoding="iso-8859-1"?>
<!-- Generator: Adobe Illustrator 19.0.0, SVG Export Plug-In . SVG Version: 6.00 Build 0)  -->
<svg version="1.1" id="Capa_1" xmlns="http://www.w3.org/2000/svg" xmlns:xlink="http://www.w3.org/1999/xlink" x="0px" y="0px"
	 viewBox="0 0 512 512" style="enable-background:new 0 0 512 512;" xml:space="preserve">
<g>
	<g>
		<path d="M164.053,326.126l-68.327-68.328c-3.906-3.904-10.236-3.904-14.143,0c-3.905,3.905-3.905,10.237,0,14.143l68.328,68.328
			c1.953,1.952,4.512,2.929,7.071,2.929c2.559,0,5.118-0.977,7.071-2.929C167.958,336.364,167.958,330.032,164.053,326.126z"/>
	</g>
</g>
<g>
	<g>
		<path d="M200.201,362.274l-0.616-0.617c-3.906-3.904-10.236-3.904-14.143,0c-3.905,3.905-3.905,10.237,0,14.143l0.617,0.617
			c1.953,1.952,4.512,2.929,7.071,2.929s5.118-0.977,7.071-2.929C204.106,372.512,204.106,366.18,200.201,362.274z"/>
	</g>
</g>
<g>
	<g>
		<path d="M17.069,440.92c-1.859-1.86-4.439-2.93-7.069-2.93s-5.21,1.069-7.07,2.93C1.07,442.781,0,445.359,0,447.99
			c0,2.63,1.069,5.21,2.93,7.069c1.86,1.86,4.44,2.931,7.07,2.931s5.21-1.07,7.069-2.931C18.93,453.2,20,450.63,20,447.99
			C20,445.359,18.93,442.78,17.069,440.92z"/>
	</g>
</g>
<g>
	<g>
		<path d="M456.476,442.334l-53.753-53.753c0.627-2.523,1.042-5.112,1.2-7.746c0.732-12.212-3.809-24.176-12.458-32.826
			l-62.686-62.686c-8.083-8.083-18.83-12.534-30.262-12.534c-11.433,0-22.18,4.451-30.263,12.534l-20.394,20.394
			c-5.716,5.717-15.016,5.715-20.729,0l-74.901-74.9c-2.768-2.769-4.293-6.449-4.293-10.364c0-3.916,1.525-7.597,4.294-10.365
			l20.394-20.394c16.686-16.687,16.686-43.837,0-60.524l-62.634-62.634c-8.65-8.649-20.61-13.174-32.826-12.458
			c-12.211,0.733-23.546,6.672-31.099,16.294L32.614,87.505c-47.705,60.769-42.483,147.791,12.146,202.42L168.075,413.24
			c29.632,29.632,68.782,44.727,108.115,44.724c33.182-0.003,66.498-10.75,94.305-32.579l17.134-13.45
			c1.902-1.493,3.654-3.14,5.257-4.906l49.448,49.448c6.156,6.156,7.843,14.634,4.511,22.677
			c-3.332,8.044-10.52,12.847-19.226,12.847H155.004c-9.376,0-17.004-7.628-17.004-17.004c0-20.404-16.6-37.004-37.004-37.004H50.5
			c-5.522,0-10,4.478-10,10c0,5.522,4.478,10,10,10h50.496c9.376,0,17.004,7.628,17.004,17.004C118,495.4,134.6,512,155.004,512
			h272.615c16.819,0,31.267-9.653,37.703-25.192C471.758,471.269,468.369,454.228,456.476,442.334z M61.798,82.721
			c4.082-5.201,9.966-8.283,16.565-8.68c0.478-0.028,0.953-0.042,1.427-0.042c6.064,0,11.722,2.342,16.059,6.679l62.634,62.633
			c8.889,8.89,8.889,23.353,0,32.24l-13.426,13.426L51.683,95.603L61.798,82.721z M182.218,399.098L58.902,275.782
			c-43.936-43.936-51.095-111.977-19.066-163.74l92.14,92.141c-2.638,4.95-4.039,10.502-4.039,16.27
			c0,9.258,3.605,17.961,10.151,24.507l74.9,74.9c11.017,11.017,27.667,13.049,40.766,6.101l92.203,92.203
			C294.194,450.195,226.154,443.034,182.218,399.098z M383.96,379.637c-0.397,6.599-3.48,12.483-8.681,16.565l-12.883,10.114
			l-93.424-93.424l13.426-13.426c8.89-8.89,23.352-8.888,32.239,0l62.686,62.686C381.999,366.827,384.355,373.037,383.96,379.637z"
			/>
	</g>
</g>
<g>
	<g>
		<path d="M463.134,84.611l-31.625-37.098c-1.899-2.229-4.682-3.513-7.61-3.513h-28.233c-5.522,0-10,4.478-10,10v6.843
			c0,6.398-5.232,11.604-11.665,11.604c-6.433,0-11.665-5.205-11.665-11.604V54c0-5.522-4.478-10-10-10h-28.233
			c-2.929,0-5.711,1.284-7.61,3.513l-31.622,37.099c-3.387,3.974-3.147,9.883,0.55,13.568l27.049,26.971
			c1.748,1.743,4.072,2.772,6.521,2.904V182c0,5.522,4.478,10,10,10h89.323c5.522,0,10-4.478,10-10v-53.932
			c2.611,0.045,5.229-0.932,7.221-2.918l27.049-26.971C466.281,94.493,466.521,88.584,463.134,84.611z M428.472,103.947l-3.1-3.09
			c-2.862-2.854-7.161-3.702-10.895-2.155c-3.732,1.55-6.166,5.194-6.166,9.236V172h-69.323v-64.062
			c0-4.107-2.511-7.797-6.332-9.303c-3.819-1.507-8.174-0.525-10.977,2.478l-2.408,2.578l-13.183-13.145L328.718,64h13.774
			c1.593,15.949,15.115,28.446,31.508,28.446S403.915,79.949,405.508,64h13.774l22.629,26.547L428.472,103.947z"/>
	</g>
</g>
<g>
	<g>
		<path d="M457,0H291c-30.327,0-55,24.673-55,55v126c0,30.327,24.673,55,55,55h3v10.5c0,3.466,1.795,6.685,4.742,8.507
			c1.606,0.992,3.43,1.493,5.259,1.493c1.527,0,3.06-0.35,4.471-1.056L347.36,236H457c30.327,0,55-24.673,55-55V55
			C512,24.673,487.327,0,457,0z M492,181c0,19.299-15.701,35-35,35H345c-1.553,0-3.084,0.361-4.472,1.056L314,230.319V226
			c0-5.522-4.478-10-10-10h-13c-19.299,0-35-15.701-35-35V55c0-19.299,15.701-35,35-35h166c19.299,0,35,15.701,35,35V181z"/>
	</g>
</g>
<g>
</g>
<g>
</g>
<g>
</g>
<g>
</g>
<g>
</g>
<g>
</g>
<g>
</g>
<g>
</g>
<g>
</g>
<g>
</g>
<g>
</g>
<g>
</g>
<g>
</g>
<g>
</g>
<g>
</g>
</svg>
