<?xml version="1.0" encoding="iso-8859-1"?>
<!-- Generator: Adobe Illustrator 19.0.0, SVG Export Plug-In . SVG Version: 6.00 Build 0)  -->
<svg version="1.1" id="Capa_1" xmlns="http://www.w3.org/2000/svg" xmlns:xlink="http://www.w3.org/1999/xlink" x="0px" y="0px"
	 viewBox="0 0 512 512" style="enable-background:new 0 0 512 512;" xml:space="preserve">
<g>
	<g>
		<path d="M512,373.004v-89.015c0-2.652-1.054-5.196-2.93-7.071l-86.072-86.058c-3.777-3.776-8.799-5.856-14.142-5.856H360V123
			c0-5.522-4.478-10-10-10h-80.094c-2.1-47.777-41.621-86-89.906-86c-48.285,0-87.806,38.223-89.906,86H10c-5.522,0-10,4.478-10,10
			v280c0,5.522,4.478,10,10,10h80.08c-5.091,7.402-8.08,16.357-8.08,26s2.988,18.598,8.08,26H10c-5.522,0-10,4.478-10,10
			c0,5.522,4.478,10,10,10h179.728c5.522,0,10-4.478,10-10c0-5.522-4.478-10-10-10H165.92c5.091-7.402,8.08-16.357,8.08-26
			s-2.988-18.598-8.08-26l188.156,0.004C348.987,420.405,346,429.359,346,439c0,9.643,2.988,18.598,8.08,26h-91.747
			c-5.522,0-10,4.478-10,10c0,5.522,4.478,10,10,10H502c5.522,0,10-4.478,10-10c0-5.522-4.478-10-10-10h-72.08
			c5.091-7.402,8.08-16.357,8.08-26c0-9.641-2.987-18.595-8.077-25.996H472C494.056,413.004,512,395.06,512,373.004z M180,47
			c37.254,0,67.797,29.257,69.878,66h-4.002h-4.5H110.122C112.203,76.257,142.746,47,180,47z M194.944,248.945
			c4.915,4.917,11.452,7.624,18.404,7.624c6.952,0,13.488-2.707,18.403-7.623c0,0,0.001,0,0.001-0.001
			c4.916-4.915,7.623-11.451,7.623-18.403c0-6.952-2.707-13.489-7.623-18.405c-2.61-2.61-5.642-4.543-8.877-5.811v-18.284
			l27.392,0.015c1.51,0.001,2.929,0.59,3.996,1.658c1.067,1.067,1.654,2.487,1.653,3.997l-0.04,70.732c0,0.001,0,0.002,0,0.002
			c0,0.113-0.046,0.225-0.127,0.305L129.157,391.345c-2.204,2.206-5.791,2.202-7.993,0l-68.618-68.618
			c-2.204-2.203-2.204-5.789,0-7.992l126.591-126.59c0.081-0.081,0.189-0.126,0.305-0.126l23.435,0.013v18.689h-0.001
			c-2.879,1.262-5.578,3.063-7.932,5.416c-4.916,4.916-7.623,11.453-7.623,18.405C187.321,237.494,190.028,244.031,194.944,248.945z
			 M207.321,230.543c0-1.61,0.627-3.124,1.766-4.263c1.175-1.175,2.718-1.763,4.262-1.763s3.087,0.588,4.262,1.763
			c1.139,1.139,1.766,2.652,1.766,4.263c0,1.609-0.626,3.123-1.765,4.262c0,0-0.001,0-0.001,0.001
			c-1.139,1.139-2.652,1.765-4.262,1.765s-3.123-0.626-4.263-1.766C207.947,233.666,207.321,232.153,207.321,230.543z M20,393V133
			h70v12.5c0,5.522,4.478,10,10,10c5.522,0,10-4.478,10-10V133h97.624c-3.023,5.494-4.748,11.799-4.748,18.5v16.531l-23.425-0.013
			c-0.003,0-0.005,0-0.008,0c-5.461,0-10.594,2.126-14.451,5.985L38.403,300.592c-4.845,4.845-7.513,11.287-7.513,18.139
			c0,6.852,2.668,13.294,7.513,18.139L94.535,393H20z M128,465c-14.337,0-26-11.663-26-26c0-14.337,11.663-26,26-26
			c14.337,0,26,11.663,26,26C154,453.337,142.337,465,128,465z M340,393h-21v-60.291c0-5.522-4.478-10-10-10
			c-5.522,0-10,4.478-10,10V393H155.787l114.105-114.105c3.856-3.857,5.982-8.984,5.984-14.438l0.04-70.732
			c0.004-6.853-2.661-13.296-7.503-18.144c-4.843-4.848-11.283-7.52-18.135-7.523l-27.403-0.015V151.5
			c0-10.201,8.299-18.5,18.5-18.5h4.5H250v12.5c0,5.522,4.478,10,10,10c5.522,0,10-4.478,10-10V133h70V393z M492,288.132V293
			h-35.857l20.361-20.361L492,288.132z M408.527,205.002h0.33l30.001,29.997l-13.929,13.929c-3.905,3.905-3.905,10.237,0,14.143
			C426.882,265.023,429.44,266,432,266s5.118-0.977,7.071-2.929l13.931-13.931l9.359,9.357l-34.471,34.47
			c-10.732-0.34-19.363-9.154-19.363-19.968V205.002z M392,465c-14.337,0-26-11.663-26-26c0-14.285,11.58-25.912,25.846-25.996
			h0.309C406.42,413.088,418,424.715,418,439C418,453.337,406.337,465,392,465z M392.154,393.004c-0.051,0-0.102-0.004-0.154-0.004
			s-0.103,0.004-0.154,0.004H360v-188l28.526-0.001V273c0,22.056,17.944,40,40,40H492v20.667h-31c-5.522,0-10,4.478-10,10
			c0,5.522,4.478,10,10,10h31v19.337c0,11.028-8.972,20-20,20H392.154z"/>
	</g>
</g>
<g>
	<g>
		<path d="M228.386,465h-0.13c-5.522,0-10,4.478-10,10c0,5.522,4.478,10,10,10h0.13c5.522,0,10-4.478,10-10
			C238.386,469.478,233.908,465,228.386,465z"/>
	</g>
</g>
<g>
	<g>
		<path d="M190.031,288.725c-0.246-5.062-1.663-9.978-4.09-14.432l1.148-1.148c3.905-3.905,3.905-10.237,0-14.143
			c-3.906-3.904-10.236-3.904-14.143,0l-1.146,1.149c-4.454-2.427-9.37-3.844-14.432-4.09c-8.744-0.413-16.872,2.641-22.861,8.631
			c-12.093,12.094-11.414,32.45,1.514,45.378v0.001c5.131,5.132,5.81,12.801,1.514,17.097c-4.297,4.296-11.966,3.616-17.096-1.514
			c-2.613-2.613-4.144-5.933-4.31-9.346c-0.147-3.047,0.846-5.8,2.796-7.75c3.905-3.905,3.905-10.237,0-14.143
			c-3.906-3.904-10.236-3.904-14.143,0c-9.789,9.79-11.207,24.992-4.536,37.288l-0.701,0.701c-3.905,3.905-3.905,10.237,0,14.143
			c1.953,1.952,4.512,2.929,7.071,2.929c2.559,0,5.118-0.977,7.071-2.929l0.703-0.703c5.033,2.73,10.551,4.11,15.987,4.11
			c7.845,0,15.517-2.862,21.299-8.645c12.093-12.094,11.414-32.451-1.514-45.38v-0.001c-5.131-5.131-5.81-12.8-1.514-17.096
			c1.949-1.95,4.693-2.932,7.75-2.796c3.413,0.166,6.732,1.696,9.347,4.311c2.613,2.613,4.144,5.933,4.31,9.346
			c0.147,3.048-0.846,5.8-2.796,7.75c-3.905,3.905-3.905,10.237,0,14.143c1.953,1.952,4.512,2.929,7.071,2.929
			c2.559,0,5.118-0.977,7.071-2.929C187.39,305.597,190.455,297.478,190.031,288.725z"/>
	</g>
</g>
<g>
	<g>
		<path d="M316.069,286.65c-1.859-1.859-4.439-2.93-7.069-2.93s-5.21,1.07-7.07,2.93c-1.86,1.86-2.93,4.44-2.93,7.07
			s1.069,5.21,2.93,7.07c1.86,1.859,4.44,2.93,7.07,2.93s5.21-1.07,7.069-2.93c1.86-1.86,2.931-4.44,2.931-7.07
			S317.93,288.51,316.069,286.65z"/>
	</g>
</g>
<g>
	<g>
		<path d="M433.54,336.6c-1.86-1.87-4.44-2.93-7.07-2.93s-5.21,1.06-7.07,2.93c-1.859,1.86-2.93,4.431-2.93,7.07
			c0,2.63,1.07,5.21,2.93,7.07s4.44,2.93,7.07,2.93s5.21-1.07,7.07-2.93c1.859-1.87,2.93-4.44,2.93-7.07S435.4,338.46,433.54,336.6z
			"/>
	</g>
</g>
<g>
</g>
<g>
</g>
<g>
</g>
<g>
</g>
<g>
</g>
<g>
</g>
<g>
</g>
<g>
</g>
<g>
</g>
<g>
</g>
<g>
</g>
<g>
</g>
<g>
</g>
<g>
</g>
<g>
</g>
</svg>
