<?xml version="1.0" encoding="iso-8859-1"?>
<!-- Generator: Adobe Illustrator 19.0.0, SVG Export Plug-In . SVG Version: 6.00 Build 0)  -->
<svg version="1.1" id="Capa_1" xmlns="http://www.w3.org/2000/svg" xmlns:xlink="http://www.w3.org/1999/xlink" x="0px" y="0px"
	 viewBox="0 0 512 512" style="enable-background:new 0 0 512 512;" xml:space="preserve">
<g>
	<g>
		<path d="M465.258,108.542l18.448-18.448c2.859-2.86,3.714-7.16,2.168-10.896c-1.548-3.735-5.193-6.172-9.238-6.172h-49.66
			c-5.521,0-9.999,4.477-9.999,9.999v49.66c0,4.044,2.437,7.69,6.172,9.238c1.237,0.512,2.537,0.761,3.824,0.761
			c2.603,0,5.159-1.016,7.072-2.929l16.845-16.845c63.339,92.606,52.012,219.895-28.038,299.944
			c-68.85,68.849-171.091,88.405-260.469,49.82c-5.069-2.189-10.954,0.147-13.143,5.216c-2.189,5.07,0.146,10.954,5.216,13.143
			C186.679,504.942,221.059,512,255.78,512c15.435,0,30.943-1.396,46.347-4.204c51.256-9.345,97.89-33.827,134.865-70.802
			c43.767-43.768,70.181-101.843,74.378-163.526C515.371,214.648,499.02,156.358,465.258,108.542z M436.975,108.545V93.023h15.522
			L436.975,108.545z"/>
	</g>
</g>
<g>
	<g>
		<path d="M133.606,457.809l-0.39-0.238c-4.715-2.874-10.867-1.378-13.74,3.34c-2.872,4.716-1.377,10.867,3.34,13.74l0.39,0.238
			c1.624,0.989,3.419,1.46,5.19,1.46c3.373,0,6.666-1.707,8.55-4.799C139.817,466.833,138.321,460.681,133.606,457.809z"/>
	</g>
</g>
<g>
	<g>
		<path d="M390.549,38.186l-0.495-0.306c-4.703-2.894-10.862-1.429-13.756,3.275c-2.895,4.703-1.428,10.863,3.276,13.757
			l0.495,0.306c1.635,1.006,3.443,1.484,5.23,1.484c3.357,0,6.637-1.69,8.525-4.759C396.719,47.238,395.252,41.08,390.549,38.186z"
			/>
	</g>
</g>
<g>
	<g>
		<path d="M356.984,20.727C310.491,0.788,259.517-4.907,209.576,4.257c-51.139,9.386-97.671,33.849-134.57,70.748
			C31.239,118.773,4.825,176.848,0.629,238.531c-3.999,58.82,12.352,117.11,46.114,164.926l-18.448,18.448
			c-2.859,2.86-3.714,7.16-2.168,10.896c1.548,3.735,5.193,6.172,9.238,6.172h49.66c5.521,0,9.999-4.477,9.999-9.999v-49.66
			c0-4.044-2.437-7.691-6.172-9.239c-3.737-1.545-8.038-0.692-10.896,2.168L61.11,389.089
			C-2.23,296.484,9.098,169.195,89.147,89.147c68.671-68.674,170.71-88.318,259.955-50.041c5.074,2.176,10.953-0.173,13.13-5.248
			C364.409,28.783,362.059,22.904,356.984,20.727z M75.025,403.455v15.522H59.503L75.025,403.455z"/>
	</g>
</g>
<g>
	<g>
		<path d="M441.912,205.655l-57.186-67.092c-9.515-11.16-23.383-17.562-38.048-17.562h-80.678v-1.642
			c13.565-4.26,23.432-16.951,23.432-31.903c0-18.433-14.997-33.43-33.43-33.43s-33.43,14.997-33.43,33.43
			c0,5.521,4.477,9.999,9.999,9.999c5.521,0,9.999-4.477,9.999-9.999c0-7.407,6.025-13.433,13.433-13.433
			s13.433,6.025,13.433,13.433s-6.025,13.433-13.433,13.433c-5.521,0-9.999,4.477-9.999,9.999v10.113h-80.678
			c-14.665,0-28.533,6.401-38.048,17.562l-57.186,67.092c-3.387,3.973-3.147,9.882,0.55,13.566l59.161,58.992
			c3.901,3.892,10.218,3.892,14.119,0l5.164-5.148v137.897h-0.003c0,5.521,4.477,9.999,9.999,9.999h195.369
			c5.521,0,9.999-4.477,9.999-9.999V274.332l3.385,3.625c1.849,1.979,4.421,3.125,7.129,3.173c0.061,0.001,0.119,0.002,0.179,0.002
			c2.645,0,5.184-1.048,7.06-2.919l59.161-58.992C445.059,215.536,445.299,209.628,441.912,205.655z M218.611,140.999h0.001h74.776
			v4.969c0,20.541-16.772,37.252-37.389,37.252s-37.389-16.711-37.389-37.252V140.999z M375.398,256.757l-13.64-14.606
			c-2.803-3.001-7.153-3.983-10.975-2.478c-3.82,1.506-6.331,5.194-6.331,9.302v151.988h-175.37V248.975
			c0-4.041-2.434-7.686-6.165-9.235c-3.73-1.546-8.03-0.699-10.893,2.155l-15.162,15.118L91.307,211.59l51.188-60.055
			c5.708-6.696,14.029-10.538,22.829-10.538h33.291v4.969c0,31.567,25.743,57.249,57.386,57.249
			c31.643,0,57.386-25.682,57.386-57.249v-4.969h33.291c8.8,0,17.121,3.841,22.829,10.538l51.188,60.055L375.398,256.757z"/>
	</g>
</g>
<g>
	<g>
		<path d="M279.129,243.94c-4.807-2.714-10.907-1.018-13.622,3.791l-46.371,82.139c-2.715,4.809-1.018,10.908,3.791,13.622
			c1.554,0.877,3.241,1.294,4.906,1.294c3.489,0,6.878-1.83,8.716-5.085l46.371-82.139
			C285.635,252.752,283.938,246.654,279.129,243.94z"/>
	</g>
</g>
<g>
	<g>
		<path d="M286.135,296.464c-14.339,0-26.005,11.666-26.005,26.005s11.666,26.004,26.005,26.004
			c14.339,0,26.004-11.665,26.004-26.004S300.474,296.464,286.135,296.464z M286.134,328.477c-3.313,0-6.008-2.695-6.008-6.007
			c0.001-3.313,2.696-6.008,6.008-6.008c3.313,0,6.007,2.695,6.007,6.008C292.141,325.782,289.447,328.477,286.134,328.477z"/>
	</g>
</g>
<g>
	<g>
		<path d="M225.866,229.995c-14.339,0-26.004,11.665-26.004,26.004s11.665,26.004,26.004,26.004s26.005-11.665,26.005-26.004
			S240.205,229.995,225.866,229.995z M225.866,262.007c-3.313,0-6.007-2.695-6.007-6.007s2.696-6.007,6.007-6.007
			c3.313,0,6.008,2.695,6.008,6.007C231.874,259.313,229.179,262.007,225.866,262.007z"/>
	</g>
</g>
<g>
</g>
<g>
</g>
<g>
</g>
<g>
</g>
<g>
</g>
<g>
</g>
<g>
</g>
<g>
</g>
<g>
</g>
<g>
</g>
<g>
</g>
<g>
</g>
<g>
</g>
<g>
</g>
<g>
</g>
</svg>
