<?xml version="1.0" encoding="iso-8859-1"?>
<!-- Generator: Adobe Illustrator 19.0.0, SVG Export Plug-In . SVG Version: 6.00 Build 0)  -->
<svg version="1.1" id="Capa_1" xmlns="http://www.w3.org/2000/svg" xmlns:xlink="http://www.w3.org/1999/xlink" x="0px" y="0px"
	 viewBox="0 0 512.001 512.001" style="enable-background:new 0 0 512.001 512.001;" xml:space="preserve">
<g>
	<g>
		<path d="M216.444,368.144c-1.859-1.86-4.438-2.92-7.068-2.92c-2.641,0-5.209,1.06-7.069,2.92c-1.86,1.87-2.93,4.439-2.93,7.079
			c0,2.63,1.069,5.209,2.93,7.068c1.86,1.861,4.44,2.931,7.069,2.931s5.209-1.07,7.068-2.931c1.86-1.869,2.931-4.438,2.931-7.068
			C219.375,372.583,218.305,370.014,216.444,368.144z"/>
	</g>
</g>
<g>
	<g>
		<path d="M312.803,201.253c-1.859-1.86-4.439-2.93-7.068-2.93c-2.641,0-5.209,1.069-7.069,2.93c-1.87,1.86-2.93,4.44-2.93,7.069
			s1.06,5.209,2.93,7.068c1.86,1.861,4.43,2.931,7.069,2.931c2.63,0,5.209-1.07,7.068-2.931c1.86-1.859,2.931-4.438,2.931-7.068
			S314.664,203.113,312.803,201.253z"/>
	</g>
</g>
<g>
	<g>
		<path d="M511.63,151.301l-12.423-46.359c-1.429-5.329-6.901-8.498-12.236-7.073l-65.548,17.493
			c4.053-13.78-1.653-29.087-14.63-36.579l-26.42-15.253c-0.002-0.001-0.004-0.003-0.007-0.004l-76.201-43.995
			c-0.002-0.001-0.004-0.002-0.006-0.003L277.761,4.283c-7.367-4.255-15.952-5.388-24.175-3.183
			c-8.22,2.202-15.089,7.474-19.344,14.843l-74.499,129.034c-4.227,7.32-5.199,15.635-3.386,23.275
			c-7.832,2.333-14.37,7.48-18.474,14.587L63.386,311.874c-2.108,3.652-3.401,7.552-3.95,11.492l-20.412-11.785
			c-4.784-2.762-10.899-1.122-13.658,3.66L1.369,356.805c-1.326,2.298-1.686,5.026-0.999,7.589c0.688,2.563,2.364,4.745,4.661,6.071
			l188.117,108.526c3.235,11.422,10.647,20.965,20.95,26.912c6.989,4.036,14.746,6.097,22.605,6.097
			c3.94,0,7.906-0.518,11.815-1.565h-0.001c23.581-6.319,37.844-30.215,32.493-53.823l159.164-275.904l64.374-17.16
			c2.564-0.684,4.751-2.358,6.08-4.656C511.956,156.596,512.318,153.863,511.63,151.301z M361.709,75.843l-22.943,39.74
			c-1.82-2.893-5.025-4.674-8.459-4.674c-0.856,0-1.728,0.111-2.594,0.344l-10.375,2.78l-2.78-10.376
			c-0.687-2.562-2.362-4.744-4.659-6.07c-2.299-1.327-5.028-1.686-7.588-0.999l-10.374,2.78l-2.78-10.375
			c-1.163-4.34-5.009-7.244-9.276-7.405l22.944-39.74L361.709,75.843z M177.062,154.977l4.069-7.046l75.36,43.509
			c1.575,0.909,3.294,1.342,4.989,1.342c3.456,0,6.817-1.794,8.669-5.001c2.762-4.782,1.123-10.897-3.66-13.658l-75.36-43.509
			l60.43-104.669c1.584-2.744,4.142-4.706,7.201-5.525c1.022-0.274,2.06-0.409,3.09-0.409c2.055,0,4.083,0.539,5.91,1.594
			l17.747,10.246l-34.7,60.101c-2.022,3.503-1.735,7.878,0.727,11.087c2.463,3.209,6.618,4.616,10.52,3.571l10.376-2.78l2.78,10.376
			c0.687,2.562,2.362,4.744,4.659,6.07c2.299,1.327,5.027,1.686,7.588,0.999l10.374-2.78l2.78,10.375
			c1.43,5.334,6.915,8.502,12.246,7.069l10.375-2.78l2.78,10.376c1.047,3.906,4.343,6.797,8.353,7.324
			c0.438,0.058,0.874,0.086,1.308,0.086c3.537,0,6.854-1.88,8.656-4.999l34.699-60.101l17.768,10.258
			c2.744,1.584,4.706,4.143,5.526,7.201c0.819,3.061,0.398,6.257-1.186,9.001l-74.498,129.034c-1.584,2.744-4.143,4.705-7.202,5.525
			c-3.06,0.821-6.256,0.398-9-1.185l-26.417-15.253c-0.002-0.001-0.005-0.003-0.007-0.005l-54.489-31.458l-48.119-27.782
			C175.74,167.909,173.793,160.641,177.062,154.977z M265.352,242.74l-22.944,39.74c-1.819-2.893-5.024-4.674-8.458-4.674
			c-0.856,0-1.728,0.111-2.594,0.344l-10.375,2.78l-2.78-10.375c-0.687-2.563-2.362-4.745-4.658-6.071
			c-2.297-1.327-5.027-1.687-7.588-0.999l-10.374,2.78l-2.78-10.374c-1.163-4.341-5.009-7.245-9.276-7.406l22.943-39.74l17.668,10.2
			L265.352,242.74z M80.705,321.874l4.069-7.047l75.36,43.509c1.575,0.909,3.294,1.342,4.989,1.342c3.456,0,6.817-1.794,8.669-5.001
			c2.762-4.782,1.123-10.897-3.66-13.658l-75.36-43.509l60.429-104.669c1.584-2.744,4.143-4.706,7.202-5.525
			c1.021-0.274,2.06-0.409,3.09-0.409c2.055,0,4.083,0.539,5.91,1.594l17.746,10.246l-34.699,60.101
			c-2.022,3.503-1.735,7.878,0.727,11.087c2.463,3.209,6.618,4.617,10.52,3.571l10.375-2.78l2.78,10.375
			c0.687,2.563,2.362,4.745,4.658,6.071c2.297,1.327,5.027,1.687,7.588,0.999l10.374-2.78l2.78,10.374
			c1.43,5.333,6.915,8.503,12.246,7.07l10.375-2.78l2.78,10.375c1.047,3.907,4.344,6.798,8.353,7.325
			c0.438,0.058,0.875,0.086,1.309,0.086c3.538,0,6.854-1.88,8.656-4.999l34.7-60.101l17.768,10.258
			c2.744,1.584,4.706,4.143,5.525,7.202c0.82,3.06,0.399,6.255-1.185,8.999l-74.498,129.034c-3.27,5.663-10.537,7.613-16.202,4.343
			L85.046,338.077c-2.744-1.584-4.706-4.143-5.526-7.201C78.7,327.815,79.121,324.618,80.705,321.874z M197.494,443.94
			c-2.151,3.726-3.73,7.672-4.745,11.734l-169.06-97.531L37.685,333.9l169.817,98.044
			C203.548,435.286,200.16,439.323,197.494,443.94z M243.343,491.119c-6.544,1.753-13.378,0.854-19.246-2.534
			c-5.867-3.388-10.064-8.856-11.818-15.4c-1.753-6.544-0.854-13.378,2.534-19.246c3.389-5.867,8.857-10.063,15.401-11.817
			c2.186-0.586,4.401-0.875,6.605-0.875c4.395,0,8.732,1.152,12.64,3.409c5.867,3.388,10.064,8.856,11.818,15.399
			C264.895,473.564,256.85,487.5,243.343,491.119z M431.013,162.456c-2.567,0.685-4.757,2.363-6.085,4.664L269.991,435.695
			c-3.036-3.252-6.57-6.072-10.533-8.359c-4.432-2.559-9.175-4.314-14.055-5.263l163.146-282.578l73.929-19.73l7.245,27.041
			L431.013,162.456z"/>
	</g>
</g>
<g>
</g>
<g>
</g>
<g>
</g>
<g>
</g>
<g>
</g>
<g>
</g>
<g>
</g>
<g>
</g>
<g>
</g>
<g>
</g>
<g>
</g>
<g>
</g>
<g>
</g>
<g>
</g>
<g>
</g>
</svg>
