<?xml version="1.0" encoding="iso-8859-1"?>
<!-- Generator: Adobe Illustrator 19.0.0, SVG Export Plug-In . SVG Version: 6.00 Build 0)  -->
<svg version="1.1" id="Capa_1" xmlns="http://www.w3.org/2000/svg" xmlns:xlink="http://www.w3.org/1999/xlink" x="0px" y="0px"
	 viewBox="0 0 512 512" style="enable-background:new 0 0 512 512;" xml:space="preserve">
<g>
	<g>
		<path d="M379.765,465h-0.153c-5.523,0-10,4.478-10,10c0,5.522,4.477,10,10,10h0.153c5.523,0,10-4.478,10-10
			C389.765,469.478,385.288,465,379.765,465z"/>
	</g>
</g>
<g>
	<g>
		<path d="M502,185H394.143L286.042,76.899C288.564,72.151,290,66.741,290,61c0-18.748-15.252-34-34-34s-34,15.252-34,34
			c0,5.741,1.436,11.151,3.958,15.899L117.857,185H10c-5.523,0-10,4.478-10,10v279.999c0,5.522,4.477,10,10,10h329.553
			c5.523,0,10-4.478,10-10c0-5.522-4.477-10-10-10H20V205h472v259.999h-72.182c-5.523,0-10,4.478-10,10c0,5.522,4.477,10,10,10H502
			c5.523,0,10-4.478,10-10V195C512,189.478,507.523,185,502,185z M256,47c7.72,0,14,6.28,14,14c0,7.72-6.28,14-14,14
			c-7.72,0-14-6.28-14-14C242,53.28,248.28,47,256,47z M146.142,185l93.959-93.959C244.849,93.564,250.259,95,256,95
			c5.741,0,11.151-1.436,15.899-3.959L365.858,185H146.142z"/>
	</g>
</g>
<g>
	<g>
		<path d="M141.343,350.999c-5.523,0-10,4.478-10,10c0,2.206-1.794,4-4,4h-16.968c-2.206,0-4-1.794-4-4v-52c0-2.206,1.795-4,4-4
			h16.968c2.206,0,4,1.794,4,4c0,5.522,4.477,10,10,10s10-4.478,10-10c0-13.233-10.766-24-24-24h-16.968c-13.234,0-24,10.767-24,24
			v52c0,13.233,10.766,24,24,24h16.968c13.234,0,24-10.767,24-24C151.343,355.477,146.866,350.999,141.343,350.999z"/>
	</g>
</g>
<g>
	<g>
		<path d="M196.594,364.999h-10.75v-70c0-5.522-4.477-10-10-10s-10,4.478-10,10v80c0,5.522,4.477,10,10,10h20.75
			c5.523,0,10-4.478,10-10C206.594,369.477,202.117,364.999,196.594,364.999z"/>
	</g>
</g>
<g>
	<g>
		<path d="M247.815,285.006c-17.645,0-32,14.355-32,32v35.993c0,17.645,14.355,32,32,32s32-14.355,32-32v-35.993
			C279.815,299.361,265.46,285.006,247.815,285.006z M259.815,352.999c0,6.617-5.383,12-12,12s-12-5.383-12-12v-35.993
			c0-6.617,5.383-12,12-12s12,5.383,12,12V352.999z"/>
	</g>
</g>
<g>
	<g>
		<path d="M326.072,323.5c-7.093,0-12.864-4.822-12.864-10.75c0-5.928,5.771-10.75,12.864-10.75c7.093,0,12.863,4.822,12.863,10.75
			c0,5.522,4.477,10,10,10s10-4.478,10-10c0-16.956-14.742-30.75-32.863-30.75c-18.121,0-32.864,13.794-32.864,30.75
			s14.743,30.75,32.864,30.75c7.093,0,12.863,4.822,12.863,10.75c0.001,5.927-5.77,10.749-12.863,10.749
			s-12.864-4.822-12.864-10.749c0-5.522-4.477-10-10-10s-10,4.478-10,10c0,16.955,14.743,30.749,32.864,30.749
			s32.863-13.794,32.863-30.749C358.935,337.294,344.193,323.5,326.072,323.5z"/>
	</g>
</g>
<g>
	<g>
		<path d="M415.624,364.999h-22.281c-0.413,0-0.75-0.336-0.75-0.749V343.5h12.548c5.523,0,10-4.478,10-10c0-5.522-4.477-10-10-10
			h-12.548v-20.751c0.001-0.413,0.337-0.749,0.75-0.749h22.281c5.523,0,10-4.478,10-10c0-5.522-4.477-10-10-10h-22.281
			c-11.441,0-20.75,9.308-20.75,20.749v61.501c0,11.441,9.308,20.749,20.75,20.749h22.281c5.523,0,10-4.478,10-10
			C425.624,369.477,421.147,364.999,415.624,364.999z"/>
	</g>
</g>
<g>
	<g>
		<path d="M462.002,264.998c-16.542,0-30-13.458-30-30c0-5.522-4.477-10-10-10H299.333c-5.523,0-10,4.478-10,10
			c0,5.522,4.477,10,10,10h113.672c3.987,19.562,19.435,35.008,38.996,38.995v102.012c-19.561,3.987-35.008,19.434-38.996,38.995
			H98.994c-3.987-19.562-19.435-35.008-38.996-38.995V283.993c19.561-3.987,35.008-19.434,38.996-38.995H210.5
			c5.523,0,10-4.478,10-10c0-5.522-4.477-10-10-10H89.999c-5.523,0-10,4.478-10,10c0,16.542-13.458,30-30,30
			c-5.523,0-10,4.478-10,10V395c0,5.522,4.477,10,10,10c16.542,0,30,13.458,30,30c0,5.522,4.477,10,10,10h332.003
			c5.523,0,10-4.478,10-10c0-16.542,13.458-30,30-30c5.523,0,10-4.478,10-10V274.998
			C472.002,269.476,467.525,264.998,462.002,264.998z"/>
	</g>
</g>
<g>
	<g>
		<path d="M263.07,227.93c-1.86-1.86-4.44-2.93-7.07-2.93s-5.21,1.069-7.07,2.93c-1.86,1.86-2.93,4.44-2.93,7.07
			s1.07,5.21,2.93,7.069c1.86,1.861,4.44,2.931,7.07,2.931s5.21-1.07,7.07-2.931c1.86-1.859,2.93-4.439,2.93-7.069
			S264.93,229.79,263.07,227.93z"/>
	</g>
</g>
<g>
</g>
<g>
</g>
<g>
</g>
<g>
</g>
<g>
</g>
<g>
</g>
<g>
</g>
<g>
</g>
<g>
</g>
<g>
</g>
<g>
</g>
<g>
</g>
<g>
</g>
<g>
</g>
<g>
</g>
</svg>
