<?xml version="1.0" encoding="iso-8859-1"?>
<!-- Generator: Adobe Illustrator 19.0.0, SVG Export Plug-In . SVG Version: 6.00 Build 0)  -->
<svg version="1.1" id="Capa_1" xmlns="http://www.w3.org/2000/svg" xmlns:xlink="http://www.w3.org/1999/xlink" x="0px" y="0px"
	 viewBox="0 0 512 512" style="enable-background:new 0 0 512 512;" xml:space="preserve">
<g>
	<g>
		<path d="M502,436h-12.003V181.598c0-19.621-15.441-35.584-34.42-35.584h-11.298c0.223-2.58-0.543-5.237-2.342-7.349
			l-57.195-67.101C375.227,60.402,361.358,54,346.689,54h-43.296c-0.696,0-1.375,0.072-2.031,0.207
			c-0.656-0.135-1.335-0.207-2.031-0.207h-29.068c8.727-4.977,14.629-14.362,14.629-25.107C284.892,12.961,271.931,0,256,0
			c-15.931,0-28.892,12.961-28.892,28.893c0,5.522,4.477,10,10,10c5.523,0,10-4.478,10-10c0-4.903,3.989-8.893,8.892-8.893
			s8.892,3.989,8.892,8.893s-3.989,8.892-8.892,8.892c-5.523,0-10,4.478-10,10V54h-33.869c-0.602,0-1.189,0.063-1.762,0.165
			c-0.573-0.102-1.16-0.165-1.762-0.165h-43.296c-14.668,0-28.538,6.402-38.052,17.564l-57.195,67.101
			c-1.8,2.111-2.565,4.768-2.342,7.349H56.417c-18.979,0-34.42,15.963-34.42,35.584V436H10c-5.523,0-10,4.478-10,10v17
			c0,27.019,21.981,49,49,49h414c27.019,0,49-21.981,49-49v-17C512,440.478,507.523,436,502,436z M455.576,166.014
			c7.952,0,14.421,6.991,14.421,15.584V436H448V209.479c0-10.741-8.738-19.479-19.479-19.479h-25.009l24.055-23.986H455.576z
			 M218.607,74h74.786v4.97c0,20.544-16.774,37.257-37.393,37.257s-37.393-16.713-37.393-37.257V74z M142.479,84.539
			C148.188,77.841,156.509,74,165.311,74h33.296v4.97c0,31.571,25.747,57.257,57.393,57.257s57.393-25.686,57.393-57.257V74h33.296
			c8.801,0,17.123,3.841,22.832,10.539l51.195,60.063l-45.303,45.173l-13.64-14.608c-2.803-3.001-7.157-3.983-10.977-2.478
			c-3.821,1.506-6.332,5.195-6.332,9.303V334H294c-5.523,0-10,4.478-10,10c0,5.522,4.477,10,10,10h60.464c5.523,0,10-4.478,10-10
			V207.354l3.384,3.624c1.849,1.979,4.422,3.125,7.131,3.173c2.721,0.035,5.321-1.003,7.239-2.917l1.237-1.233H428v226H84v-20
			h73.009c5.523,0,10-4.478,10-10c0-5.522-4.477-10-10-10H84V210h44c0.175,0,0.346-0.017,0.519-0.026l1.263,1.26
			c3.903,3.893,10.219,3.893,14.122,0l5.164-5.149V344c0,5.522,4.477,10,10,10h58.682c5.523,0,10-4.478,10-10
			c0-5.522-4.477-10-10-10h-48.682V181.991c0-4.042-2.433-7.687-6.167-9.236c-3.733-1.548-8.032-0.699-10.895,2.155l-15.164,15.12
			l-45.56-45.429L142.479,84.539z M293.506,456c-1.428,4.628-5.746,8-10.836,8h-53.34c-5.09,0-9.408-3.372-10.836-8H293.506z
			 M41.997,181.598c0-8.593,6.469-15.584,14.42-15.584h28.016L108.488,190H83.479C72.738,190,64,198.738,64,209.479V436H41.997
			V181.598z M492,463c0,15.99-13.009,29-29,29H49c-15.991,0-29-13.01-29-29v-7h178.172c1.672,15.716,15.005,28,31.157,28h53.341
			c16.152,0,29.486-12.284,31.157-28H492V463z"/>
	</g>
</g>
<g>
	<g>
		<path d="M264.82,336.93c-1.86-1.86-4.44-2.93-7.07-2.93s-5.21,1.069-7.07,2.93c-1.86,1.86-2.93,4.44-2.93,7.07
			s1.07,5.21,2.93,7.069c1.86,1.86,4.44,2.931,7.07,2.931s5.21-1.07,7.07-2.931c1.86-1.859,2.93-4.439,2.93-7.069
			S266.68,338.79,264.82,336.93z"/>
	</g>
</g>
<g>
	<g>
		<path d="M279.131,181.452c-4.81-2.715-10.909-1.018-13.624,3.792l-46.377,82.151c-2.715,4.809-1.018,10.909,3.792,13.624
			c1.554,0.877,3.241,1.294,4.907,1.294c3.49,0,6.879-1.83,8.717-5.086l46.377-82.151
			C285.638,190.266,283.941,184.167,279.131,181.452z"/>
	</g>
</g>
<g>
	<g>
		<path d="M286.138,233.983c-14.341,0-26.008,11.668-26.008,26.009S271.797,286,286.138,286s26.008-11.667,26.008-26.008
			S300.479,233.983,286.138,233.983z M286.138,266c-3.313,0-6.008-2.695-6.008-6.008c0-3.313,2.696-6.009,6.008-6.009
			c3.313,0,6.008,2.695,6.008,6.009C292.146,263.305,289.451,266,286.138,266z"/>
	</g>
</g>
<g>
	<g>
		<path d="M225.862,167.505c-14.341,0-26.008,11.667-26.008,26.008s11.667,26.008,26.008,26.008s26.008-11.667,26.008-26.008
			S240.203,167.505,225.862,167.505z M225.862,199.521c-3.313,0-6.008-2.695-6.008-6.008s2.695-6.008,6.008-6.008
			s6.008,2.695,6.008,6.008S229.175,199.521,225.862,199.521z"/>
	</g>
</g>
<g>
	<g>
		<path d="M203.92,398.93c-1.86-1.86-4.44-2.93-7.07-2.93c-2.63,0-5.21,1.069-7.07,2.93c-1.86,1.861-2.93,4.44-2.93,7.07
			s1.07,5.21,2.93,7.069c1.86,1.86,4.44,2.931,7.07,2.931s5.21-1.07,7.07-2.931c1.86-1.859,2.93-4.439,2.93-7.069
			S205.78,400.79,203.92,398.93z"/>
	</g>
</g>
<g>
</g>
<g>
</g>
<g>
</g>
<g>
</g>
<g>
</g>
<g>
</g>
<g>
</g>
<g>
</g>
<g>
</g>
<g>
</g>
<g>
</g>
<g>
</g>
<g>
</g>
<g>
</g>
<g>
</g>
</svg>
