<?xml version="1.0" encoding="iso-8859-1"?>
<!-- Generator: Adobe Illustrator 19.0.0, SVG Export Plug-In . SVG Version: 6.00 Build 0)  -->
<svg version="1.1" id="Capa_1" xmlns="http://www.w3.org/2000/svg" xmlns:xlink="http://www.w3.org/1999/xlink" x="0px" y="0px"
	 viewBox="0 0 512 512" style="enable-background:new 0 0 512 512;" xml:space="preserve">
<g>
	<g>
		<path d="M230.815,289.822H211.17c13.958-13.997,29.645-34.262,29.645-54.653c0-19.843-13.332-33.174-33.174-33.174
			c-18.292,0-33.174,14.882-33.174,33.174c0,5.522,4.477,10,10,10c5.523,0,10-4.478,10-10c0-7.264,5.91-13.174,13.174-13.174
			c13.174,0,13.174,9.915,13.174,13.174c0,20.859-30.518,47.93-42.271,56.597c-3.482,2.561-4.926,7.068-3.578,11.174
			c1.347,4.107,5.179,6.883,9.501,6.883h46.348c5.523,0,10-4.479,10-10.001C240.815,294.3,236.338,289.822,230.815,289.822z"/>
	</g>
</g>
<g>
	<g>
		<path d="M311,201.996c-5.523,0-10,4.478-10,10v88c0,5.522,4.477,10,10,10s10-4.478,10-10v-88
			C321,206.474,316.523,201.996,311,201.996z"/>
	</g>
</g>
<g>
	<g>
		<path d="M327.532,245.947h-48.717v-33.951c0-5.522-4.477-10-10-10s-10,4.478-10,10v43.951c0,5.522,4.477,10,10,10h58.717
			c5.523,0,10-4.478,10-10C337.532,250.425,333.055,245.947,327.532,245.947z"/>
	</g>
</g>
<g>
	<g>
		<path d="M256,102.649c-5.523,0-10,4.478-10,10v20.666c0,5.522,4.477,10,10,10s10-4.477,10-10v-20.666
			C266,107.127,261.523,102.649,256,102.649z"/>
	</g>
</g>
<g>
	<g>
		<path d="M256,368.676c-5.523,0-10,4.478-10,10v20.666c0,5.522,4.477,10,10,10s10-4.477,10-10v-20.666
			C266,373.154,261.523,368.676,256,368.676z"/>
	</g>
</g>
<g>
	<g>
		<path d="M399.347,245.996H378.68c-5.523,0-10,4.478-10,10c0,5.522,4.477,10,10,10h20.667c5.523,0,10-4.478,10-10
			C409.347,250.474,404.87,245.996,399.347,245.996z"/>
	</g>
</g>
<g>
	<g>
		<path d="M133.32,245.996h-20.667c-5.523,0-10,4.478-10,10c0,5.522,4.477,10,10,10h20.667c5.523,0,10-4.478,10-10
			C143.32,250.474,138.843,245.996,133.32,245.996z"/>
	</g>
</g>
<g>
	<g>
		<path d="M502,245.997h-62.416c-5.523,0-10,4.478-10,10v0.417c0,95.944-78.056,174-174,174
			c-75.077,0-141.439-47.824-165.133-119.006c-1.502-4.513-2.833-9.146-3.957-13.771c-1.304-5.366-6.708-8.662-12.078-7.357
			c-5.367,1.304-8.661,6.711-7.357,12.078c1.254,5.161,2.74,10.331,4.416,15.367c26.418,79.365,100.406,132.688,184.109,132.688
			c103.76,0,188.755-81.878,193.766-184.417h42.444c-2.455,59.287-26.707,114.667-68.917,156.877
			C378.303,467.448,319.038,491.996,256,491.996s-122.303-24.548-166.877-69.123c-92.016-92.017-92.016-241.737,0-333.754
			C180.185-1.943,329.106-2.723,421.094,87.38c3.917,3.836,10.192,3.804,14.069-0.072L438,84.471v54.193h-54.191l7.107-7.107
			c1.882-1.882,2.936-4.436,2.929-7.096c-0.006-2.661-1.073-5.21-2.964-7.082c-0.022-0.021-0.094-0.093-0.116-0.114
			c-36.402-35.372-84.41-54.852-135.18-54.852c-42.736,0-83.268,13.625-117.217,39.403c-32.845,24.939-57.316,60.349-68.906,99.704
			c-1.56,5.298,1.47,10.857,6.768,12.418c5.297,1.558,10.856-1.47,12.417-6.768c21.631-73.456,90.278-124.758,166.937-124.758
			c42.167,0,82.209,14.981,113.814,42.376l-16.804,16.804c-2.86,2.86-3.716,7.161-2.168,10.898c1.548,3.736,5.195,6.173,9.239,6.173
			H448c5.523,0,10-4.478,10-10V60.328c0-4.045-2.436-7.691-6.173-9.239c-3.736-1.546-8.039-0.692-10.898,2.168L427.887,66.3
			C380.382,23.17,319.309-0.318,254.742,0.008C186.84,0.334,123,26.958,74.98,74.976C26.629,123.329,0,187.616,0,255.996
			s26.629,132.667,74.98,181.02c48.353,48.351,112.64,74.98,181.02,74.98s132.667-26.629,181.02-74.979
			C485.371,388.665,512,324.378,512,255.997C512,250.475,507.523,245.997,502,245.997z"/>
	</g>
</g>
<g>
	<g>
		<path d="M71.583,246.267c-5.523,0-10,4.478-10,10v0.146c0,5.522,4.477,10,10,10s10-4.478,10-10v-0.146
			C81.583,250.745,77.106,246.267,71.583,246.267z"/>
	</g>
</g>
<g>
</g>
<g>
</g>
<g>
</g>
<g>
</g>
<g>
</g>
<g>
</g>
<g>
</g>
<g>
</g>
<g>
</g>
<g>
</g>
<g>
</g>
<g>
</g>
<g>
</g>
<g>
</g>
<g>
</g>
</svg>
