<?xml version="1.0" encoding="iso-8859-1"?>
<!-- Generator: Adobe Illustrator 19.0.0, SVG Export Plug-In . SVG Version: 6.00 Build 0)  -->
<svg version="1.1" id="Capa_1" xmlns="http://www.w3.org/2000/svg" xmlns:xlink="http://www.w3.org/1999/xlink" x="0px" y="0px"
	 viewBox="0 0 512 512" style="enable-background:new 0 0 512 512;" xml:space="preserve">
<g>
	<g>
		<path d="M170.07,392.93c-1.86-1.86-4.44-2.93-7.07-2.93s-5.21,1.069-7.07,2.93c-1.86,1.86-2.93,4.43-2.93,7.07
			c0,2.63,1.07,5.21,2.93,7.069c1.86,1.86,4.44,2.931,7.07,2.931s5.21-1.07,7.07-2.931c1.86-1.859,2.93-4.439,2.93-7.069
			S171.93,394.79,170.07,392.93z"/>
	</g>
</g>
<g>
	<g>
		<path d="M502,44h-71.596c-4.705-25.012-26.698-44-53.057-44s-48.352,18.988-53.057,44H210.73c-4.705-25.012-26.698-44-53.057-44
			c-26.359,0-48.352,18.988-53.057,44H43.823c-5.523,0-10,4.478-10,10v384.125H10c-5.523,0-10,4.478-10,10
			C0,483.346,28.654,512,63.875,512c0,0,383.696,0,384.25,0C483.346,512,512,483.346,512,448.125V54C512,48.478,507.523,44,502,44z
			 M63.875,492c-20.754,0-38.188-14.484-42.726-33.875h363.882c2.053,13.005,8.045,24.718,16.712,33.875H63.875z M492,448.125
			C492,472.317,472.318,492,448.125,492s-43.875-19.683-43.875-43.875c0-5.522-4.477-10-10-10H53.823V410h69.335
			c5.523,0,10-4.478,10-10c0-5.522-4.477-10-10-10H53.823V147h360.51c5.523,0,10-4.478,10-10c0-5.522-4.477-10-10-10H53.823V64
			h50.794c4.705,25.012,26.698,44,53.057,44c5.523,0,10-4.478,10-10c0-5.522-4.477-10-10-10c-18.748,0-34-15.252-34-34
			s15.252-34,34-34c15.269,0,28.217,10.117,32.497,24h-32.497c-5.523,0-10,4.478-10,10s4.477,10,10,10h166.617
			c4.705,25.012,26.698,44,53.057,44c5.523,0,10-4.478,10-10c0-5.522-4.477-10-10-10c-18.748,0-34-15.252-34-34s15.252-34,34-34
			c15.269,0,28.217,10.117,32.497,24h-32.497c-5.523,0-10,4.478-10,10s4.477,10,10,10H492V448.125z"/>
	</g>
</g>
<g>
	<g>
		<path d="M468.31,129.93c-1.86-1.86-4.44-2.93-7.07-2.93s-5.21,1.069-7.07,2.93c-1.86,1.861-2.93,4.44-2.93,7.07
			s1.07,5.21,2.93,7.069c1.86,1.861,4.44,2.931,7.07,2.931s5.21-1.07,7.07-2.931c1.86-1.859,2.93-4.439,2.93-7.069
			S470.17,131.79,468.31,129.93z"/>
	</g>
</g>
<g>
	<g>
		<path d="M320.841,206.449c-4.824-2.691-10.915-0.961-13.604,3.862l-86.246,154.635c-2.69,4.823-0.961,10.914,3.862,13.604
			c1.542,0.86,3.213,1.269,4.862,1.269c3.508,0,6.913-1.85,8.743-5.131l86.246-154.635
			C327.394,215.23,325.665,209.14,320.841,206.449z"/>
	</g>
</g>
<g>
	<g>
		<path d="M324.544,308.392c-19.692,0-35.713,16.021-35.713,35.713s16.021,35.713,35.713,35.713s35.713-16.021,35.713-35.713
			S344.237,308.392,324.544,308.392z M324.544,359.817c-8.664,0-15.713-7.049-15.713-15.713s7.049-15.713,15.713-15.713
			s15.713,7.049,15.713,15.713S333.208,359.817,324.544,359.817z"/>
	</g>
</g>
<g>
	<g>
		<path d="M221.279,205.183c-19.692,0-35.713,16.021-35.713,35.713s16.021,35.713,35.713,35.713
			c19.692,0,35.713-16.021,35.713-35.713S240.971,205.183,221.279,205.183z M221.279,256.609
			c-8.664-0.001-15.713-7.049-15.713-15.713s7.049-15.713,15.713-15.713c8.665,0,15.713,7.049,15.713,15.713
			S229.943,256.609,221.279,256.609z"/>
	</g>
</g>
<g>
</g>
<g>
</g>
<g>
</g>
<g>
</g>
<g>
</g>
<g>
</g>
<g>
</g>
<g>
</g>
<g>
</g>
<g>
</g>
<g>
</g>
<g>
</g>
<g>
</g>
<g>
</g>
<g>
</g>
</svg>
