<?xml version="1.0" encoding="iso-8859-1"?>
<!-- Generator: Adobe Illustrator 19.0.0, SVG Export Plug-In . SVG Version: 6.00 Build 0)  -->
<svg version="1.1" id="Capa_1" xmlns="http://www.w3.org/2000/svg" xmlns:xlink="http://www.w3.org/1999/xlink" x="0px" y="0px"
	 viewBox="0 0 512 512" style="enable-background:new 0 0 512 512;" xml:space="preserve">
<g>
	<g>
		<path d="M164.763,401.474c-0.024-0.024-0.103-0.103-0.141-0.142c-3.858-3.928-10.169-4.002-14.115-0.154
			c-3.957,3.855-4.039,10.188-0.184,14.144c0.03,0.031,0.081,0.083,0.112,0.113c1.96,2.012,4.561,3.022,7.164,3.022
			c2.516,0,5.034-0.943,6.979-2.839C168.536,411.762,168.618,405.429,164.763,401.474z"/>
	</g>
</g>
<g>
	<g>
		<path d="M255.998,160.897c-39.841,0-77.298,15.515-105.471,43.687c-21.554,21.555-35.823,48.743-41.265,78.627
			c-5.314,29.182-1.924,58.948,9.803,86.078c1.632,3.777,5.316,6.036,9.186,6.036c1.324,0,2.671-0.265,3.964-0.824
			c5.07-2.19,7.403-8.078,5.212-13.148c-21.154-48.937-10.459-104.919,27.245-142.624c24.394-24.395,56.827-37.828,91.326-37.828
			c5.523,0,10.002-4.479,10.002-10.002C266,165.376,261.521,160.897,255.998,160.897z"/>
	</g>
</g>
<g>
	<g>
		<path d="M361.56,204.677c-3.855-3.956-10.186-4.039-14.144-0.184c-3.957,3.855-4.039,10.188-0.184,14.144l0.204,0.206
			c1.95,1.95,4.503,2.925,7.057,2.925c2.56,0,5.122-0.979,7.077-2.936C365.477,214.926,365.467,208.583,361.56,204.677z"/>
	</g>
</g>
<g>
	<g>
		<path d="M395.112,256.152c-1.993-5.152-7.785-7.71-12.937-5.719c-5.151,1.992-7.712,7.784-5.719,12.937
			c18.45,47.691,7.016,101.864-29.132,138.012c-24.346,24.346-56.715,37.78-91.144,37.828c-5.524,0.008-9.996,4.492-9.988,10.016
			c0.008,5.52,4.484,9.988,10.002,9.988h0.014c39.762-0.056,77.145-15.57,105.262-43.687
			C403.214,373.781,416.419,311.223,395.112,256.152z"/>
	</g>
</g>
<g>
	<g>
		<path d="M301.07,229.143c-4.823-2.691-10.916-0.961-13.607,3.863l-80.515,144.361c-2.69,4.824-0.961,10.916,3.863,13.607
			c1.542,0.86,3.215,1.269,4.863,1.269c3.509,0,6.913-1.85,8.744-5.132l80.515-144.361
			C307.624,237.925,305.894,231.833,301.07,229.143z"/>
	</g>
</g>
<g>
	<g>
		<path d="M304.202,324.227c-18.751,0-34.006,15.255-34.006,34.006s15.255,34.006,34.006,34.006s34.006-15.255,34.006-34.006
			S322.954,324.227,304.202,324.227z M304.202,372.236c-7.721,0-14.003-6.281-14.003-14.003s6.281-14.003,14.003-14.003
			s14.003,6.281,14.003,14.003S311.924,372.236,304.202,372.236z"/>
	</g>
</g>
<g>
	<g>
		<path d="M207.798,227.875c-18.752,0-34.006,15.255-34.006,34.006s15.255,34.006,34.006,34.006
			c18.751,0,34.006-15.255,34.006-34.006S226.55,227.875,207.798,227.875z M207.798,275.884c-7.721,0-14.003-6.281-14.003-14.003
			s6.281-14.003,14.003-14.003s14.003,6.281,14.003,14.003S215.52,275.884,207.798,275.884z"/>
	</g>
</g>
<g>
	<g>
		<path d="M422.053,194.936l22.913-22.914c9.875-9.876,9.874-25.943,0-35.819l-23.589-23.589
			c-4.784-4.784-11.145-7.418-17.909-7.418c-6.764,0-13.125,2.635-17.909,7.418l-24.723,24.723
			c-20.858-12.658-43.524-21.211-66.83-25.64V74.014h22.005c16.545,0,30.006-13.461,30.006-30.006V30.006
			C346.016,13.461,332.555,0,316.01,0H195.988c-16.545,0-30.006,13.461-30.006,30.006v14.003c0,16.545,13.461,30.006,30.006,30.006
			h22.003v37.684c-38.442,7.307-75.158,25.802-104.852,55.497c-78.775,78.775-78.775,206.95,0,285.725
			C152.526,492.307,204.264,512,256.001,512s103.475-19.693,142.862-59.08C468.948,382.835,476.676,273.648,422.053,194.936z
			 M399.703,126.76c1.005-1.006,2.342-1.56,3.765-1.56c1.422,0,2.76,0.554,3.765,1.56l23.589,23.589
			c2.075,2.075,2.075,5.453,0,7.528l-21.086,21.086c-3.441-4.03-7.062-7.958-10.872-11.768
			c-6.717-6.717-13.802-12.847-21.176-18.419L399.703,126.76z M195.988,54.01c-5.515,0-10.002-4.487-10.002-10.002V30.006
			c0-5.515,4.487-10.002,10.002-10.002H316.01c5.515,0,10.002,4.487,10.002,10.002v14.003c0,5.515-4.487,10.002-10.002,10.002
			H195.988z M274.002,74.014v34.909c-11.977-1.062-24.029-1.062-36.007,0V74.014H274.002z M384.718,438.774
			c-70.974,70.976-186.461,70.976-257.435,0c-70.975-70.975-70.975-186.46,0-257.435c35.487-35.488,82.102-53.232,128.717-53.232
			s93.23,17.743,128.717,53.232C455.693,252.316,455.693,367.799,384.718,438.774z"/>
	</g>
</g>
<g>
</g>
<g>
</g>
<g>
</g>
<g>
</g>
<g>
</g>
<g>
</g>
<g>
</g>
<g>
</g>
<g>
</g>
<g>
</g>
<g>
</g>
<g>
</g>
<g>
</g>
<g>
</g>
<g>
</g>
</svg>
