<?xml version="1.0" encoding="iso-8859-1"?>
<!-- Generator: Adobe Illustrator 19.0.0, SVG Export Plug-In . SVG Version: 6.00 Build 0)  -->
<svg version="1.1" id="Capa_1" xmlns="http://www.w3.org/2000/svg" xmlns:xlink="http://www.w3.org/1999/xlink" x="0px" y="0px"
	 viewBox="0 0 512.001 512.001" style="enable-background:new 0 0 512.001 512.001;" xml:space="preserve">
<g>
	<g>
		<path d="M388.11,17.601l-8.255-1.987L327.799,0.402c-0.934-0.273-1.877-0.398-2.805-0.399c0-0.001,0-0.002,0-0.003h-0.069
			c-0.022,0-0.044,0-0.066,0h-93.782c-0.025,0-0.049,0-0.074,0h-0.065c0,0.001,0,0.002,0,0.003c-0.928,0-1.87,0.126-2.805,0.399
			l-52.055,15.212l-8.255,1.987c-17.542,4.222-29.792,19.771-29.792,37.813v250.587c0,5.523,4.477,10,10,10h259.872
			c5.523,0,10-4.477,10-10V55.414C417.903,37.372,405.652,21.823,388.11,17.601z M331.475,22.313l28.885,8.441l-54.867,70.636
			L331.475,22.313z M224.458,22.313l25.982,79.077l-54.867-70.636L224.458,22.313z M181.342,296.001h-23.311V84.276l23.311,57.914
			V296.001z M267.966,296.001h-66.625V140.253c0-1.279-0.246-2.547-0.723-3.734l-37.373-92.851c-0.12-0.297-0.255-0.583-0.398-0.862
			c2.489-2.777,5.806-4.834,9.656-5.76l2.217-0.534l93.246,120.044V296.001z M244.75,20.001h66.432l-33.216,101.091L244.75,20.001z
			 M354.591,140.253v155.748h-66.625V156.556l93.246-120.044l2.217,0.534c4.394,1.058,8.095,3.585,10.659,6.98
			c-1.4,1.057-2.546,2.487-3.249,4.232l-35.525,88.261C354.836,137.706,354.591,138.974,354.591,140.253z M397.902,296.001h-23.311
			V142.19l23.311-57.915V296.001z"/>
	</g>
</g>
<g>
	<g>
		<path d="M308.563,238.448c-5.553-0.073-10.085,4.449-10.085,10c0,5.523,4.477,10,10,10l0.26-0.001
			c5.522-0.046,9.916-4.56,9.87-10.083C318.562,242.87,314.048,238.448,308.563,238.448z"/>
	</g>
</g>
<g>
	<g>
		<path d="M308.654,203.306h-0.176c-5.523,0-10,4.477-10,10s4.477,10,10,10c0.014,0,0.116,0,0.13,0h0.046c5.523,0,10-4.477,10-10
			S314.177,203.306,308.654,203.306z"/>
	</g>
</g>
<g>
	<g>
		<path d="M308.654,168.164h-0.176c-5.523,0-10,4.477-10,10c0,5.523,4.477,10,10,10h0.176c5.523,0,10-4.477,10-10
			C318.654,172.641,314.177,168.164,308.654,168.164z"/>
	</g>
</g>
<g>
	<g>
		<path d="M357.266,409.391c-1.86-1.86-4.44-2.93-7.07-2.93c-2.63,0-5.21,1.07-7.07,2.93c-1.86,1.86-2.93,4.43-2.93,7.07
			c0,2.63,1.07,5.21,2.93,7.07c1.86,1.86,4.44,2.93,7.07,2.93s5.21-1.07,7.07-2.93c1.86-1.86,2.93-4.44,2.93-7.07
			C360.196,413.821,359.126,411.251,357.266,409.391z"/>
	</g>
</g>
<g>
	<g>
		<path d="M479.064,345.201c-14.737-15.722-39.202-17.175-55.696-3.31l-53.951,45.349c-4.228,3.553-4.774,9.861-1.22,14.089
			c3.553,4.227,9.861,4.775,14.089,1.22l53.951-45.349c8.363-7.03,20.766-6.291,28.236,1.678c3.892,4.152,5.855,9.568,5.527,15.25
			s-2.901,10.836-7.245,14.513l-108.17,91.543c-9.004,7.621-20.458,11.817-32.254,11.817H181.249l-51.283-18.065V362.001h73.356
			c9.889,0,19.465,2.899,27.694,8.385l66.898,44.599c2.986,1.991,4.978,5.034,5.607,8.567c0.629,3.533-0.19,7.076-2.305,9.975
			c-3.7,5.07-10.498,6.784-16.159,4.081l-57.233-27.338c-4.984-2.381-10.953-0.271-13.333,4.713
			c-2.38,4.983-0.27,10.953,4.713,13.333l57.233,27.338c4.565,2.181,9.418,3.227,14.219,3.227c10.288,0,20.326-4.808,26.716-13.565
			c5.36-7.344,7.434-16.319,5.84-25.27c-1.594-8.952-6.638-16.659-14.203-21.703l-66.899-44.599
			c-11.525-7.682-24.937-11.743-38.788-11.743h-73.457c-1.007-10.092-9.546-18-19.899-18h-68c-11.028,0-20,8.972-20,20v148
			c0,11.028,8.972,20,20,20h68c9.989,0,18.266-7.369,19.742-16.951l46.509,16.383c1.067,0.376,2.19,0.568,3.322,0.568h142.792
			c16.52,0,32.563-5.877,45.173-16.549l108.17-91.543c8.569-7.252,13.645-17.418,14.292-28.626
			C490.613,364.075,486.741,353.391,479.064,345.201z M109.966,492.001h-68v-148h24v74c0,5.523,4.477,10,10,10
			c5.523,0,10-4.477,10-10v-74h24l0.001,7.986c0,0.005,0,0.023,0,0.027l0.012,139.987
			C109.979,492.001,109.975,492.001,109.966,492.001z"/>
	</g>
</g>
<g>
	<g>
		<path d="M83.536,450.431c-1.86-1.86-4.44-2.93-7.07-2.93s-5.21,1.07-7.07,2.93c-1.86,1.86-2.93,4.44-2.93,7.07
			s1.07,5.21,2.93,7.07c1.86,1.86,4.44,2.93,7.07,2.93c2.63,0,5.21-1.07,7.07-2.93c1.86-1.86,2.93-4.44,2.93-7.07
			S85.396,452.291,83.536,450.431z"/>
	</g>
</g>
<g>
</g>
<g>
</g>
<g>
</g>
<g>
</g>
<g>
</g>
<g>
</g>
<g>
</g>
<g>
</g>
<g>
</g>
<g>
</g>
<g>
</g>
<g>
</g>
<g>
</g>
<g>
</g>
<g>
</g>
</svg>
