<?xml version="1.0" encoding="iso-8859-1"?>
<!-- Generator: Adobe Illustrator 19.0.0, SVG Export Plug-In . SVG Version: 6.00 Build 0)  -->
<svg version="1.1" id="Capa_1" xmlns="http://www.w3.org/2000/svg" xmlns:xlink="http://www.w3.org/1999/xlink" x="0px" y="0px"
	 viewBox="0 0 512 512" style="enable-background:new 0 0 512 512;" xml:space="preserve">
<g>
	<g>
		<path d="M512,373.003v-89.015c0-2.652-1.054-5.196-2.93-7.071l-86.072-86.057c-3.777-3.777-8.8-5.857-14.142-5.857H360V164.22
			c0-22.056-17.944-40-40-40H207.597c1.564-6.151,2.402-12.589,2.402-19.22c0-43.01-34.99-78-78-78c-43.01,0-78,34.99-78,78
			c0,6.868,0.901,13.528,2.576,19.877c-18.642,3.392-32.825,19.737-32.825,39.343v208.783c0,22.056,17.944,40,40,40h26.327
			C84.988,420.404,82,429.358,82,439c0,9.643,2.988,18.598,8.08,26H10c-5.522,0-10,4.478-10,10c0,5.522,4.478,10,10,10h179.728
			c5.522,0,10-4.478,10-10c0-5.522-4.478-10-10-10H165.92c5.091-7.402,8.08-16.357,8.08-26c0-9.642-2.988-18.596-8.077-25.997
			h188.155C348.988,420.404,346,429.358,346,439c0,9.643,2.988,18.597,8.079,25.999h-91.746c-5.522,0-10,4.478-10,10
			c0,5.522,4.478,10,10,10H502c5.522,0,10-4.478,10-10c0-5.522-4.478-10-10-10h-72.079C435.012,457.597,438,448.643,438,439
			c0-9.642-2.988-18.596-8.078-25.997H472C494.056,413.003,512,395.059,512,373.003z M131.999,47c31.981,0,58,26.019,58,58
			s-26.019,58-58,58c-31.981,0-58-26.019-58-58S100.018,47,131.999,47z M128,465c-14.337,0-26-11.663-26-26
			c0-14.298,11.601-25.934,25.885-25.997h0.231C142.399,413.066,154,424.702,154,439C154,453.337,142.337,465,128,465z M340,172h-82
			c-5.522,0-10,4.478-10,10c0,5.522,4.478,10,10,10h82v181.003c0,11.028-8.972,20-20,20H63.75c-11.028,0-20-8.972-20-20V373v-80
			h37.949l-10.612,10.612c-3.905,3.905-3.905,10.237,0,14.143c1.953,1.952,4.512,2.929,7.071,2.929c2.559,0,5.118-0.977,7.071-2.929
			l27.684-27.684c3.905-3.905,3.905-10.237,0-14.143l-27.684-27.684c-3.906-3.904-10.236-3.904-14.143,0
			c-3.905,3.905-3.905,10.237,0,14.143L81.699,273H43.75V164.22c0-11.028,8.972-20,20-20h0.869
			c13.539,23.17,38.663,38.78,67.38,38.78c28.717,0,53.841-15.61,67.38-38.78H320c11.028,0,20,8.972,20,20V172z M492,288.131V293
			h-35.857l20.362-20.362L492,288.131z M408.526,205.003h0.33l30.002,29.996l-13.93,13.93c-3.905,3.905-3.905,10.237,0,14.143
			C426.882,265.023,429.44,266,432,266s5.118-0.977,7.071-2.929l13.931-13.931l9.358,9.357l-34.471,34.471
			c-10.732-0.34-19.363-9.154-19.363-19.968V205.003z M392.039,464.999h-0.077C377.643,464.978,366,453.324,366,439
			c0-14.298,11.601-25.934,25.884-25.997h0.231C406.399,413.066,418,424.702,418,439C418,453.324,406.357,464.978,392.039,464.999z
			 M354.618,393.003c3.415-5.888,5.382-12.717,5.382-20v-168h28.526V273c0,22.056,17.944,40,40,40H492v60.003
			c0,11.028-8.972,20-20,20H354.618z"/>
	</g>
</g>
<g>
	<g>
		<path d="M228.386,465h-0.13c-5.522,0-10,4.478-10,10c0,5.522,4.478,10,10,10h0.13c5.522,0,10-4.478,10-10
			C238.386,469.478,233.908,465,228.386,465z"/>
	</g>
</g>
<g>
	<g>
		<path d="M173.331,302.312h-5.563c8.084-9.293,15.563-21.156,15.563-33.24c0-15.252-10.247-25.499-25.499-25.499
			c-14.061,0-25.499,11.438-25.499,25.499c0,5.522,4.478,10,10,10c5.522,0,10-4.478,10-10c0-3.032,2.467-5.499,5.499-5.499
			c4.623,0,5.499,1.933,5.499,5.499c0,11.563-18.144,28.701-26.922,35.184c-3.481,2.561-4.925,7.067-3.578,11.174
			c1.348,4.106,5.18,6.883,9.502,6.883h30.998c5.523-0.001,10-4.479,10-10.001C183.331,306.79,178.853,302.312,173.331,302.312z"/>
	</g>
</g>
<g>
	<g>
		<path d="M245.277,273.23v-19.658c0-5.522-4.478-10-10-10c-5.522,0-10,4.478-10,10v19.396H213.76v-19.396c0-5.522-4.478-10-10-10
			c-5.522,0-10,4.478-10,10v29.396c0,5.522,4.478,10,10,10h21.517v19.46c0,5.522,4.478,10,10,10c5.522,0,10-4.478,10-10v-19.722
			c4.439-1.021,7.754-4.989,7.754-9.738C253.031,278.219,249.717,274.251,245.277,273.23z"/>
	</g>
</g>
<g>
	<g>
		<path d="M290.388,273.138c-1.568,0-3.101,0.154-4.588,0.436v-20.001c0-5.522-4.478-10-10-10c-5.522,0-10,4.478-10,10v44.152v6.382
			v8.205c0,5.522,4.478,10,10,10c5.522,0,10-4.478,10-10v-8.205v-6.382c0-2.529,2.059-4.587,4.588-4.587
			c2.529,0,4.587,2.058,4.587,4.587v14.587c0,5.522,4.478,10,10,10c5.522,0,10-4.478,10-10v-14.587
			C314.975,284.167,303.945,273.138,290.388,273.138z"/>
	</g>
</g>
<g>
	<g>
		<path d="M153.666,96.333h-13V72.346c0-5.522-4.478-10-10-10c-5.522,0-10,4.478-10,10v33.987c0,5.522,4.478,10,10,10h23
			c5.522,0,10-4.478,10-10C163.666,100.811,159.188,96.333,153.666,96.333z"/>
	</g>
</g>
<g>
	<g>
		<path d="M225.069,174.93C223.21,173.07,220.63,172,218,172s-5.21,1.069-7.07,2.93c-1.86,1.861-2.93,4.44-2.93,7.07
			s1.069,5.21,2.93,7.069c1.86,1.861,4.44,2.931,7.07,2.931s5.21-1.07,7.069-2.931C226.93,187.21,228,184.63,228,182
			S226.93,176.79,225.069,174.93z"/>
	</g>
</g>
<g>
</g>
<g>
</g>
<g>
</g>
<g>
</g>
<g>
</g>
<g>
</g>
<g>
</g>
<g>
</g>
<g>
</g>
<g>
</g>
<g>
</g>
<g>
</g>
<g>
</g>
<g>
</g>
<g>
</g>
</svg>
