<?xml version="1.0" encoding="iso-8859-1"?>
<!-- Generator: Adobe Illustrator 19.0.0, SVG Export Plug-In . SVG Version: 6.00 Build 0)  -->
<svg version="1.1" id="Capa_1" xmlns="http://www.w3.org/2000/svg" xmlns:xlink="http://www.w3.org/1999/xlink" x="0px" y="0px"
	 viewBox="0 0 512 512" style="enable-background:new 0 0 512 512;" xml:space="preserve">
<g>
	<g>
		<path d="M481.941,0H30.059C13.521,0,0.067,13.454,0.067,29.992v353.893c0,5.521,4.477,9.997,9.997,9.997h94.002
			c5.521,0,9.997-4.477,9.997-9.997s-4.477-9.997-9.997-9.997H20.062v-252.92h319.916c5.521,0,9.997-4.477,9.997-9.997
			s-4.477-9.997-9.997-9.997H20.062V29.992c0-5.513,4.485-9.997,9.997-9.997h451.882c5.513,0,9.997,4.485,9.997,9.997v70.981
			h-68.982c-5.521,0-9.997,4.477-9.997,9.997s4.477,9.997,9.997,9.997h68.982v83.033c-0.394-1.001-0.946-1.957-1.679-2.819
			l-41.376-48.68c-1.898-2.234-4.685-3.522-7.617-3.522h-36.941c-5.521,0-9.997,4.477-9.997,9.997v8.979
			c0,10.118-8.232,18.35-18.35,18.35c-10.118,0-18.351-8.232-18.351-18.35v-8.979c0-5.521-4.477-9.997-9.997-9.997h-36.942
			c-2.933,0-5.719,1.288-7.618,3.522l-41.375,48.68c-3.372,3.969-3.134,9.861,0.549,13.544l7.977,7.977
			c-4.413-0.495-8.878-0.755-13.384-0.755c-31.512,0-61.135,12.271-83.416,34.553c-1.477,1.477-2.904,2.984-4.286,4.519
			c-0.368-0.041-0.741-0.067-1.121-0.067H64.05c-5.521,0-9.997,4.477-9.997,9.997s4.477,9.997,9.997,9.997h90.608
			c-6.527,11.317-11.027,23.492-13.49,35.994H64.05c-5.521,0-9.997,4.477-9.997,9.997s4.477,9.997,9.997,9.997h74.912
			c-0.704,28.069,8.531,56.337,27.691,79.027l-78.968,78.968c-3.904,3.904-3.904,10.234,0,14.139
			c1.952,1.952,4.511,2.928,7.069,2.928c2.558,0,5.117-0.977,7.069-2.928l78.965-78.965c21.25,17.979,47.893,27.783,76.048,27.783
			c31.511,0,61.135-12.271,83.416-34.553c8.88-8.88,16.038-18.838,21.489-29.453h140.193c5.521,0,9.997-4.477,9.997-9.997V29.992
			C511.933,13.454,498.479,0,481.941,0z M326.115,409.198c-18.505,18.505-43.108,28.696-69.278,28.696
			c-26.17,0-50.774-10.191-69.278-28.696c-38.201-38.2-38.201-100.357,0-138.557c18.504-18.505,43.108-28.697,69.278-28.697
			c20.008,0,39.097,5.963,55.249,17.04c0.084,0.062,0.173,0.119,0.259,0.178c4.878,3.368,9.49,7.198,13.77,11.479
			C364.316,308.841,364.316,370.998,326.115,409.198z M340.255,256.503c-3.872-3.872-7.971-7.435-12.259-10.69v-16.056
			c-0.001-4.045-2.437-7.691-6.172-9.239c-3.739-1.545-8.036-0.692-10.895,2.168l-6.224,6.224L282.9,207.107l32.411-38.133h22.335
			c0.542,20.675,17.528,37.327,38.332,37.327s37.79-16.653,38.332-37.327h22.334l32.411,38.133l-21.547,21.547l-5.317-5.711
			c-2.8-3.007-7.157-3.993-10.977-2.49c-3.823,1.505-6.337,5.195-6.337,9.304v87.187h-52.37
			C368.139,294.782,357.392,273.64,340.255,256.503z M491.939,373.888H369.787c3.593-12.021,5.237-24.506,4.925-36.951h60.162
			c5.521,0,9.997-4.477,9.997-9.997v-74.18c0.716,0.175,1.454,0.272,2.201,0.285c0.061,0.001,0.119,0.002,0.179,0.002
			c2.648,0,5.193-1.052,7.069-2.928l35.392-35.392c1-1.001,1.738-2.166,2.226-3.41V373.888z"/>
	</g>
</g>
<g>
	<g>
		<path d="M383.028,100.973h-0.133c-5.521,0-9.997,4.477-9.997,9.997s4.477,9.997,9.997,9.997h0.133
			c5.521,0,9.997-4.477,9.997-9.997S388.548,100.973,383.028,100.973z"/>
	</g>
</g>
<g>
	<g>
		<path d="M58.079,32.492c-15.435,0-27.993,12.558-27.993,27.993c0,15.435,12.558,27.993,27.993,27.993
			c15.435,0,27.993-12.558,27.993-27.993C86.072,45.049,73.514,32.492,58.079,32.492z M58.079,68.482
			c-4.41,0-7.998-3.588-7.998-7.998s3.588-7.998,7.998-7.998s7.998,3.588,7.998,7.998S62.489,68.482,58.079,68.482z"/>
	</g>
</g>
<g>
	<g>
		<path d="M122.062,32.492c-15.435,0-27.993,12.558-27.993,27.993c0,15.435,12.558,27.993,27.993,27.993
			c15.435,0,27.993-12.558,27.993-27.993C150.055,45.049,137.497,32.492,122.062,32.492z M122.062,68.482
			c-4.41,0-7.998-3.588-7.998-7.998s3.588-7.998,7.998-7.998s7.998,3.588,7.998,7.998S126.472,68.482,122.062,68.482z"/>
	</g>
</g>
<g>
	<g>
		<path d="M186.045,32.492c-15.435,0-27.993,12.558-27.993,27.993c0,15.435,12.558,27.993,27.993,27.993
			c15.435,0,27.993-12.558,27.993-27.993C214.038,45.049,201.48,32.492,186.045,32.492z M186.045,68.482
			c-4.41,0-7.998-3.588-7.998-7.998s3.588-7.998,7.998-7.998c4.41,0,7.998,3.588,7.998,7.998S190.455,68.482,186.045,68.482z"/>
	</g>
</g>
<g>
	<g>
		<path d="M283.174,293.268c-4.807-2.713-10.905-1.019-13.62,3.791l-42.842,75.887c-2.714,4.809-1.018,10.906,3.791,13.62
			c1.554,0.877,3.24,1.294,4.906,1.294c3.488,0,6.877-1.83,8.715-5.085l42.842-75.887
			C289.678,302.08,287.982,295.983,283.174,293.268z"/>
	</g>
</g>
<g>
	<g>
		<path d="M290.854,347.922c-14.333,0-25.993,11.66-25.993,25.993s11.66,25.993,25.993,25.993s25.993-11.66,25.993-25.993
			S305.187,347.922,290.854,347.922z M290.854,379.914c-3.308,0-5.998-2.69-5.998-5.998s2.69-5.998,5.998-5.998
			s5.998,2.69,5.998,5.998S294.162,379.914,290.854,379.914z"/>
	</g>
</g>
<g>
	<g>
		<path d="M222.823,279.927c-14.333,0-25.993,11.66-25.993,25.993s11.66,25.993,25.993,25.993s25.993-11.66,25.993-25.993
			S237.156,279.927,222.823,279.927z M222.823,311.918c-3.308,0-5.998-2.69-5.998-5.998c0-3.308,2.69-5.998,5.998-5.998
			s5.998,2.69,5.998,5.998C228.821,309.228,226.131,311.918,222.823,311.918z"/>
	</g>
</g>
<g>
	<g>
		<path d="M265.378,151.911c-1.859-1.86-4.439-2.93-7.068-2.93c-2.629,0-5.209,1.07-7.067,2.93c-1.87,1.858-2.93,4.438-2.93,7.067
			s1.061,5.209,2.93,7.068c1.859,1.859,4.429,2.929,7.067,2.929c2.628,0,5.208-1.07,7.068-2.929c1.859-1.86,2.929-4.439,2.929-7.068
			S267.238,153.77,265.378,151.911z"/>
	</g>
</g>
<g>
	<g>
		<path d="M219.33,148.98H64.123c-5.521,0-9.997,4.477-9.997,9.997s4.477,9.997,9.997,9.997H219.33c5.521,0,9.997-4.477,9.997-9.997
			S224.85,148.98,219.33,148.98z"/>
	</g>
</g>
<g>
	<g>
		<path d="M186.045,204.967H64.123c-5.521,0-9.997,4.477-9.997,9.997c0,5.521,4.477,9.997,9.997,9.997h121.922
			c5.521,0,9.997-4.477,9.997-9.997C196.043,209.444,191.566,204.967,186.045,204.967z"/>
	</g>
</g>
<g>
</g>
<g>
</g>
<g>
</g>
<g>
</g>
<g>
</g>
<g>
</g>
<g>
</g>
<g>
</g>
<g>
</g>
<g>
</g>
<g>
</g>
<g>
</g>
<g>
</g>
<g>
</g>
<g>
</g>
</svg>
