<?xml version="1.0" encoding="iso-8859-1"?>
<!-- Generator: Adobe Illustrator 19.0.0, SVG Export Plug-In . SVG Version: 6.00 Build 0)  -->
<svg version="1.1" id="Capa_1" xmlns="http://www.w3.org/2000/svg" xmlns:xlink="http://www.w3.org/1999/xlink" x="0px" y="0px"
	 viewBox="0 0 512 512" style="enable-background:new 0 0 512 512;" xml:space="preserve">
<g>
	<g>
		<path d="M512,180.559c0-16.853-13.711-30.563-30.564-30.563h-62.575L341.712,16.368c-9.026-15.633-29.091-21.011-44.723-11.984
			c-7.575,4.372-12.993,11.433-15.256,19.881c-2.264,8.447-1.102,17.271,3.271,24.844l58.247,100.888H301c-5.523,0-10,4.478-10,10
			c0,5.522,4.477,10,10,10h53.799l18.259,31.625c4.373,7.573,11.433,12.991,19.88,15.255c2.821,0.756,5.683,1.13,8.527,1.13
			c5.673,0,11.272-1.488,16.315-4.4c7.575-4.371,12.993-11.432,15.256-19.881c2.154-8.037,1.2-16.412-2.663-23.729h51.063
			c5.825,0,10.564,4.738,10.564,10.563v54.873c0,5.825-4.739,10.563-10.564,10.563H30.564c-5.825,0-10.564-4.738-10.564-10.563
			V180.56c0-5.825,4.739-10.563,10.564-10.563h51.063c-3.863,7.317-4.817,15.692-2.663,23.729c2.264,8.449,7.682,15.51,15.254,19.88
			c5.045,2.913,10.644,4.401,16.318,4.401c2.844,0,5.706-0.374,8.526-1.13c8.447-2.264,15.508-7.682,19.88-15.255l18.259-31.625
			l52.465-0.001c5.523,0,10-4.478,10-10c0-5.523-4.478-10-10-10l-40.918,0.001L226.995,49.11c4.374-7.574,5.536-16.397,3.272-24.845
			c-2.264-8.448-7.682-15.509-15.255-19.88c-15.635-9.028-35.698-3.649-44.724,11.983L93.139,149.995H30.564
			C13.711,149.995,0,163.706,0,180.559v54.873c0,0.875,0.046,1.738,0.118,2.594c-0.168,1.128-0.156,2.302,0.087,3.484l47.43,230.56
			c4.759,23.135,25.355,39.926,48.974,39.926H415.38c23.618,0,44.214-16.79,48.974-39.923l47.44-230.562
			c0.244-1.182,0.256-2.356,0.088-3.485c0.072-0.856,0.118-1.72,0.118-2.594V180.559z M413.718,188.549
			c-0.881,3.287-2.989,6.034-5.937,7.735c-2.947,1.701-6.38,2.154-9.667,1.273c-3.287-0.881-6.034-2.989-7.736-5.937L302.324,39.108
			c-1.701-2.946-2.153-6.38-1.272-9.667c0.88-3.287,2.989-6.034,5.937-7.735c2.001-1.155,4.188-1.704,6.349-1.704
			c4.406,0,8.698,2.285,11.055,6.367l88.053,152.513C414.146,181.828,414.599,185.262,413.718,188.549z M99.555,178.882
			l88.053-152.514c2.357-4.083,6.647-6.367,11.054-6.367c2.16,0,4.349,0.55,6.35,1.705c2.947,1.7,5.055,4.447,5.936,7.734
			c0.881,3.287,0.429,6.721-1.273,9.668l-88.054,152.513c-1.701,2.947-4.448,5.056-7.735,5.937c-3.285,0.881-6.72,0.43-9.669-1.274
			c-2.946-1.7-5.054-4.447-5.935-7.734C97.401,185.263,97.853,181.829,99.555,178.882z M444.765,468.041
			c-2.856,13.88-15.214,23.954-29.384,23.954H96.609c-14.171,0-26.529-10.074-29.384-23.955L25.576,265.582
			c1.625,0.268,3.289,0.414,4.988,0.414h450.872c1.698,0,3.363-0.146,4.987-0.413L444.765,468.041z"/>
	</g>
</g>
<g>
	<g>
		<path d="M263.07,152.925c-1.86-1.86-4.44-2.93-7.07-2.93s-5.21,1.069-7.07,2.93c-1.86,1.86-2.93,4.44-2.93,7.07
			s1.07,5.21,2.93,7.069c1.86,1.861,4.44,2.931,7.07,2.931s5.21-1.07,7.07-2.931c1.86-1.859,2.93-4.439,2.93-7.069
			S264.93,154.785,263.07,152.925z"/>
	</g>
</g>
<g>
	<g>
		<path d="M105.95,446.997l-14.644-146c-0.551-5.496-5.454-9.513-10.948-8.952c-5.495,0.552-9.503,5.453-8.952,10.948l14.644,146
			c0.517,5.156,4.864,9.003,9.938,9.003c0.334,0,0.671-0.017,1.01-0.051C102.493,457.393,106.501,452.492,105.95,446.997z"/>
	</g>
</g>
<g>
	<g>
		<path d="M176,291.995c-5.523,0-10,4.478-10,10v146c0,5.522,4.477,10,10,10s10-4.478,10-10v-146
			C186,296.473,181.523,291.995,176,291.995z"/>
	</g>
</g>
<g>
	<g>
		<path d="M256,291.995c-5.523,0-10,4.478-10,10v103c0,5.522,4.477,10,10,10s10-4.478,10-10v-103
			C266,296.473,261.523,291.995,256,291.995z"/>
	</g>
</g>
<g>
	<g>
		<path d="M263.07,440.925c-1.86-1.86-4.44-2.93-7.07-2.93s-5.21,1.069-7.07,2.93c-1.86,1.86-2.93,4.44-2.93,7.07
			s1.07,5.21,2.93,7.069c1.86,1.86,4.44,2.931,7.07,2.931s5.21-1.07,7.07-2.931c1.86-1.859,2.93-4.439,2.93-7.069
			S264.93,442.785,263.07,440.925z"/>
	</g>
</g>
<g>
	<g>
		<path d="M336,291.995c-5.523,0-10,4.478-10,10v146c0,5.522,4.477,10,10,10s10-4.478,10-10v-146
			C346,296.473,341.523,291.995,336,291.995z"/>
	</g>
</g>
<g>
	<g>
		<path d="M432.259,292.049c-5.493-0.564-10.411,3.416-10.983,8.909l-15.222,146c-0.573,5.493,3.416,10.41,8.909,10.983
			c0.353,0.036,0.702,0.055,1.049,0.055c5.057,0,9.398-3.823,9.934-8.964l15.222-146
			C441.741,297.539,437.752,292.622,432.259,292.049z"/>
	</g>
</g>
<g>
</g>
<g>
</g>
<g>
</g>
<g>
</g>
<g>
</g>
<g>
</g>
<g>
</g>
<g>
</g>
<g>
</g>
<g>
</g>
<g>
</g>
<g>
</g>
<g>
</g>
<g>
</g>
<g>
</g>
</svg>
