<?xml version="1.0" encoding="iso-8859-1"?>
<!-- Generator: Adobe Illustrator 19.0.0, SVG Export Plug-In . SVG Version: 6.00 Build 0)  -->
<svg version="1.1" id="Capa_1" xmlns="http://www.w3.org/2000/svg" xmlns:xlink="http://www.w3.org/1999/xlink" x="0px" y="0px"
	 viewBox="0 0 512 512" style="enable-background:new 0 0 512 512;" xml:space="preserve">
<g>
	<g>
		<path d="M86.84,420.648l-0.38-0.38c-3.908-3.903-10.242-3.9-14.144,0.009c-3.904,3.908-3.899,10.241,0.009,14.144l0.38,0.38
			c1.952,1.95,4.51,2.925,7.067,2.925c2.561,0,5.124-0.979,7.077-2.934C90.753,430.885,90.748,424.552,86.84,420.648z"/>
	</g>
</g>
<g>
	<g>
		<path d="M498.488,136.391L375.608,13.512c-17.986-17.985-47.255-17.985-65.241,0L141.176,182.703
			c-1.875,1.876-2.929,4.42-2.929,7.072v20.686c0,2.197-1.787,3.985-3.985,3.985h-20.686c-2.652,0-5.197,1.054-7.072,2.929
			l-92.991,92.991C4.799,319.08,0,330.665,0,342.987c0,12.323,4.799,23.908,13.512,32.621l32.599,32.599
			c3.906,3.905,10.239,3.905,14.144,0c3.906-3.906,3.906-10.239,0-14.145l-32.6-32.599c-4.934-4.935-7.652-11.496-7.652-18.476
			c0-6.979,2.718-13.54,7.653-18.476l90.061-90.062h16.544c13.227,0,23.988-10.762,23.988-23.988v-16.544l78.661-78.661
			l62.848,62.848H288.11c-25.338,0-45.952,20.613-45.952,45.951c0,9.012,2.618,17.42,7.118,24.521l-14.684,14.684
			c-3.906,3.906-3.907,10.239,0,14.145c1.953,1.952,4.513,2.929,7.072,2.929s5.12-0.977,7.072-2.929l14.648-14.648
			c7.145,4.581,15.627,7.25,24.726,7.25c25.338,0,45.952-20.613,45.952-45.951v-11.648l62.68,62.68l-78.662,78.661h-16.543
			c-13.227,0-23.988,10.762-23.988,23.988v16.543l-90.061,90.062c-10.188,10.19-26.764,10.19-36.953,0l-37.269-37.269
			c-3.906-3.905-10.239-3.905-14.144,0c-3.906,3.906-3.906,10.239,0,14.145l37.269,37.269c8.993,8.992,20.807,13.489,32.62,13.489
			c11.813,0,23.628-4.497,32.621-13.489l92.991-92.992c1.875-1.876,2.929-4.42,2.929-7.072v-20.686c0-2.197,1.787-3.985,3.985-3.985
			h20.686c2.652,0,5.197-1.054,7.072-2.929l169.191-169.191c8.713-8.713,13.512-20.298,13.512-32.62
			C512,156.689,507.201,145.104,498.488,136.391z M314.059,224.057c0,14.308-11.641,25.948-25.949,25.948
			s-25.949-11.641-25.949-25.948c0-14.307,11.641-25.948,25.949-25.948h25.949V224.057z M313.903,152.155v11.804l-62.848-62.848
			l73.456-73.455c8.964-8.964,22.873-10.038,33.024-3.228l-38.249,38.249c-3.906,3.906-3.906,10.239,0,14.145
			c1.953,1.952,4.513,2.929,7.072,2.929c2.559,0,5.12-0.977,7.072-2.929l38.6-38.6l43.8,43.8l-31.36,31.36
			c-7.122-4.538-15.564-7.179-24.616-7.179C334.517,106.204,313.903,126.817,313.903,152.155z M333.906,178.105v-25.949
			c0-14.308,11.641-25.948,25.949-25.948c14.308-0.001,25.948,11.64,25.948,25.948c0,14.309-11.641,25.949-25.948,25.949H333.906z
			 M484.344,187.488l-73.457,73.456l-62.835-62.835h11.804c25.338,0,45.951-20.614,45.951-45.952c0-9.058-2.645-17.506-7.189-24.631
			l31.358-31.357l54.368,54.368c4.935,4.936,7.653,11.497,7.653,18.477C491.997,175.991,489.278,182.552,484.344,187.488z"/>
	</g>
</g>
<g>
	<g>
		<path d="M191.527,253.581l-12.11-12.109c-3.906-3.905-10.239-3.905-14.144,0c-3.906,3.906-3.906,10.239,0,14.145l12.11,12.109
			c1.953,1.952,4.513,2.929,7.072,2.929c2.559,0,5.12-0.977,7.072-2.929C195.432,263.821,195.432,257.488,191.527,253.581z"/>
	</g>
</g>
<g>
	<g>
		<path d="M235.096,297.151l-15.656-15.658c-3.905-3.904-10.238-3.905-14.144,0c-3.906,3.906-3.907,10.238,0,14.145l15.657,15.658
			c1.953,1.952,4.513,2.929,7.072,2.929c2.559,0,5.119-0.977,7.072-2.929C239.001,307.391,239.002,301.059,235.096,297.151z"/>
	</g>
</g>
<g>
	<g>
		<path d="M273.743,335.797l-13.057-13.057c-3.906-3.905-10.239-3.905-14.145,0c-3.906,3.906-3.906,10.239,0,14.145l13.057,13.057
			c1.954,1.953,4.514,2.93,7.073,2.93s5.12-0.977,7.072-2.93C277.648,346.037,277.648,339.704,273.743,335.797z"/>
	</g>
</g>
<g>
	<g>
		<path d="M174.565,419.098l-29.333-105.385c-1.481-5.321-6.991-8.438-12.317-6.953c-5.321,1.48-8.434,6.995-6.953,12.317
			l29.333,105.385c1.231,4.425,5.251,7.322,9.63,7.322c0.887,0,1.79-0.119,2.687-0.369
			C172.933,429.935,176.046,424.42,174.565,419.098z"/>
	</g>
</g>
<g>
	<g>
		<path d="M223.847,342.66c-11.699-11.699-30.734-11.699-42.434,0c-11.698,11.699-11.698,30.735,0.001,42.434
			c5.85,5.85,13.533,8.773,21.216,8.773s15.367-2.924,21.216-8.773C235.546,373.395,235.546,354.359,223.847,342.66z
			 M209.704,370.948c-1.889,1.889-4.401,2.93-7.072,2.93s-5.183-1.041-7.072-2.93c-1.889-1.889-2.929-4.4-2.929-7.071
			c0-2.672,1.04-5.184,2.929-7.072c1.889-1.889,4.401-2.929,7.072-2.929s5.183,1.04,7.072,2.929c1.889,1.889,2.929,4.4,2.929,7.072
			C212.633,366.548,211.593,369.06,209.704,370.948z"/>
	</g>
</g>
<g>
	<g>
		<path d="M119.916,337.574c-11.699-11.698-30.734-11.698-42.433,0c-11.699,11.699-11.699,30.735,0,42.435
			c5.85,5.849,13.532,8.772,21.216,8.772c7.683,0,15.367-2.924,21.216-8.772C131.616,368.31,131.616,349.274,119.916,337.574z
			 M105.772,365.863c-3.9,3.899-10.246,3.899-14.144,0c-1.889-1.889-2.93-4.401-2.93-7.072s1.04-5.184,2.93-7.072
			c1.949-1.949,4.511-2.924,7.072-2.924s5.123,0.975,7.072,2.924c1.889,1.889,2.93,4.401,2.93,7.072
			S107.661,363.975,105.772,365.863z"/>
	</g>
</g>
<g>
	<g>
		<path d="M307.828,88.282c-1.86-1.859-4.441-2.93-7.071-2.93s-5.211,1.07-7.071,2.93c-1.86,1.86-2.93,4.441-2.93,7.071
			s1.07,5.211,2.93,7.071c1.86,1.859,4.441,2.93,7.071,2.93s5.211-1.07,7.071-2.93c1.86-1.86,2.93-4.441,2.93-7.071
			S309.689,90.143,307.828,88.282z"/>
	</g>
</g>
<g>
</g>
<g>
</g>
<g>
</g>
<g>
</g>
<g>
</g>
<g>
</g>
<g>
</g>
<g>
</g>
<g>
</g>
<g>
</g>
<g>
</g>
<g>
</g>
<g>
</g>
<g>
</g>
<g>
</g>
</svg>
