<?xml version="1.0" encoding="iso-8859-1"?>
<!-- Generator: Adobe Illustrator 19.0.0, SVG Export Plug-In . SVG Version: 6.00 Build 0)  -->
<svg version="1.1" id="Capa_1" xmlns="http://www.w3.org/2000/svg" xmlns:xlink="http://www.w3.org/1999/xlink" x="0px" y="0px"
	 viewBox="0 0 511.999 511.999" style="enable-background:new 0 0 511.999 511.999;" xml:space="preserve">
<g>
	<g>
		<path d="M509.071,274.448l-86.835-86.837c20.478-27.361,18.301-66.429-6.555-91.286c-13.205-13.204-30.76-20.476-49.434-20.476
			c-15.297,0-29.841,4.888-41.861,13.911L237.553,2.927c-2.314-2.313-5.614-3.345-8.833-2.772c-3.22,0.576-5.955,2.691-7.323,5.664
			L79.935,313.274l-55.332,55.332C8.738,384.471,0,405.565,0,428.001c0,22.437,8.738,43.531,24.602,59.395
			c15.865,15.864,36.959,24.603,59.395,24.603c22.436,0,43.53-8.738,59.395-24.603l36.932-36.932l58.606,58.606
			c1.875,1.875,4.419,2.929,7.071,2.929c2.652,0,5.196-1.054,7.071-2.929l36.525-36.525c3.905-3.905,3.905-10.237,0-14.143
			l-46.674-46.674l263.256-121.125c2.972-1.368,5.087-4.103,5.664-7.323C512.418,280.06,511.383,276.761,509.071,274.448z
			 M366.246,95.849c13.332,0,25.865,5.191,35.292,14.619c17.039,17.039,19.16,43.435,6.36,62.802l-69.169-69.169
			C346.822,98.732,356.313,95.849,366.246,95.849z M156.519,445.986l-36.963-36.962c-3.905-3.904-10.237-3.904-14.142,0
			c-3.905,3.905-3.905,10.237,0,14.143l36.962,36.962l-13.127,13.127C117.163,485.343,101.092,492,83.998,492
			s-33.166-6.657-45.253-18.745C26.657,461.167,20,445.096,20,428.001c0-17.094,6.657-33.165,18.745-45.253l49.525-49.525
			l90.506,90.506L156.519,445.986z M268.385,465.474l-22.383,22.383l-51.535-51.535l4.257-4.257l24.829-11.424L268.385,465.474z
			 M195.066,411.734l-94.8-94.8L211.422,75.345l45.701,45.701c1.953,1.952,4.512,2.929,7.071,2.929c2.559,0,5.119-0.977,7.071-2.929
			c3.905-3.905,3.906-10.237,0-14.143l-50.93-50.931l13.229-28.752l251.214,251.214L195.066,411.734z"/>
	</g>
</g>
<g>
	<g>
		<path d="M293.284,321.831l-37.753-135.639c-1.481-5.32-6.992-8.437-12.315-6.952c-5.32,1.48-8.433,6.994-6.952,12.315
			l37.753,135.639c1.231,4.424,5.25,7.321,9.628,7.321c0.887,0,1.79-0.119,2.687-0.369
			C291.652,332.665,294.765,327.151,293.284,321.831z"/>
	</g>
</g>
<g>
	<g>
		<path d="M357.451,224.712c-6.751-6.751-15.727-10.47-25.275-10.47c-9.548,0-18.524,3.719-25.276,10.47
			c-6.751,6.752-10.47,15.728-10.47,25.276c0,9.547,3.718,18.523,10.47,25.275c6.752,6.751,15.728,10.47,25.276,10.47
			c9.548,0,18.524-3.719,25.275-10.47c6.751-6.752,10.47-15.728,10.47-25.275C367.92,240.439,364.202,231.464,357.451,224.712z
			 M343.308,261.122c-2.974,2.975-6.928,4.612-11.134,4.612s-8.16-1.638-11.134-4.612c-6.139-6.141-6.139-16.129,0-22.268
			c2.974-2.975,6.928-4.612,11.134-4.612s8.16,1.638,11.134,4.612C349.448,244.993,349.448,254.982,343.308,261.122z"/>
	</g>
</g>
<g>
	<g>
		<path d="M223.684,218.166c-6.752-6.751-15.728-10.47-25.275-10.47s-18.524,3.719-25.276,10.47
			c-6.751,6.752-10.47,15.728-10.47,25.275c0,9.549,3.718,18.524,10.47,25.275c6.752,6.751,15.728,10.47,25.276,10.47
			c9.548,0,18.524-3.719,25.275-10.47c6.752-6.751,10.47-15.727,10.47-25.275S230.436,224.918,223.684,218.166z M209.541,254.575
			c-2.974,2.975-6.928,4.612-11.134,4.612s-8.16-1.638-11.135-4.612c-2.974-2.974-4.612-6.928-4.612-11.134s1.638-8.16,4.612-11.134
			c2.974-2.975,6.928-4.612,11.134-4.612s8.16,1.638,11.134,4.612c2.975,2.974,4.612,6.928,4.612,11.134
			S212.516,251.602,209.541,254.575z"/>
	</g>
</g>
<g>
	<g>
		<path d="M509.062,2.942c-3.905-3.904-10.237-3.904-14.143,0L440.922,56.94c-3.905,3.905-3.905,10.237,0,14.143
			c1.954,1.952,4.513,2.929,7.072,2.929s5.119-0.977,7.071-2.929l53.998-53.998C512.967,13.18,512.967,6.848,509.062,2.942z"/>
	</g>
</g>
<g>
	<g>
		<path d="M501.992,135.76h-42.999c-5.523,0-10,4.478-10,10c0,5.522,4.477,10,10,10h42.999c5.523,0,10-4.478,10-10
			C511.991,140.238,507.514,135.76,501.992,135.76z"/>
	</g>
</g>
<g>
	<g>
		<path d="M366.33,0.014c-5.523,0-10,4.478-10,10v42.999c0,5.522,4.477,10,10,10s10-4.478,10-10V10.014
			C376.33,4.492,371.853,0.014,366.33,0.014z"/>
	</g>
</g>
<g>
	<g>
		<path d="M93.085,382.562c-1.86-1.871-4.43-2.93-7.07-2.93c-2.63,0-5.21,1.06-7.07,2.93c-1.86,1.86-2.93,4.431-2.93,7.07
			c0,2.63,1.07,5.21,2.93,7.07c1.86,1.859,4.44,2.93,7.07,2.93s5.21-1.07,7.07-2.93s2.93-4.44,2.93-7.07
			C96.015,386.991,94.945,384.422,93.085,382.562z"/>
	</g>
</g>
<g>
	<g>
		<path d="M297.728,133.37c-1.86-1.859-4.44-2.93-7.07-2.93c-2.63,0-5.21,1.07-7.07,2.93c-1.86,1.87-2.93,4.44-2.93,7.07
			c0,2.63,1.07,5.21,2.93,7.07c1.86,1.859,4.44,2.93,7.07,2.93c2.63,0,5.21-1.07,7.07-2.93c1.86-1.86,2.93-4.44,2.93-7.07
			C300.658,137.81,299.588,135.23,297.728,133.37z"/>
	</g>
</g>
<g>
</g>
<g>
</g>
<g>
</g>
<g>
</g>
<g>
</g>
<g>
</g>
<g>
</g>
<g>
</g>
<g>
</g>
<g>
</g>
<g>
</g>
<g>
</g>
<g>
</g>
<g>
</g>
<g>
</g>
</svg>
