<?xml version="1.0" encoding="iso-8859-1"?>
<!-- Generator: Adobe Illustrator 19.0.0, SVG Export Plug-In . SVG Version: 6.00 Build 0)  -->
<svg version="1.1" id="Capa_1" xmlns="http://www.w3.org/2000/svg" xmlns:xlink="http://www.w3.org/1999/xlink" x="0px" y="0px"
	 viewBox="0 0 512 512" style="enable-background:new 0 0 512 512;" xml:space="preserve">
<g>
	<g>
		<path d="M392.64,248.93c-1.86-1.861-4.44-2.93-7.07-2.93s-5.21,1.069-7.07,2.93c-1.86,1.86-2.93,4.44-2.93,7.07
			s1.07,5.21,2.93,7.069c1.86,1.86,4.44,2.931,7.07,2.931s5.21-1.07,7.07-2.931c1.86-1.859,2.93-4.439,2.93-7.069
			S394.5,250.79,392.64,248.93z"/>
	</g>
</g>
<g>
	<g>
		<path d="M502,105.013h-66.381V102c0-56.243-45.757-102-102-102c-15.908,0-30.976,3.663-44.408,10.186
			C275.778,3.663,260.711,0,244.802,0c-56.243,0-102,45.757-102,102v3.013H63.987c-5.523,0-10,4.478-10,10v161.294
			c-3.622,0.913-6.518,3.805-7.333,7.591l-46.431,216c-0.635,2.953,0.1,6.036,1.998,8.386S6.979,512,10,512h415.619
			c2.831,0,5.383-1.182,7.202-3.073l30.982-30.983l31.113,31.113c1.875,1.875,4.432,2.929,7.084,2.929c5.523,0,10-4.478,10-10
			V115.013C512,109.49,507.523,105.013,502,105.013z M289.211,33.121c22.595,14.618,37.592,40.023,37.592,68.879v3.013h-75.184V102
			C251.619,73.143,266.615,47.739,289.211,33.121z M244.802,20c8.253,0,16.221,1.238,23.74,3.517
			C245.999,42.242,231.619,70.472,231.619,102v3.013h-68.816V102h-0.001C162.802,56.785,199.587,20,244.802,20z M63.987,492H22.378
			l42.131-196h35.007v5c0,5.522,4.477,10,10,10s10-4.478,10-10v-5h105.982v5c0,5.522,4.477,10,10,10c5.523,0,10-4.478,10-10v-5
			h35.007l42.131,196H63.987z M119.517,276v-12.047c0-29.22,23.772-52.991,52.991-52.991s52.991,23.771,52.991,52.991V276H119.517z
			 M343.095,492l-44.733-208.102c-0.991-4.607-5.064-7.898-9.777-7.898h-43.086v-12.047c0-40.247-32.744-72.991-72.991-72.991
			c-40.247,0-72.991,32.744-72.991,72.991V276h-25.53V125.013h68.816v16.189c0,5.522,4.477,10,10,10s10-4.478,10-10v-16.189h164
			v16.189c0,5.522,4.477,10,10,10s10-4.478,10-10v-16.189h28.77v93.556c0,5.522,4.477,10,10,10s10-4.478,10-10v-93.556h20.046V492
			H343.095z M415.619,105.013h-68.816V102c0-31.528-14.38-59.758-36.924-78.483c7.519-2.279,15.486-3.517,23.74-3.517
			c45.215,0,82,36.785,82,82V105.013z M492,477.858l-18.371-18.371c0.109-0.59,0.173-1.196,0.173-1.818V347.762
			c0-5.522-4.477-10-10-10s-10,4.478-10,10V457.67c0,0.622,0.064,1.228,0.173,1.818l-18.357,18.356V125.013H492V477.858z"/>
	</g>
</g>
<g>
	<g>
		<path d="M200.574,341.784c-4.809-2.714-10.909-1.018-13.624,3.792l-58.942,104.409c-2.715,4.81-1.018,10.909,3.792,13.624
			c1.554,0.877,3.241,1.294,4.907,1.294c3.49,0,6.879-1.83,8.717-5.086l58.942-104.409
			C207.082,350.599,205.384,344.499,200.574,341.784z"/>
	</g>
</g>
<g>
	<g>
		<path d="M212.887,411.32c-16.542,0-30,13.458-30,30s13.458,30,30,30s30-13.458,30-30S229.429,411.32,212.887,411.32z
			 M212.887,451.32c-5.514,0-10-4.486-10-10c0-5.514,4.486-10,10-10c5.514,0,10,4.486,10,10
			C222.887,446.834,218.402,451.32,212.887,451.32z"/>
	</g>
</g>
<g>
	<g>
		<path d="M132.279,322.83c-16.542,0-30,13.458-30,30s13.458,30,30,30c16.542,0,30-13.458,30-30
			C162.279,336.288,148.821,322.83,132.279,322.83z M132.279,362.83c-5.514,0-10-4.486-10-10c0-5.514,4.486-10,10-10
			c5.514,0,10,4.486,10,10C142.279,358.344,137.793,362.83,132.279,362.83z"/>
	</g>
</g>
<g>
	<g>
		<path d="M470.87,303.261c-1.86-1.86-4.44-2.93-7.07-2.93s-5.21,1.069-7.07,2.93c-1.86,1.86-2.93,4.44-2.93,7.07
			s1.07,5.209,2.93,7.069c1.86,1.86,4.44,2.931,7.07,2.931s5.21-1.07,7.07-2.931c1.87-1.859,2.93-4.439,2.93-7.069
			S472.74,305.121,470.87,303.261z"/>
	</g>
</g>
<g>
</g>
<g>
</g>
<g>
</g>
<g>
</g>
<g>
</g>
<g>
</g>
<g>
</g>
<g>
</g>
<g>
</g>
<g>
</g>
<g>
</g>
<g>
</g>
<g>
</g>
<g>
</g>
<g>
</g>
</svg>
