<?xml version="1.0" encoding="iso-8859-1"?>
<!-- Generator: Adobe Illustrator 19.0.0, SVG Export Plug-In . SVG Version: 6.00 Build 0)  -->
<svg version="1.1" id="Capa_1" xmlns="http://www.w3.org/2000/svg" xmlns:xlink="http://www.w3.org/1999/xlink" x="0px" y="0px"
	 viewBox="0 0 512 512" style="enable-background:new 0 0 512 512;" xml:space="preserve">
<g>
	<g>
		<path d="M356.001,142.001c-18.748,0-34,15.252-34,34c0,13.256,7.63,24.756,18.725,30.361
			c-12.484,34.732-45.749,59.639-84.725,59.639s-72.241-24.907-84.725-59.639c11.095-5.605,18.725-17.105,18.725-30.361
			c0-18.748-15.252-34-34-34s-34,15.252-34,34c0,17.144,12.757,31.357,29.276,33.665c14.254,44.238,55.808,76.335,104.724,76.335
			s90.47-32.098,104.724-76.335c16.519-2.308,29.276-16.521,29.276-33.665C390.001,157.253,374.749,142.001,356.001,142.001z
			 M166.475,185.259c-0.313-3.044-0.474-6.133-0.474-9.258c0-5.523-4.478-10-10-10c-5.522,0-10,4.477-10,10
			c0,3.452,0.168,6.865,0.48,10.236c-2.748-2.558-4.48-6.194-4.48-10.236c0-7.72,6.28-14,14-14c7.72,0,14,6.28,14,14
			C170.001,179.552,168.661,182.789,166.475,185.259z M365.521,186.237c0.313-3.372,0.48-6.784,0.48-10.236c0-5.523-4.478-10-10-10
			c-5.522,0-10,4.477-10,10c0,3.125-0.161,6.214-0.474,9.258c-2.186-2.47-3.526-5.707-3.526-9.258c0-7.72,6.28-14,14-14
			c7.72,0,14,6.28,14,14C370.001,180.043,368.269,183.679,365.521,186.237z"/>
	</g>
</g>
<g>
	<g>
		<path d="M482.59,108.511c-0.131-0.164-0.298-0.35-0.518-0.57l-16.084-16.084V10c0-5.523-4.478-10-10-10h-400
			c-5.522,0-10,4.477-10,10v81.882l-16.059,16.059c-1.81,1.81-2.929,4.309-2.929,7.071V502c0,5.522,4.478,10,10,10h438
			c5.522,0,10-4.478,10-10V115.012C485.001,112.528,484.09,110.26,482.59,108.511z M65.988,34.142l18.87,18.87l-18.87,18.87V34.142z
			 M102.156,64H208.91c5.522,0,10-4.477,10-10s-4.478-10-10-10H104.131l-24-24h351.74L405.93,45.941
			c-1.875,1.875-2.929,4.419-2.929,7.071c0,2.652,1.054,5.196,2.929,7.071l44.929,44.929H61.144L102.156,64z M445.989,34.168v37.689
			l-18.845-18.845L445.989,34.168z M465.001,492h-418v-20h103.245c5.522,0,10-4.478,10-10c0-5.522-4.478-10-10-10H47.001V125.012
			h418V492z"/>
	</g>
</g>
<g>
	<g>
		<path d="M144.594,364.018c-7.853,0-14.24-5.383-14.24-12s6.388-12,14.24-12s14.241,5.383,14.241,12c0,5.522,4.478,10,10,10
			c5.522,0,10-4.478,10-10c0-17.645-15.36-32-34.241-32c-18.88,0-34.24,14.355-34.24,32c0,17.645,15.36,32,34.24,32
			c7.853,0,14.241,5.383,14.241,12s-6.389,12-14.241,12s-14.24-5.383-14.24-12c0-5.522-4.478-10-10-10c-5.522,0-10,4.478-10,10
			c0,17.645,15.36,32,34.24,32c18.881,0,34.241-14.355,34.241-32C178.835,378.373,163.475,364.018,144.594,364.018z"/>
	</g>
</g>
<g>
	<g>
		<path d="M322.814,408.018H304.47c-0.77,0-1.396-0.626-1.396-1.396v-76.604c0-5.522-4.478-10-10-10c-5.522,0-10,4.478-10,10v76.604
			c0,11.798,9.599,21.396,21.396,21.396h18.344c5.522,0,10-4.478,10-10C332.814,412.496,328.336,408.018,322.814,408.018z"/>
	</g>
</g>
<g>
	<g>
		<path d="M391.648,408.017h-23.623c-0.771,0-1.397-0.626-1.397-1.396v-22.604h13.907c5.522,0,10-4.478,10-10
			c0-5.522-4.478-10-10-10h-13.907v-22.604c0-0.769,0.627-1.395,1.397-1.395h23.623c5.522,0,10-4.478,10-10c0-5.522-4.478-10-10-10
			h-23.623c-11.799,0-21.397,9.599-21.397,21.396v65.207c0,11.798,9.599,21.396,21.397,21.396h23.623c5.522,0,10-4.478,10-10
			C401.648,412.495,397.17,408.017,391.648,408.017z"/>
	</g>
</g>
<g>
	<g>
		<path d="M271.882,414.505l-33.001-87.999c-1.464-3.902-5.195-6.488-9.363-6.488c-4.168,0-7.899,2.586-9.363,6.488l-33,88
			c-1.939,5.172,0.681,10.936,5.852,12.875c5.175,1.938,10.936-0.682,12.875-5.852l3.238-8.636c0.946,0.297,1.952,0.457,2.995,0.457
			h37.973l3.067,8.179c1.506,4.015,5.315,6.491,9.365,6.491c1.166,0,2.353-0.206,3.51-0.64
			C271.201,425.441,273.821,419.677,271.882,414.505z M216.448,393.351l13.07-34.853l13.07,34.853H216.448z"/>
	</g>
</g>
<g>
	<g>
		<path d="M194.751,454.93c-1.87-1.861-4.44-2.93-7.07-2.93c-2.64,0-5.21,1.069-7.07,2.93c-1.869,1.86-2.93,4.44-2.93,7.07
			s1.061,5.21,2.93,7.069c1.86,1.86,4.44,2.931,7.07,2.931s5.2-1.07,7.07-2.931c1.859-1.859,2.93-4.439,2.93-7.069
			S196.611,456.79,194.751,454.93z"/>
	</g>
</g>
<g>
	<g>
		<path d="M253.411,46.93c-1.86-1.86-4.44-2.93-7.07-2.93s-5.21,1.07-7.07,2.93c-1.859,1.86-2.93,4.44-2.93,7.07
			s1.07,5.21,2.93,7.07s4.44,2.93,7.07,2.93s5.21-1.07,7.07-2.93c1.859-1.86,2.93-4.44,2.93-7.07S255.271,48.79,253.411,46.93z"/>
	</g>
</g>
<g>
</g>
<g>
</g>
<g>
</g>
<g>
</g>
<g>
</g>
<g>
</g>
<g>
</g>
<g>
</g>
<g>
</g>
<g>
</g>
<g>
</g>
<g>
</g>
<g>
</g>
<g>
</g>
<g>
</g>
</svg>
