<?xml version="1.0" encoding="iso-8859-1"?>
<!-- Generator: Adobe Illustrator 19.0.0, SVG Export Plug-In . SVG Version: 6.00 Build 0)  -->
<svg version="1.1" id="Capa_1" xmlns="http://www.w3.org/2000/svg" xmlns:xlink="http://www.w3.org/1999/xlink" x="0px" y="0px"
	 viewBox="0 0 512 512" style="enable-background:new 0 0 512 512;" xml:space="preserve">
<g>
	<g>
		<path d="M313.31,494.93c-1.86-1.86-4.44-2.93-7.07-2.93c-2.64,0-5.21,1.07-7.07,2.93c-1.86,1.86-2.93,4.44-2.93,7.07
			s1.07,5.21,2.93,7.07c1.86,1.86,4.44,2.93,7.07,2.93s5.21-1.07,7.07-2.93s2.93-4.44,2.93-7.07S315.17,496.79,313.31,494.93z"/>
	</g>
</g>
<g>
	<g>
		<path d="M156.264,146.264c-65.065,0-118,52.935-118,118s52.935,118,118,118s118-52.935,118-118S221.329,146.264,156.264,146.264z
			 M156.264,362.264c-54.038,0-98-43.963-98-98c0-54.038,43.962-98,98-98c54.038,0,98,43.962,98,98
			C254.264,318.302,210.302,362.264,156.264,362.264z"/>
	</g>
</g>
<g>
	<g>
		<path d="M182.298,213.13c-4.809-2.716-10.909-1.018-13.624,3.792l-53.769,95.245c-2.715,4.81-1.018,10.909,3.792,13.624
			c1.554,0.877,3.241,1.294,4.907,1.294c3.49,0,6.879-1.83,8.717-5.086l53.769-95.245
			C188.806,221.945,187.108,215.845,182.298,213.13z"/>
	</g>
</g>
<g>
	<g>
		<path d="M191.206,272.801c-16.542,0-30,13.458-30,30s13.458,30,30,30s30-13.458,30-30S207.748,272.801,191.206,272.801z
			 M191.206,312.801c-5.514,0-10-4.486-10-10c0-5.514,4.485-10,10-10c5.514,0,10,4.486,10,10
			C201.206,308.315,196.72,312.801,191.206,312.801z"/>
	</g>
</g>
<g>
	<g>
		<path d="M121.322,195.727c-16.542,0-30,13.458-30,30s13.458,30,30,30s30-13.458,30-30S137.864,195.727,121.322,195.727z
			 M121.322,235.727c-5.514,0-10-4.486-10-10s4.486-10,10-10c5.514,0,10,4.486,10,10S126.836,235.727,121.322,235.727z"/>
	</g>
</g>
<g>
	<g>
		<path d="M111.763,428.705l-0.17-0.217c-3.403-4.351-9.687-5.119-14.038-1.717c-4.351,3.402-5.119,9.687-1.717,14.038l0.171,0.217
			c1.973,2.522,4.913,3.84,7.884,3.84c2.154,0,4.325-0.693,6.153-2.123C114.397,439.341,115.165,433.056,111.763,428.705z"/>
	</g>
</g>
<g>
	<g>
		<path d="M471.185,0h-254.37C194.31,0,176,18.31,176,40.815v68.427c-6.465-0.818-13.052-1.242-19.736-1.242
			C70.1,108,0,178.1,0,264.264c0,35.724,12.363,70.628,34.825,98.336c0.038,0.051,0.077,0.101,0.116,0.151l31.685,40.612
			c3.397,4.354,9.681,5.13,14.036,1.733c4.354-3.397,5.13-9.681,1.733-14.036l-31.438-40.296c-0.118-0.164-0.241-0.325-0.37-0.482
			C30.862,326.082,20,295.533,20,264.264C20,189.127,81.127,128,156.264,128s136.264,61.127,136.264,136.264
			c0,31.606-11.066,62.407-31.16,86.728c-0.306,0.371-0.582,0.759-0.826,1.162L156.266,485.746l-17.279-22.147
			c-3.396-4.354-9.68-5.13-14.036-1.733c-4.354,3.397-5.13,9.681-1.733,14.036L135.778,492H10c-5.523,0-10,4.477-10,10
			s4.477,10,10,10h254.25c5.523,0,10-4.477,10-10s-4.477-10-10-10h-87.496l100.29-128.486c0.188-0.24,0.363-0.487,0.525-0.741
			c22.551-27.745,34.957-62.678,34.957-98.51c0-19.826-3.72-38.797-10.484-56.264h47.802l-0.005,20.581
			c-0.001,4.046,2.436,7.694,6.174,9.242c1.237,0.513,2.536,0.762,3.824,0.762c2.604,0,5.163-1.018,7.076-2.932L394.545,208h76.64
			C493.69,208,512,189.69,512,167.185V40.815C512,18.31,493.69,0,471.185,0z M492,167.185c0,11.478-9.337,20.815-20.815,20.815
			H390.4c-2.653,0-5.198,1.055-7.074,2.932l-13.48,13.49l0.002-6.419c0.001-2.653-1.053-5.197-2.928-7.073s-4.419-2.93-7.072-2.93
			h-67.239c-8.972-15.977-20.664-30.229-34.455-42.116c15.219-1.258,27.197-13.28,27.197-27.884c0-15.439-13.383-28-29.833-28
			c-5.422,0-9.833-3.589-9.833-8s4.411-8,9.833-8c5.422,0,9.833,3.589,9.833,8c0,5.523,4.477,10,10,10s10-4.477,10-10
			c0-15.439-13.383-28-29.833-28s-29.833,12.561-29.833,28c0,15.439,13.383,28,29.833,28c5.422,0,9.833,3.589,9.833,8
			s-4.411,8-9.833,8s-9.833-3.589-9.833-8c0-5.523-4.477-10-10-10c-5.523,0-10,4.477-10,10c0,2.321,0.308,4.575,0.877,6.732
			c-9.658-4.886-19.888-8.798-30.562-11.606V40.815C196,29.337,205.337,20,216.815,20h254.37C482.663,20,492,29.337,492,40.815
			V167.185z"/>
	</g>
</g>
<g>
	<g>
		<path d="M401.333,126H387V64c0-5.523-4.477-10-10-10s-10,4.477-10,10v62.675c0,10.656,8.669,19.325,19.325,19.325h15.009
			c5.523,0,10-4.477,10-10S406.856,126,401.333,126z"/>
	</g>
</g>
<g>
	<g>
		<path d="M457.653,126.001H439v-16h9.56c5.523,0,10-4.477,10-10s-4.477-10-10-10H439V74h18.653c5.523,0,10-4.477,10-10
			s-4.477-10-10-10h-19.328C427.669,54,419,62.669,419,73.325v53.351c0,10.656,8.669,19.325,19.325,19.325h19.328
			c5.523,0,10-4.477,10-10S463.176,126.001,457.653,126.001z"/>
	</g>
</g>
<g>
	<g>
		<path d="M361.365,132.488l-27.002-71.999C332.9,56.586,329.168,54,325,54c-4.168,0-7.9,2.586-9.363,6.489l-27,72
			c-1.939,5.171,0.681,10.936,5.852,12.875c5.172,1.939,10.936-0.681,12.875-5.852l2.102-5.605c0.425,0.055,0.856,0.093,1.296,0.093
			h29.809l2.067,5.511c1.505,4.015,5.316,6.492,9.365,6.492c1.167,0,2.354-0.206,3.51-0.64
			C360.684,143.424,363.305,137.66,361.365,132.488z M316.93,114L325,92.48l8.07,21.52H316.93z"/>
	</g>
</g>
<g>
</g>
<g>
</g>
<g>
</g>
<g>
</g>
<g>
</g>
<g>
</g>
<g>
</g>
<g>
</g>
<g>
</g>
<g>
</g>
<g>
</g>
<g>
</g>
<g>
</g>
<g>
</g>
<g>
</g>
</svg>
