<?xml version="1.0" encoding="iso-8859-1"?>
<!-- Generator: Adobe Illustrator 19.0.0, SVG Export Plug-In . SVG Version: 6.00 Build 0)  -->
<svg version="1.1" id="Capa_1" xmlns="http://www.w3.org/2000/svg" xmlns:xlink="http://www.w3.org/1999/xlink" x="0px" y="0px"
	 viewBox="0 0 512 512" style="enable-background:new 0 0 512 512;" xml:space="preserve">
<g>
	<g>
		<path d="M379.765,465h-0.152c-5.522,0-10,4.478-10,10c0,5.522,4.478,10,10,10h0.152c5.522,0,10-4.478,10-10
			C389.765,469.478,385.287,465,379.765,465z"/>
	</g>
</g>
<g>
	<g>
		<path d="M502,185H394.143L286.042,76.899C288.564,72.151,290,66.741,290,61c0-18.748-15.252-34-34-34s-34,15.252-34,34
			c0,5.741,1.436,11.151,3.959,15.899L117.857,185H10c-5.522,0-10,4.477-10,10v280c0,5.522,4.478,10,10,10h329.553
			c5.522,0,10-4.478,10-10c0-5.522-4.478-10-10-10H20V205h369.98c0.007,0,0.014,0.001,0.021,0.001c0.007,0,0.014-0.001,0.021-0.001
			H492v260h-72.183c-5.522,0-10,4.478-10,10c0,5.522,4.478,10,10,10H502c5.522,0,10-4.478,10-10V195
			C512,189.477,507.522,185,502,185z M256,47c7.72,0,14,6.28,14,14c0,7.72-6.28,14-14,14c-7.72,0-14-6.28-14-14
			C242,53.28,248.28,47,256,47z M146.142,185l93.959-93.959C244.849,93.564,250.259,95,256,95c5.741,0,11.151-1.436,15.899-3.959
			L365.858,185H146.142z"/>
	</g>
</g>
<g>
	<g>
		<path d="M462.001,264.998c-16.542,0-30-13.458-30-30c0-5.523-4.478-10-10-10H299.333c-5.522,0-10,4.477-10,10s4.478,10,10,10
			h113.673c3.987,19.561,19.434,35.007,38.995,38.995v102.012c-19.562,3.987-35.008,19.434-38.995,38.995H98.994
			c-3.987-19.562-19.434-35.008-38.995-38.995V283.993c19.562-3.987,35.008-19.434,38.995-38.995H210.5c5.522,0,10-4.477,10-10
			c0-5.523-4.478-9.999-10-9.999H89.999c-5.522,0-10,4.477-10,10c0,16.542-13.458,30-30,30c-5.522,0-10,4.478-10,10V395
			c0,5.522,4.478,10,10,10c16.542,0,30,13.458,30,30c0,5.522,4.478,10,10,10h332.002c5.522,0,10-4.478,10-10
			c0-16.542,13.458-30,30-30c5.522,0,10-4.478,10-10V274.998C472.001,269.476,467.523,264.998,462.001,264.998z"/>
	</g>
</g>
<g>
	<g>
		<path d="M263.069,227.93C261.21,226.06,258.63,225,256,225s-5.21,1.07-7.07,2.93S246,232.37,246,235s1.069,5.21,2.93,7.07
			c1.861,1.86,4.44,2.93,7.07,2.93s5.21-1.07,7.069-2.93c1.86-1.86,2.931-4.44,2.931-7.07S264.93,229.79,263.069,227.93z"/>
	</g>
</g>
<g>
	<g>
		<path d="M145.972,285c-18.991-0.001-34.441,15.449-34.441,34.441v31.118c0,18.99,15.45,34.44,34.441,34.44
			c18.99,0,34.44-15.45,34.44-34.44v-31.118C180.412,300.45,164.962,285,145.972,285z M160.413,350.559
			c0,7.963-6.478,14.44-14.44,14.44c-7.962,0-14.441-6.478-14.441-14.44v-31.118c0-7.963,6.479-14.441,14.441-14.441
			c7.962,0,14.44,6.478,14.44,14.441V350.559z"/>
	</g>
</g>
<g>
	<g>
		<path d="M232.211,284.999h-27.46c-5.522,0-10,4.478-10,10v80c0,5.522,4.478,10,10,10c5.522,0,10-4.478,10-10v-30h17.46
			c15.44,0,28.003-12.562,28.003-28.002v-3.995C260.214,297.562,247.651,284.999,232.211,284.999z M240.214,316.997
			c0,4.412-3.59,8.002-8.003,8.002h-17.46v-20h17.46c4.413,0,8.003,3.59,8.003,8.003V316.997z"/>
	</g>
</g>
<g>
	<g>
		<path d="M312.368,364.993h-21.473c-0.198,0-0.359-0.161-0.359-0.359v-19.635h11.729c5.522,0,10-4.478,10-10
			c0-5.522-4.478-10-10-10h-11.729v-19.634c-0.001-0.198,0.16-0.359,0.359-0.359h21.473c5.522,0,10-4.478,10-10
			c0-5.522-4.478-10-10-10h-21.473c-11.227,0-20.359,9.133-20.359,20.359v59.269c0,11.227,9.133,20.359,20.359,20.359h21.473
			c5.522,0,10-4.478,10-10C322.368,369.471,317.89,364.993,312.368,364.993z"/>
	</g>
</g>
<g>
	<g>
		<path d="M390.469,284.999c-5.522,0-10,4.478-10,10V337.3l-26.968-47.257c-2.249-3.94-6.867-5.87-11.249-4.71
			c-4.384,1.163-7.437,5.131-7.437,9.666v80c0,5.522,4.478,10,10,10c5.522,0,10-4.477,10-10v-42.301l26.968,47.257
			c1.812,3.174,5.159,5.045,8.685,5.045c0.852,0,1.713-0.109,2.564-0.335c4.384-1.163,7.437-5.131,7.437-9.666v-80
			C400.469,289.477,395.991,284.999,390.469,284.999z"/>
	</g>
</g>
<g>
</g>
<g>
</g>
<g>
</g>
<g>
</g>
<g>
</g>
<g>
</g>
<g>
</g>
<g>
</g>
<g>
</g>
<g>
</g>
<g>
</g>
<g>
</g>
<g>
</g>
<g>
</g>
<g>
</g>
</svg>
