<?xml version="1.0" encoding="iso-8859-1"?>
<!-- Generator: Adobe Illustrator 19.0.0, SVG Export Plug-In . SVG Version: 6.00 Build 0)  -->
<svg version="1.1" id="Capa_1" xmlns="http://www.w3.org/2000/svg" xmlns:xlink="http://www.w3.org/1999/xlink" x="0px" y="0px"
	 viewBox="0 0 512.001 512.001" style="enable-background:new 0 0 512.001 512.001;" xml:space="preserve">
<g>
	<g>
		<path d="M298.77,450.931c-1.869-1.86-4.439-2.93-7.069-2.93c-2.641,0-5.21,1.069-7.08,2.93c-1.86,1.86-2.92,4.44-2.92,7.07
			s1.06,5.21,2.92,7.069c1.87,1.86,4.439,2.931,7.08,2.931c2.63,0,5.199-1.07,7.069-2.931c1.86-1.859,2.931-4.439,2.931-7.069
			S300.631,452.791,298.77,450.931z"/>
	</g>
</g>
<g>
	<g>
		<path d="M111.07,400.931c-1.859-1.86-4.439-2.93-7.069-2.93s-5.21,1.069-7.07,2.93c-1.86,1.861-2.93,4.44-2.93,7.07
			s1.069,5.21,2.93,7.069c1.86,1.861,4.44,2.931,7.07,2.931s5.21-1.07,7.069-2.931c1.861-1.859,2.931-4.439,2.931-7.069
			S112.931,402.791,111.07,400.931z"/>
	</g>
</g>
<g>
	<g>
		<path d="M509.073,222.534l-94-94c-0.001,0.001-0.003,0.002-0.004,0.003c-1.034-1.034-2.299-1.854-3.74-2.362l-76.754-27.084
			c-0.79-0.279-1.603-0.446-2.419-0.521c0.004-0.017,0.008-0.032,0.012-0.049h-66.167v-10.8
			c19.698-4.548,34.428-22.233,34.428-43.293c0-24.497-19.931-44.427-44.428-44.427s-44.428,19.93-44.428,44.427
			c0,5.523,4.478,10,10,10c5.522,0,10-4.477,10-10c0.001-13.469,10.959-24.427,24.428-24.427c13.469,0,24.428,10.958,24.428,24.427
			c0,13.47-10.958,24.428-24.428,24.428c-5.522,0-10,4.477-10,10v19.665h-65.947c0,0.001-0.001,0.001-0.001,0.002
			c-1.129,0-2.264,0.189-3.354,0.577l-76.053,27.084c-1.43,0.509-2.686,1.326-3.713,2.354c-0.001-0.001-0.002-0.003-0.004-0.004
			l-94,94c-3.905,3.905-3.905,10.237,0,14.142l91.072,91.072v33.253c0,5.522,4.478,10,10,10c5.522,0,10-4.478,10-10v-37.39
			c0-0.003,0-0.007,0-0.01V142.659l57.986-20.65c3.782,16.627,12.461,31.8,25.132,43.628c15.933,14.874,36.717,23.065,58.525,23.065
			c21.839,0,42.639-8.183,58.569-23.041c12.688-11.834,21.365-27.026,25.125-43.682l58.663,20.702v180.92c0,0.003,0,0.007,0,0.01
			v124.39h-68.395c-5.522,0-10,4.478-10,10c0,5.522,4.478,10,10,10h68.395v24h-284v-39c0-5.522-4.478-10-10-10
			c-5.522,0-10,4.478-10,10v49c0,5.522,4.478,10,10,10h304c5.522,0,10-4.478,10-10V327.748l91.071-91.072
			C512.978,232.771,512.978,226.439,509.073,222.534z M94.001,299.463l-69.857-69.858l69.857-69.857V299.463z M255.645,168.703
			c-30.592,0-56.822-21.318-63.902-50.182h127.834C312.541,147.384,286.298,168.703,255.645,168.703z M418.001,299.463V159.748
			l69.857,69.857L418.001,299.463z"/>
	</g>
</g>
<g>
	<g>
		<path d="M164.85,246.001c-5.422,0-9.833-3.589-9.833-8s4.411-8,9.833-8c5.423,0,9.834,3.589,9.834,8c0,5.523,4.478,10,10,10
			c5.522,0,10-4.477,10-10c0-15.439-13.384-28-29.834-28s-29.833,12.561-29.833,28c0,15.439,13.383,28,29.833,28
			c5.423,0,9.834,3.589,9.834,8s-4.411,8-9.834,8c-5.422,0-9.833-3.589-9.833-8c0-5.522-4.478-10-10-10c-5.522,0-10,4.478-10,10
			c0,15.439,13.383,28,29.833,28s29.834-12.561,29.834-28C194.684,258.562,181.3,246.001,164.85,246.001z"/>
	</g>
</g>
<g>
	<g>
		<path d="M310.666,282.001h-14.334v-62c0-5.523-4.477-10-10-10c-5.522,0-10,4.477-10,10v62.675
			c0,10.656,8.669,19.325,19.325,19.325h15.009c5.522,0,10-4.478,10-10C320.666,286.479,316.188,282.001,310.666,282.001z"/>
	</g>
</g>
<g>
	<g>
		<path d="M366.986,282.001h-18.653v-16h9.561c5.522,0,10-4.478,10-10c0-5.523-4.478-10-10-10h-9.561v-16h18.653
			c5.522,0,10-4.477,10-10s-4.478-10-10-10h-19.328c-10.656,0-19.325,8.669-19.325,19.325v53.35
			c0,10.656,8.669,19.325,19.325,19.325h19.328c5.522,0,10-4.478,10-10C376.986,286.479,372.508,282.001,366.986,282.001z"/>
	</g>
</g>
<g>
	<g>
		<path d="M270.696,288.49l-27-72c-1.464-3.903-5.195-6.489-9.363-6.489c-4.168,0-7.899,2.586-9.363,6.489l-27,72
			c-1.939,5.172,0.681,10.936,5.852,12.875c5.176,1.939,10.936-0.683,12.875-5.852l2.067-5.512h31.14l2.067,5.512
			c1.506,4.015,5.315,6.491,9.365,6.491c1.166,0,2.353-0.206,3.51-0.64C270.015,299.425,272.635,293.661,270.696,288.49z
			 M226.262,270.001l8.07-21.52l8.07,21.52H226.262z"/>
	</g>
</g>
<g>
	<g>
		<path d="M192.334,329.979c-17.645,0-32,14.355-32,32v28.012c0,17.645,14.355,32,32,32s32-14.355,32-32v-28.012
			C224.334,344.334,209.979,329.979,192.334,329.979z M204.334,389.991c0,6.617-5.383,12-12,12s-12-5.383-12-12v-28.012
			c0-6.617,5.383-12,12-12s12,5.383,12,12V389.991z"/>
	</g>
</g>
<g>
	<g>
		<path d="M274.654,365.991h-18.653v-16h18.653c5.522,0,10-4.478,10-10c0-5.522-4.478-10-10-10h-19.328
			c-10.656,0-19.325,8.669-19.325,19.324v62.676c0,5.522,4.478,10,10,10c5.522,0,10-4.478,10-10v-26h18.653c5.522,0,10-4.478,10-10
			C284.654,370.469,280.176,365.991,274.654,365.991z"/>
	</g>
</g>
<g>
	<g>
		<path d="M339.319,365.991h-18.653v-16h18.653c5.522,0,10-4.478,10-10c0-5.522-4.478-10-10-10h-19.328
			c-10.656,0-19.325,8.668-19.325,19.324v62.676c0,5.522,4.478,10,10,10c5.522,0,10-4.478,10-10v-26h18.653c5.522,0,10-4.478,10-10
			C349.319,370.469,344.841,365.991,339.319,365.991z"/>
	</g>
</g>
<g>
</g>
<g>
</g>
<g>
</g>
<g>
</g>
<g>
</g>
<g>
</g>
<g>
</g>
<g>
</g>
<g>
</g>
<g>
</g>
<g>
</g>
<g>
</g>
<g>
</g>
<g>
</g>
<g>
</g>
</svg>
