<?xml version="1.0" encoding="iso-8859-1"?>
<!-- Generator: Adobe Illustrator 19.0.0, SVG Export Plug-In . SVG Version: 6.00 Build 0)  -->
<svg version="1.1" id="Capa_1" xmlns="http://www.w3.org/2000/svg" xmlns:xlink="http://www.w3.org/1999/xlink" x="0px" y="0px"
	 viewBox="0 0 512 512" style="enable-background:new 0 0 512 512;" xml:space="preserve">
<g>
	<g>
		<path d="M482,0H30C13.458,0,0,13.458,0,30v354c0,16.542,13.458,30,30,30h172v52.001C202,480.337,190.337,492,176.001,492h-0.003
			h-30.001c-5.523,0-10,4.478-10,10c0,5.522,4.477,10,10,10H366c5.523,0,10-4.478,10-10c0-5.522-4.477-10-10-10h-30.001
			C321.663,492,310,480.337,310,466.001V414h172c16.542,0,30-13.458,30-30V30C512,13.458,498.542,0,482,0z M213.922,492
			c5.09-7.402,8.079-16.356,8.079-25.999V414h68v52.001c-0.001,9.643,2.987,18.597,8.078,25.999H213.922z M492,324H92.727
			c-5.523,0-10,4.478-10,10c0,5.522,4.477,10,10,10H492v40c0,5.514-4.486,10-10,10H30c-5.514,0-10-4.486-10-10V30
			c0-5.514,4.486-10,10-10h452c5.514,0,10,4.486,10,10V324z"/>
	</g>
</g>
<g>
	<g>
		<path d="M60.07,326.93C58.21,325.07,55.63,324,53,324s-5.21,1.069-7.07,2.93C44.07,328.79,43,331.37,43,334s1.07,5.21,2.93,7.069
			C47.79,342.93,50.37,344,53,344s5.21-1.07,7.07-2.931C61.93,339.21,63,336.63,63,334S61.93,328.79,60.07,326.93z"/>
	</g>
</g>
<g>
	<g>
		<path d="M234.99,274.542l-40.069-108.714l30.847-81.2c1.876-4.938-0.413-10.484-5.226-12.662l-37.74-17.076
			c-2.48-1.122-5.309-1.186-7.836-0.174c-2.527,1.01-4.532,3.007-5.554,5.53l-19.98,49.316l-19.98-49.316
			c-1.022-2.522-3.027-4.52-5.554-5.53c-2.528-1.012-5.357-0.948-7.836,0.174l-37.74,17.076c-4.813,2.178-7.102,7.724-5.226,12.662
			l30.848,81.2l-40.07,108.714c-1.131,3.067-0.69,6.495,1.18,9.177c1.87,2.683,4.933,4.281,8.203,4.281h152.35
			c3.269,0,6.332-1.599,8.203-4.281C235.68,281.037,236.121,277.61,234.99,274.542z M184.04,77.401l13.618,6.162l-24.172,19.888
			L184.04,77.401z M159.432,140.914l34.27-28.196l-16.357,43.057h-17.913V140.914z M139.432,140.913v14.861h-17.913l-16.358-43.057
			L139.432,140.913z M101.205,83.563l13.618-6.162l10.554,26.05L101.205,83.563z M87.6,268l33.992-92.226h27.84h27.84L211.263,268
			H87.6z"/>
	</g>
</g>
<g>
	<g>
		<path d="M399.42,152.93c-1.87-1.86-4.45-2.93-7.08-2.93c-2.63,0-5.21,1.07-7.07,2.93c-1.86,1.86-2.93,4.44-2.93,7.07
			s1.07,5.21,2.93,7.07s4.44,2.93,7.07,2.93c2.64,0,5.21-1.07,7.08-2.93c1.86-1.86,2.92-4.44,2.92-7.07S401.28,154.79,399.42,152.93
			z"/>
	</g>
</g>
<g>
	<g>
		<path d="M356.143,150h-71.959c-5.523,0-10,4.477-10,10s4.477,10,10,10h71.959c5.523,0,10-4.477,10-10S361.666,150,356.143,150z"/>
	</g>
</g>
<g>
	<g>
		<path d="M447.83,102H284.238c-5.523,0-10,4.477-10,10s4.477,10,10,10H447.83c5.523,0,10-4.477,10-10S453.353,102,447.83,102z"/>
	</g>
</g>
<g>
	<g>
		<path d="M447.762,54H284.17c-5.523,0-10,4.477-10,10s4.477,10,10,10h163.592c5.523,0,10-4.477,10-10S453.285,54,447.762,54z"/>
	</g>
</g>
<g>
	<g>
		<path d="M447.83,212H284.184c-5.523,0-10,4.477-10,10v56c0,5.522,4.477,10,10,10H447.83c5.523,0,10-4.478,10-10v-56
			C457.83,216.477,453.353,212,447.83,212z M437.83,268H294.184v-36H437.83V268z"/>
	</g>
</g>
<g>
</g>
<g>
</g>
<g>
</g>
<g>
</g>
<g>
</g>
<g>
</g>
<g>
</g>
<g>
</g>
<g>
</g>
<g>
</g>
<g>
</g>
<g>
</g>
<g>
</g>
<g>
</g>
<g>
</g>
</svg>
