<?xml version="1.0" encoding="iso-8859-1"?>
<!-- Generator: Adobe Illustrator 19.0.0, SVG Export Plug-In . SVG Version: 6.00 Build 0)  -->
<svg version="1.1" id="Capa_1" xmlns="http://www.w3.org/2000/svg" xmlns:xlink="http://www.w3.org/1999/xlink" x="0px" y="0px"
	 viewBox="0 0 512 512" style="enable-background:new 0 0 512 512;" xml:space="preserve">
<g>
	<g>
		<path d="M99.076,314.516c-1.86-1.859-4.44-2.92-7.07-2.92s-5.21,1.061-7.07,2.92c-1.86,1.87-2.93,4.45-2.93,7.08
			s1.07,5.2,2.93,7.07c1.86,1.861,4.44,2.93,7.07,2.93s5.21-1.069,7.07-2.93c1.86-1.87,2.93-4.44,2.93-7.07
			C102.006,318.966,100.936,316.386,99.076,314.516z"/>
	</g>
</g>
<g>
	<g>
		<path d="M359.432,346.925c-1.87-1.86-4.44-2.93-7.08-2.93c-2.63,0-5.21,1.069-7.07,2.93c-1.86,1.861-2.93,4.44-2.93,7.07
			c0,2.63,1.07,5.21,2.93,7.069c1.87,1.86,4.44,2.931,7.07,2.931c2.64,0,5.21-1.07,7.08-2.931c1.86-1.859,2.92-4.439,2.92-7.069
			C362.352,351.365,361.292,348.785,359.432,346.925z"/>
	</g>
</g>
<g>
	<g>
		<path d="M502,113.998c5.523,0,10-4.477,10-10V63.999c0-5.523-4.477-10-10-10H138.005V30.007c0-16.542-13.458-30-30-30h-32
			c-16.542,0-30,13.458-30,30v23.993h-36c-5.523,0-10,4.477-10,10v39.999c0,5.523,4.477,10,10,10h36v332.627
			C19.862,451.492,0,474.459,0,501.993c0,5.522,4.477,10,10,10h258.298c2.734,0,5.349-1.12,7.236-3.099
			c8.63-9.048,13.383-20.91,13.383-33.401c0-26.695-21.718-48.413-48.413-48.413c-3.531,0-7.06,0.393-10.504,1.159
			c-3.78-10.911-10.063-20.524-18.112-28.245H502c5.523,0,10-4.478,10-10V173.998c0-5.523-4.477-10-10-10h-31.864v-49.999H502z
			 M20.007,93.999v-20h26v20H20.007z M83.673,491.993H21.399c4.354-15.188,18.366-26.333,34.934-26.333
			c16.568,0,30.581,11.146,34.935,26.333H83.673z M118.005,491.993h-6.247c-1.519-8.437-4.917-16.225-9.753-22.916v-96.396
			c0-5.522-4.477-10-10-10s-10,4.478-10,10v79.196c-4.955-2.549-10.332-4.382-16-5.368V30.007c0-5.514,4.486-10,10-10h32
			c5.514,0,10,4.486,10,10V491.993z M138.005,113.998h28.136v49.999h-28.136V113.998z M213.216,442.982
			c0.544,3.129,2.542,5.813,5.383,7.232c2.841,1.42,6.188,1.406,9.016-0.039c4.023-2.054,8.36-3.095,12.89-3.095
			c15.667,0,28.414,12.746,28.414,28.414c0,5.976-1.856,11.708-5.289,16.5H138.005v-86.102c7.394-3.871,15.61-5.897,24.043-5.897
			C187.365,399.995,208.884,418.073,213.216,442.982z M470.137,195.426v-11.429H492v159.998h-88.555c-5.523,0-10,4.478-10,10
			c0,5.522,4.477,10,10,10H492v16H138.005V183.997h28.136v11.429c0,5.523,4.477,10,10,10c5.523,0,10-4.477,10-10v-11.429h263.996
			v11.429c0,5.523,4.477,10,10,10C465.66,205.426,470.137,200.949,470.137,195.426z M186.14,163.998v-49.999h263.996v49.999H186.14z
			 M138.005,93.999v-20H492v20H138.005z"/>
	</g>
</g>
<g>
	<g>
		<path d="M203.598,265.913c-7.853,0-14.241-5.384-14.241-12c0-6.616,6.388-12,14.241-12s14.241,5.383,14.241,12
			c0,5.523,4.477,10,10,10c5.523,0,10-4.477,10-10c0-17.645-15.36-32-34.241-32s-34.241,14.355-34.241,32s15.36,32,34.241,32
			c7.853,0,14.241,5.383,14.241,12c0,6.617-6.389,12-14.241,12c-7.852,0-14.241-5.383-14.241-12c0-5.522-4.477-10-10-10
			c-5.523,0-10,4.478-10,10c0,17.645,15.36,32,34.241,32s34.241-14.355,34.241-32C237.839,280.268,222.479,265.913,203.598,265.913z
			"/>
	</g>
</g>
<g>
	<g>
		<path d="M381.815,309.913h-18.344c-0.771,0-1.397-0.627-1.397-1.397v-76.602c0-5.523-4.477-10-10-10c-5.523,0-10,4.477-10,10
			v76.602c0,11.799,9.599,21.397,21.397,21.397h18.344c5.523,0,10-4.478,10-10S387.338,309.913,381.815,309.913z"/>
	</g>
</g>
<g>
	<g>
		<path d="M450.65,309.913h-23.624c-0.771,0-1.397-0.627-1.397-1.397v-22.603h13.906c5.523,0,10-4.478,10-10c0-5.522-4.477-10-10-10
			h-13.906V243.31c0-0.77,0.626-1.396,1.397-1.396h23.624c5.523,0,10-4.477,10-10c0-5.523-4.477-10-10-10h-23.624
			c-11.798,0-21.397,9.599-21.397,21.397v65.205c0,11.799,9.599,21.397,21.397,21.397h23.624c5.523,0,10-4.478,10-10
			C460.65,314.391,456.173,309.913,450.65,309.913z"/>
	</g>
</g>
<g>
	<g>
		<path d="M330.884,316.402l-33.001-87.999c-1.463-3.903-5.195-6.489-9.363-6.489c-4.168,0-7.9,2.586-9.363,6.489l-33,88
			c-1.939,5.171,0.681,10.935,5.852,12.874c5.171,1.94,10.936-0.681,12.875-5.853l3.067-8.178h3.167h37.972l3.067,8.178
			c1.505,4.016,5.315,6.492,9.365,6.492c1.167,0,2.354-0.206,3.51-0.64C330.203,327.336,332.824,321.573,330.884,316.402z
			 M275.449,295.246l13.07-34.854l13.07,34.854H275.449z"/>
	</g>
</g>
<g>
</g>
<g>
</g>
<g>
</g>
<g>
</g>
<g>
</g>
<g>
</g>
<g>
</g>
<g>
</g>
<g>
</g>
<g>
</g>
<g>
</g>
<g>
</g>
<g>
</g>
<g>
</g>
<g>
</g>
</svg>
