<?xml version="1.0" encoding="iso-8859-1"?>
<!-- Generator: Adobe Illustrator 19.0.0, SVG Export Plug-In . SVG Version: 6.00 Build 0)  -->
<svg version="1.1" id="Capa_1" xmlns="http://www.w3.org/2000/svg" xmlns:xlink="http://www.w3.org/1999/xlink" x="0px" y="0px"
	 viewBox="0 0 512 512" style="enable-background:new 0 0 512 512;" xml:space="preserve">
<g>
	<g>
		<path d="M451.536,288.903c-5.392-1.178-10.728,2.227-11.913,7.622c-15.132,68.895-69.12,124.55-137.539,141.787
			c-5.355,1.35-8.603,6.785-7.253,12.141c1.143,4.535,5.216,7.559,9.689,7.559c0.809,0,1.631-0.099,2.45-0.305
			c37.316-9.401,71.291-29.045,98.252-56.805c27.012-27.813,45.662-62.422,53.935-100.086
			C460.343,295.422,456.93,290.089,451.536,288.903z"/>
	</g>
</g>
<g>
	<g>
		<path d="M454,246c-5.523,0-10,4.477-10,10v0.335c-0.021,5.523,4.438,10.017,9.961,10.039c0.013,0,0.026,0,0.04,0
			c5.504,0,9.978-4.451,9.999-9.96V256C464,250.477,459.523,246,454,246z"/>
	</g>
</g>
<g>
	<g>
		<path d="M256,48c-40.11,0-79.049,11.442-112.608,33.091c-32.674,21.077-58.741,50.742-75.383,85.789
			c-2.369,4.989-0.245,10.954,4.744,13.323c1.385,0.658,2.845,0.969,4.283,0.969c3.741,0,7.329-2.109,9.04-5.713
			C117.073,110.18,183.773,68,256,68c5.523,0,10-4.477,10-10S261.523,48,256,48z"/>
	</g>
</g>
<g>
	<g>
		<path d="M66.449,197.706c-5.35-1.345-10.782,1.906-12.138,7.253c-0.003,0.011-0.012,0.047-0.015,0.058
			c-1.34,5.358,1.924,10.761,7.282,12.101c0.81,0.203,1.622,0.299,2.421,0.299c4.487,0,8.576-3.054,9.713-7.602
			C75.051,204.464,71.799,199.053,66.449,197.706z"/>
	</g>
</g>
<g>
	<g>
		<path d="M437.019,74.981C388.667,26.628,324.38,0,256,0S123.333,26.628,74.981,74.981C26.628,123.333,0,187.62,0,256
			c0.008-0.002,0.016-0.003,0.024-0.005c-0.001,2.603,0.991,5.163,2.905,7.076l246,246c1.913,1.913,4.469,2.928,7.071,2.929
			c0.001,0,0.001,0,0.002,0c0,0,0,0,0.001,0c68.379-0.001,132.665-26.63,181.016-74.98C485.372,388.667,512,324.38,512,256
			S485.372,123.333,437.019,74.981z M35.511,267.369c109.797,11.854,197.265,99.322,209.12,209.119L35.511,267.369z
			 M265.782,491.782c-2.256-57.847-23.637-112.292-61.114-156.039c10.476-4.349,17.808-14.191,17.808-25.616
			c0-15.439-13.383-28-29.833-28c-5.422,0-9.834-3.589-9.834-8s4.412-8,9.834-8s9.833,3.589,9.833,8c0,5.522,4.477,10,10,10
			s10-4.478,10-10c0-15.439-13.383-28-29.833-28c-16.451,0-29.834,12.561-29.834,28c0,15.439,13.383,28,29.834,28
			c5.422,0,9.833,3.589,9.833,8s-4.411,8-9.833,8s-9.834-3.589-9.834-8c0-5.522-4.477-10-10-10c-1.487,0-2.894,0.334-4.163,0.916
			c-42.375-33.584-93.893-52.698-148.428-54.825C25.367,120.607,129.147,20,256,20c130.131,0,236,105.869,236,236
			C492,382.853,391.393,486.633,265.782,491.782z"/>
	</g>
</g>
<g>
	<g>
		<path d="M338.458,318.127h-14.333v-62c0-5.523-4.477-10-10-10s-10,4.477-10,10v62.675c0,10.656,8.669,19.325,19.325,19.325h15.008
			c5.523,0,10-4.478,10-10C348.458,322.605,343.981,318.127,338.458,318.127z"/>
	</g>
</g>
<g>
	<g>
		<path d="M394.778,318.127h-18.653v-16h9.56c5.523,0,10-4.478,10-10c0-5.522-4.477-10-10-10h-9.56v-16h18.653
			c5.523,0,10-4.478,10-10c0-5.523-4.477-10-10-10H375.45c-10.656,0-19.325,8.669-19.325,19.325v53.35
			c0,10.656,8.669,19.325,19.325,19.325h19.328c5.523,0,10-4.478,10-10C404.778,322.605,400.301,318.127,394.778,318.127z"/>
	</g>
</g>
<g>
	<g>
		<path d="M298.489,324.615l-27-72c-1.463-3.903-5.195-6.489-9.363-6.489c-4.168,0-7.9,2.586-9.363,6.489l-27,72
			c-1.939,5.172,0.681,10.936,5.852,12.875c5.171,1.938,10.936-0.682,12.875-5.852l2.102-5.605c0.425,0.055,0.856,0.093,1.296,0.093
			h29.809l2.067,5.512c1.505,4.015,5.316,6.491,9.365,6.491c1.167,0,2.354-0.206,3.51-0.64
			C297.808,335.551,300.428,329.787,298.489,324.615z M254.056,306.127l8.07-21.52l8.07,21.52H254.056z"/>
	</g>
</g>
<g>
	<g>
		<path d="M207.981,150.79c-0.001-15.437-12.56-27.997-27.997-27.997h-27.466c-5.523,0-10,4.477-10,10v80c0,5.523,4.477,10,10,10
			h27.466c15.438,0,27.997-12.559,27.997-27.997v-4.006c0-6.848-2.475-13.127-6.573-17.997c4.098-4.87,6.573-11.149,6.573-17.997
			V150.79z M187.98,194.797c0,4.409-3.587,7.997-7.997,7.997h-17.466v-20h17.466c4.409,0,7.997,3.587,7.997,7.997V194.797z
			 M187.981,154.796c0,4.409-3.587,7.997-7.997,7.997h-17.466v-20h17.466c4.409,0,7.997,3.587,7.997,7.997V154.796z"/>
	</g>
</g>
<g>
	<g>
		<path d="M246,122.793c-5.523,0-10,4.478-10,10v79.661c0,5.523,4.477,10,10,10s10-4.477,10-10v-79.661
			C256,127.27,251.523,122.793,246,122.793z"/>
	</g>
</g>
<g>
	<g>
		<path d="M336.358,169.497h-13.143c-5.523,0-10,4.477-10,10c0,5.523,4.477,10,10,10h3.143v7.338c0,3.286-2.673,5.958-5.959,5.958
			h-13.545c-3.286,0-5.959-2.673-5.959-5.958v-48.083c0-3.286,2.673-5.959,5.959-5.959h13.545c3.286,0,5.959,2.673,5.959,5.959
			c0,5.523,4.477,10,10,10s10-4.477,10-10c0-14.314-11.645-25.959-25.959-25.959h-13.545c-14.314,0-25.959,11.645-25.959,25.959
			v48.083c0,14.313,11.645,25.958,25.959,25.958h13.545c14.314,0,25.959-11.645,25.959-25.958v-17.338
			C346.358,173.974,341.881,169.497,336.358,169.497z"/>
	</g>
</g>
<g>
</g>
<g>
</g>
<g>
</g>
<g>
</g>
<g>
</g>
<g>
</g>
<g>
</g>
<g>
</g>
<g>
</g>
<g>
</g>
<g>
</g>
<g>
</g>
<g>
</g>
<g>
</g>
<g>
</g>
</svg>
