<?xml version="1.0" encoding="iso-8859-1"?>
<!-- Generator: Adobe Illustrator 19.0.0, SVG Export Plug-In . SVG Version: 6.00 Build 0)  -->
<svg version="1.1" id="Capa_1" xmlns="http://www.w3.org/2000/svg" xmlns:xlink="http://www.w3.org/1999/xlink" x="0px" y="0px"
	 viewBox="0 0 511.999 511.999" style="enable-background:new 0 0 511.999 511.999;" xml:space="preserve">
<g>
	<g>
		<path d="M511.987,143.501c-0.099-5.754-1.493-11.509-4.212-16.866l-17.781-35.03V49.999C489.993,22.429,467.564,0,439.994,0
			H72.005C44.435,0,22.006,22.429,22.006,49.999v41.606l-17.782,35.03c-2.719,5.357-4.113,11.113-4.212,16.866
			c0,0.036-0.005,0.071-0.005,0.107v358.392c0,5.523,4.478,10,10,10h491.987c5.522,0,10-4.477,10-10V143.608
			C511.992,143.572,511.987,143.537,511.987,143.501z M42.004,61.998h90.333c5.522,0,10-4.477,10-10c0-5.523-4.478-10-10-10H43.096
			c3.511-12.669,15.137-21.999,28.907-21.999h367.99c16.542,0,29.999,13.458,29.999,29.999v33.999H42.004V61.998z M121.31,182.795
			h5.385c16.925,0,31.956-8.242,41.307-20.918c9.351,12.677,24.381,20.918,41.307,20.918h5.385c16.925,0,31.956-8.242,41.307-20.918
			c9.351,12.677,24.381,20.918,41.307,20.918h5.385c16.924,0,31.956-8.242,41.307-20.918c9.351,12.677,24.381,20.918,41.307,20.918
			h5.385c16.925,0,31.956-8.242,41.307-20.918c5.149,6.98,12.023,12.606,19.985,16.26v273.852H60.018V178.136
			c7.963-3.654,14.837-9.28,19.985-16.26C89.354,174.553,104.385,182.795,121.31,182.795z M90.002,131.489v-27.492h67.999v27.492
			c0,17.263-14.045,31.306-31.307,31.306h-5.385C104.047,162.796,90.002,148.752,90.002,131.489z M178,131.489v-27.492h67.999
			v27.492c0,17.263-14.045,31.306-31.307,31.306h-5.385C192.044,162.796,178,148.752,178,131.489z M265.997,131.489v-27.492h67.999
			v27.492c0,17.263-14.045,31.306-31.307,31.306h-5.385C280.042,162.796,265.997,148.752,265.997,131.489z M353.995,131.489v-27.492
			h67.999v27.492c0,17.263-14.045,31.306-31.307,31.306h-5.385C368.039,162.796,353.995,148.752,353.995,131.489z M22.057,135.686
			l16.087-31.689h31.86v27.492c0,17.263-14.045,31.306-31.307,31.306c-6.636,0-12.433-3.244-15.904-8.899
			c-1.714-2.793-2.644-5.825-2.788-8.892v-1.397c0-0.034-0.005-0.067-0.005-0.102C20.098,140.856,20.777,138.206,22.057,135.686z
			 M491.991,492.001H20.005V178.012c5.61,3.095,12,4.783,18.691,4.783c0.443,0,0.881-0.022,1.321-0.034v279.226
			c0,5.523,4.478,10,10,10h411.962c5.522,0,10-4.477,10-10V182.761c0.44,0.011,0.878,0.034,1.321,0.034
			c6.693,0,13.082-1.688,18.691-4.783V492.001z M491.992,143.608v1.397c-0.144,3.067-1.074,6.099-2.788,8.892
			c-3.472,5.655-9.269,8.899-15.904,8.899c-17.263,0-31.307-14.045-31.307-31.306v-27.492h31.86l16.087,31.69
			c1.279,2.52,1.959,5.17,2.057,7.82C491.997,143.541,491.992,143.574,491.992,143.608z"/>
	</g>
</g>
<g>
	<g>
		<path d="M395.995,235.994h-91.901l-41.023-41.023c-3.906-3.905-10.236-3.905-14.143,0l-41.024,41.023h-91.901
			c-16.542,0-29.999,13.458-29.999,29.999v119.997c0,16.542,13.458,29.999,29.999,29.999h96.044c5.522,0,10-4.477,10-10
			c0-5.523-4.478-10-10-10h-96.044c-5.514,0-10-4.486-10-10V265.993c0-5.514,4.486-10,10-10h96.039h0.01h183.943
			c5.514,0,10,4.486,10,10v119.997c0,5.514-4.486,10-10,10h-97.499c-5.522,0-10,4.477-10,10c0,5.523,4.478,10,10,10h97.499
			c16.542,0,29.999-13.458,29.999-29.999V265.993C425.994,249.451,412.536,235.994,395.995,235.994z M236.189,235.994l19.809-19.81
			l19.81,19.81H236.189z"/>
	</g>
</g>
<g>
	<g>
		<path d="M263.067,398.919c-1.859-1.86-4.439-2.93-7.069-2.93s-5.21,1.07-7.07,2.93c-1.86,1.86-2.93,4.44-2.93,7.07
			c0,2.63,1.069,5.21,2.93,7.07c1.861,1.86,4.44,2.93,7.07,2.93s5.21-1.07,7.069-2.93c1.86-1.86,2.931-4.44,2.931-7.07
			C265.998,403.359,264.928,400.779,263.067,398.919z"/>
	</g>
</g>
<g>
	<g>
		<path d="M164.85,315.991c-5.422,0-9.833-3.589-9.833-8s4.411-8,9.833-8c5.423,0,9.834,3.589,9.834,8c0,5.523,4.478,10,10,10
			s10-4.477,10-10c0-15.439-13.384-27.999-29.833-27.999s-29.832,12.561-29.832,27.999c0,15.439,13.383,27.999,29.832,27.999
			c5.423,0,9.834,3.589,9.834,8s-4.411,8-9.834,8c-5.422,0-9.833-3.589-9.833-8c0-5.523-4.478-10-10-10s-10,4.477-10,10
			c0,15.439,13.383,27.999,29.832,27.999c16.45,0,29.833-12.561,29.833-27.999C194.683,328.552,181.3,315.991,164.85,315.991z"/>
	</g>
</g>
<g>
	<g>
		<path d="M310.662,351.99h-14.334v-61.998c0-5.523-4.478-10-10-10s-10,4.477-10,10v62.673c0,10.656,8.669,19.325,19.325,19.325
			h15.009c5.522,0,10-4.477,10-10C320.662,356.467,316.184,351.99,310.662,351.99z"/>
	</g>
</g>
<g>
	<g>
		<path d="M366.979,351.991h-18.652v-16h9.561c5.522,0,10-4.477,10-10c0-5.523-4.478-10-10-10h-9.561v-16h18.652v-0.001
			c5.522,0,10-4.477,10-10c0-5.523-4.478-10-10-10h-19.327c-10.656,0-19.324,8.669-19.324,19.324v53.35
			c0,10.656,8.669,19.325,19.324,19.325h19.327c5.522,0,10-4.477,10-10C376.979,356.468,372.501,351.991,366.979,351.991z"/>
	</g>
</g>
<g>
	<g>
		<path d="M270.694,358.479l-27.001-71.998c-1.464-3.903-5.195-6.489-9.363-6.489s-7.899,2.586-9.363,6.489l-26.999,71.998
			c-1.939,5.171,0.681,10.936,5.852,12.875c5.175,1.938,10.936-0.682,12.875-5.852l2.102-5.605c0.426,0.055,0.856,0.094,1.297,0.094
			h29.807l2.067,5.511c1.506,4.015,5.315,6.492,9.365,6.492c1.166,0,2.353-0.206,3.51-0.64
			C270.013,369.415,272.633,363.651,270.694,358.479z M226.26,339.991l8.07-21.519l8.07,21.519H226.26z"/>
	</g>
</g>
<g>
	<g>
		<path d="M190.5,44.929c-1.87-1.86-4.44-2.93-7.07-2.93c-2.64,0-5.21,1.07-7.07,2.93c-1.869,1.86-2.93,4.44-2.93,7.07
			s1.061,5.21,2.93,7.07c1.86,1.86,4.43,2.93,7.07,2.93c2.63,0,5.2-1.07,7.07-2.93c1.859-1.86,2.93-4.44,2.93-7.07
			S192.36,46.789,190.5,44.929z"/>
	</g>
</g>
<g>
</g>
<g>
</g>
<g>
</g>
<g>
</g>
<g>
</g>
<g>
</g>
<g>
</g>
<g>
</g>
<g>
</g>
<g>
</g>
<g>
</g>
<g>
</g>
<g>
</g>
<g>
</g>
<g>
</g>
</svg>
