<?xml version="1.0" encoding="iso-8859-1"?>
<!-- Generator: Adobe Illustrator 19.0.0, SVG Export Plug-In . SVG Version: 6.00 Build 0)  -->
<svg version="1.1" id="Capa_1" xmlns="http://www.w3.org/2000/svg" xmlns:xlink="http://www.w3.org/1999/xlink" x="0px" y="0px"
	 viewBox="0 0 512 512" style="enable-background:new 0 0 512 512;" xml:space="preserve">
<g>
	<g>
		<path d="M472,80H335.973C342.265,71.637,346,61.247,346,50c0-27.57-22.43-50-50-50c-16.288,0-30.778,7.832-39.913,19.924
			C246.952,7.832,232.462,0,216.174,0c-27.57,0-50,22.43-50,50c0,11.247,3.735,21.637,10.027,30H40C17.944,80,0,97.944,0,120v44
			c0,15.583,8.963,29.104,22,35.704V462c0,27.57,22.43,50,50,50h368c27.57,0,50-22.43,50-50V199.704
			c13.037-6.599,22-20.12,22-35.704v-44C512,97.944,494.056,80,472,80z M296,20c16.542,0,30,13.458,30,30s-13.458,30-30,30h-29.826
			V50c0-0.832-0.022-1.66-0.063-2.482C267.378,32.134,280.294,20,296,20z M256,100h0.174H278v84h-44v-84H256z M216.174,20
			c15.706,0,28.622,12.134,29.889,27.518C246.022,48.34,246,49.168,246,50v30h-29.826c-16.542,0-30-13.458-30-30
			S199.632,20,216.174,20z M20,164v-24.167h90.835c5.522,0,10-4.477,10-10c0-5.523-4.478-10-10-10H20.008
			C20.099,108.883,29.028,100,40,100h174v84H40C28.972,184,20,175.028,20,164z M470,452h-90.335c-5.522,0-10,4.477-10,10
			s4.478,10,10,10h88.615c-4.128,11.639-15.244,20-28.28,20H72c-16.542,0-30-13.458-30-30V204h172v19.983c0,5.523,4.478,10,10,10
			c5.522,0,10-4.477,10-10V204h44v52c0,5.523,4.478,10,10,10c5.522,0,10-4.477,10-10v-52h172V452z M492,164c0,11.028-8.972,20-20,20
			H298v-84h174c11.028,0,20,8.972,20,20V164z"/>
	</g>
</g>
<g>
	<g>
		<path d="M169,122.76c-1.86-1.86-4.44-2.93-7.07-2.93c-2.64,0-5.22,1.07-7.07,2.93c-1.869,1.86-2.93,4.44-2.93,7.07
			c0,2.64,1.061,5.22,2.93,7.07c1.85,1.87,4.43,2.93,7.07,2.93c2.63,0,5.2-1.06,7.07-2.93c1.859-1.86,2.93-4.43,2.93-7.07
			C171.93,127.2,170.86,124.62,169,122.76z"/>
	</g>
</g>
<g>
	<g>
		<path d="M335.639,454.93c-1.859-1.86-4.439-2.93-7.07-2.93c-2.63,0-5.199,1.07-7.069,2.93c-1.86,1.86-2.931,4.44-2.931,7.07
			s1.07,5.21,2.931,7.07c1.87,1.86,4.439,2.93,7.069,2.93c2.641,0,5.211-1.07,7.07-2.93c1.87-1.86,2.93-4.44,2.93-7.07
			S337.509,456.79,335.639,454.93z"/>
	</g>
</g>
<g>
	<g>
		<path d="M125.688,348c-9.068,0-16.445-6.28-16.445-14c0-7.72,7.376-14,16.445-14c9.067,0,16.444,6.28,16.444,14
			c0,5.523,4.478,10,10,10c5.522,0,10-4.477,10-10c0-18.748-16.349-34-36.444-34c-20.095,0-36.445,15.252-36.445,34
			s16.35,34,36.445,34c9.067,0,16.444,6.28,16.444,14c0,7.72-7.377,14-16.444,14c-9.068,0-16.445-6.28-16.445-14
			c0-5.523-4.478-10-10-10c-5.522,0-10,4.477-10,10c0,18.748,16.35,34,36.445,34c20.095,0,36.444-15.252,36.444-34
			S145.783,348,125.688,348z"/>
	</g>
</g>
<g>
	<g>
		<path d="M338.198,396h-20.012c-1.342,0-2.434-1.091-2.434-2.433V310c0-5.523-4.478-10-10-10c-5.522,0-10,4.477-10,10v83.567
			c0,12.37,10.063,22.433,22.434,22.433h20.012c5.522,0,10-4.477,10-10S343.721,396,338.198,396z"/>
	</g>
</g>
<g>
	<g>
		<path d="M412.757,396h-25.771c-1.342,0-2.433-1.091-2.433-2.433V368h16.079c5.522,0,10-4.477,10-10s-4.478-10-10-10h-16.079
			v-25.567c0-1.342,1.091-2.433,2.433-2.433h25.771c5.522,0,10-4.477,10-10s-4.478-10-10-10h-25.771
			c-12.369,0-22.433,10.063-22.433,22.433v71.134c0.001,12.37,10.064,22.433,22.433,22.433h25.771c5.522,0,10-4.477,10-10
			S418.279,396,412.757,396z"/>
	</g>
</g>
<g>
	<g>
		<path d="M269.196,402.489l-36.002-96c-1.464-3.903-5.195-6.489-9.363-6.489c-4.168,0-7.899,2.586-9.363,6.489l-36,96
			c-1.939,5.171,0.681,10.936,5.852,12.875c5.175,1.939,10.936-0.681,12.875-5.852l3.849-10.264
			c1.173,0.483,2.456,0.753,3.803,0.753h41.558c0.165,0,0.325-0.017,0.488-0.025l3.576,9.536c1.506,4.015,5.315,6.492,9.365,6.492
			c1.166,0,2.353-0.206,3.51-0.64C268.515,413.425,271.135,407.661,269.196,402.489z M208.261,380l15.57-41.52l15.57,41.52H208.261z
			"/>
	</g>
</g>
<g>
</g>
<g>
</g>
<g>
</g>
<g>
</g>
<g>
</g>
<g>
</g>
<g>
</g>
<g>
</g>
<g>
</g>
<g>
</g>
<g>
</g>
<g>
</g>
<g>
</g>
<g>
</g>
<g>
</g>
</svg>
