<?xml version="1.0" encoding="iso-8859-1"?>
<!-- Generator: Adobe Illustrator 19.0.0, SVG Export Plug-In . SVG Version: 6.00 Build 0)  -->
<svg version="1.1" id="Capa_1" xmlns="http://www.w3.org/2000/svg" xmlns:xlink="http://www.w3.org/1999/xlink" x="0px" y="0px"
	 viewBox="0 0 512 512" style="enable-background:new 0 0 512 512;" xml:space="preserve">
<g>
	<g>
		<path d="M487.705,438.713C503.408,418.202,512,392.941,512,367c0-56.318-39.662-103.54-92.519-115.221
			C419.822,246.87,420,241.92,420,237c0-115.794-94.206-210-210-210S0,121.206,0,237c0,47.559,16.228,93.833,45.801,130.904
			L31.648,420.72c-0.925,3.451,0.062,7.133,2.588,9.66c2.526,2.525,6.207,3.515,9.659,2.588l58.427-15.655
			C134.807,436.748,171.938,447,210,447c29.277,0,57.479-5.89,83.969-17.481C314.853,462.814,351.881,485,394,485
			c20.729,0,40.967-5.412,58.815-15.69l29.69,7.956c3.453,0.926,7.133-0.063,9.659-2.588c2.526-2.526,3.513-6.208,2.588-9.659
			L487.705,438.713z M284.801,411.698C261.184,421.846,236.067,427,210,427c-35.772,0-70.629-10.004-100.804-28.931
			c-2.354-1.476-5.219-1.907-7.901-1.188L55.45,409.166l10.996-41.039c0.845-3.153,0.098-6.52-2.002-9.02
			C35.784,324.982,20,281.617,20,237c0-104.767,85.233-190,190-190s190,85.233,190,190c0,4.04-0.141,8.1-0.395,12.136
			C397.747,249.049,395.879,249,394,249c-65.065,0-118,52.935-118,118C276,382.812,279.134,397.904,284.801,411.698z
			 M469.078,429.98c-2.1,2.5-2.847,5.866-2.002,9.019l3.876,14.465l-17.061-4.571c-2.684-0.72-5.547-0.29-7.901,1.188
			C430.43,459.841,412.451,465,394,465c-54.037,0-98-43.962-98-98c0-54.038,43.963-98,98-98s98,43.962,98,98
			C492,390.013,483.859,412.379,469.078,429.98z"/>
	</g>
</g>
<g>
	<g>
		<path d="M420.342,320.338c-4.808-2.715-10.908-1.019-13.624,3.792l-42.852,75.907c-2.715,4.81-1.018,10.909,3.792,13.624
			c1.554,0.877,3.241,1.294,4.907,1.294c3.489,0,6.879-1.83,8.717-5.086l42.852-75.907
			C426.849,329.153,425.151,323.053,420.342,320.338z"/>
	</g>
</g>
<g>
	<g>
		<path d="M428.024,375.006c-14.337,0-26,11.664-26,26s11.663,26,26,26c14.337,0,26-11.664,26-26S442.361,375.006,428.024,375.006z
			 M428.024,407.006c-3.309,0-6-2.691-6-6c0-3.309,2.691-6,6-6c3.309,0,6,2.691,6,6
			C434.024,404.315,431.333,407.006,428.024,407.006z"/>
	</g>
</g>
<g>
	<g>
		<path d="M359.976,306.994c-14.337,0-26,11.664-26,26s11.663,26,26,26c14.337,0,26-11.664,26-26S374.313,306.994,359.976,306.994z
			 M359.976,338.994c-3.309,0-6-2.691-6-6c0-3.309,2.691-6,6-6c3.309,0,6,2.691,6,6
			C365.976,336.303,363.284,338.994,359.976,338.994z"/>
	</g>
</g>
<g>
	<g>
		<path d="M120.28,165.93c-1.86-1.86-4.44-2.93-7.07-2.93c-2.641,0-5.21,1.07-7.07,2.93c-1.87,1.86-2.93,4.44-2.93,7.07
			s1.06,5.21,2.93,7.07c1.86,1.86,4.44,2.93,7.07,2.93s5.2-1.07,7.07-2.93c1.859-1.86,2.93-4.44,2.93-7.07
			S122.14,167.79,120.28,165.93z"/>
	</g>
</g>
<g>
	<g>
		<path d="M306.672,163H157c-5.522,0-10,4.477-10,10s4.478,10,10,10h149.672c5.522,0,10-4.477,10-10S312.194,163,306.672,163z"/>
	</g>
</g>
<g>
	<g>
		<path d="M306.672,227H113.207c-5.522,0-10,4.477-10,10s4.478,10,10,10h193.465c5.522,0,10-4.477,10-10S312.194,227,306.672,227z"
			/>
	</g>
</g>
<g>
	<g>
		<path d="M176.333,291h-63.005c-5.522,0-10,4.477-10,10s4.478,10,10,10h63.005c5.522,0,10-4.477,10-10S181.855,291,176.333,291z"/>
	</g>
</g>
<g>
	<g>
		<path d="M224.66,293.93c-1.86-1.86-4.44-2.93-7.07-2.93c-2.64,0-5.21,1.07-7.07,2.93c-1.859,1.86-2.93,4.43-2.93,7.07
			c0,2.63,1.07,5.21,2.93,7.07c1.86,1.86,4.431,2.93,7.07,2.93c2.63,0,5.21-1.07,7.07-2.93c1.859-1.86,2.93-4.44,2.93-7.07
			C227.59,298.36,226.52,295.79,224.66,293.93z"/>
	</g>
</g>
<g>
</g>
<g>
</g>
<g>
</g>
<g>
</g>
<g>
</g>
<g>
</g>
<g>
</g>
<g>
</g>
<g>
</g>
<g>
</g>
<g>
</g>
<g>
</g>
<g>
</g>
<g>
</g>
<g>
</g>
</svg>
