<?xml version="1.0" encoding="iso-8859-1"?>
<!-- Generator: Adobe Illustrator 19.0.0, SVG Export Plug-In . SVG Version: 6.00 Build 0)  -->
<svg version="1.1" id="Capa_1" xmlns="http://www.w3.org/2000/svg" xmlns:xlink="http://www.w3.org/1999/xlink" x="0px" y="0px"
	 viewBox="0 0 512 512" style="enable-background:new 0 0 512 512;" xml:space="preserve">
<g>
	<g>
		<path d="M472,54H298V20c0-11.028-8.972-20-20-20h-44c-11.028,0-20,8.972-20,20v34H40C17.944,54,0,71.944,0,94v220
			c0,22.056,17.944,40,40,40h174v30.138c-7.668-2.722-15.779-4.138-24.043-4.138c-31.095,0-58.056,19.7-67.946,48.228
			c-3.42-0.759-6.931-1.142-10.511-1.142c-26.695,0-48.414,21.718-48.414,48.414c0,12.49,4.753,24.353,13.383,33.401
			c1.887,1.979,4.502,3.099,7.236,3.099H448c5.522,0,10-4.477,10-10v-14.087c0-45.766-37.233-83-83-83
			c-29.467,0-56.873,15.925-71.652,41.103c-0.45-0.011-0.899-0.016-1.348-0.016c-1.346,0-2.677,0.065-4,0.159V354h174
			c22.056,0,40-17.944,40-40V94C512,71.944,494.056,54,472,54z M214,492H88.375c-3.434-4.793-5.289-10.524-5.289-16.5
			c0-15.667,12.746-28.414,28.414-28.414c4.529,0,8.866,1.042,12.89,3.095c2.83,1.444,6.177,1.458,9.017,0.039
			c2.841-1.419,4.838-4.104,5.383-7.232C143.12,418.079,164.64,400,189.957,400c8.434,0,16.649,2.026,24.043,5.897V492z M234,20h44
			v34h-44V20z M246.912,492H234V354h44v97.414C261.993,459.039,250.164,474.043,246.912,492z M302,466
			c1.853,0,3.72,0.143,5.55,0.425c4.363,0.671,8.65-1.595,10.55-5.58c10.406-21.828,32.74-35.932,56.9-35.932
			c34.738,0,63,28.262,63,63V492H267.413C271.757,477,285.618,466,302,466z M492,294h-87.016c-5.522,0-10,4.477-10,10
			s4.478,10,10,10H492c0,11.028-8.972,20-20,20H40c-11.028,0-20-8.972-20-20V114h87.016c5.522,0,10-4.477,10-10s-4.478-10-10-10H20
			c0-11.028,8.972-20,20-20h432c11.028,0,20,8.972,20,20V294z"/>
	</g>
</g>
<g>
	<g>
		<path d="M125.688,198c-9.068,0-16.445-6.28-16.445-14c0-7.72,7.376-14,16.445-14c9.067,0,16.444,6.28,16.444,14
			c0,5.523,4.478,10,10,10c5.522,0,10-4.477,10-10c0-18.748-16.349-34-36.444-34c-20.095,0-36.445,15.252-36.445,34
			s16.35,34,36.445,34c9.067,0,16.444,6.28,16.444,14c0,7.72-7.377,14-16.444,14c-9.068,0-16.445-6.28-16.445-14
			c0-5.523-4.478-10-10-10c-5.522,0-10,4.477-10,10c0,18.748,16.35,34,36.445,34c20.095,0,36.444-15.252,36.444-34
			S145.783,198,125.688,198z"/>
	</g>
</g>
<g>
	<g>
		<path d="M338.198,246h-20.012c-1.342,0-2.434-1.091-2.434-2.433V160c0-5.523-4.478-10-10-10c-5.522,0-10,4.477-10,10v83.567
			c0,12.37,10.063,22.433,22.434,22.433h20.012c5.523,0,10-4.477,10-10S343.72,246,338.198,246z"/>
	</g>
</g>
<g>
	<g>
		<path d="M412.758,246h-25.771c-1.342,0-2.433-1.091-2.433-2.433V218h16.079c5.522,0,10-4.477,10-10s-4.478-10-10-10h-16.079
			v-25.567c0-1.342,1.091-2.433,2.433-2.433h25.771c5.522,0,10-4.477,10-10s-4.478-10-10-10h-25.771
			c-12.369,0-22.433,10.063-22.433,22.433v71.134c0,12.37,10.063,22.433,22.433,22.433h25.771c5.522,0,10-4.477,10-10
			S418.28,246,412.758,246z"/>
	</g>
</g>
<g>
	<g>
		<path d="M269.196,252.489l-36.002-96c-1.464-3.903-5.195-6.489-9.363-6.489c-4.168,0-7.899,2.586-9.363,6.489l-36,96
			c-1.939,5.171,0.681,10.936,5.852,12.875c5.175,1.94,10.936-0.681,12.875-5.852l3.849-10.264c1.173,0.483,2.456,0.753,3.803,0.753
			h41.558c0.165,0,0.325-0.017,0.488-0.025l3.576,9.536c1.506,4.015,5.315,6.492,9.365,6.492c1.166,0,2.353-0.206,3.51-0.64
			C268.515,263.425,271.135,257.661,269.196,252.489z M208.261,230l15.57-41.52l15.57,41.52H208.261z"/>
	</g>
</g>
<g>
	<g>
		<path d="M360.97,296.93c-1.861-1.86-4.44-2.93-7.08-2.93c-2.63,0-5.21,1.07-7.07,2.93c-1.859,1.86-2.93,4.44-2.93,7.07
			s1.07,5.21,2.93,7.07c1.86,1.86,4.44,2.93,7.07,2.93c2.641,0,5.21-1.07,7.08-2.93c1.86-1.86,2.92-4.44,2.92-7.07
			S362.83,298.79,360.97,296.93z"/>
	</g>
</g>
<g>
	<g>
		<path d="M165.18,96.93c-1.87-1.86-4.44-2.93-7.08-2.93c-2.63,0-5.21,1.07-7.069,2.93c-1.86,1.86-2.931,4.44-2.931,7.07
			s1.07,5.21,2.931,7.07c1.869,1.86,4.439,2.93,7.069,2.93c2.641,0,5.21-1.07,7.08-2.93c1.86-1.86,2.93-4.44,2.93-7.07
			S167.041,98.79,165.18,96.93z"/>
	</g>
</g>
<g>
</g>
<g>
</g>
<g>
</g>
<g>
</g>
<g>
</g>
<g>
</g>
<g>
</g>
<g>
</g>
<g>
</g>
<g>
</g>
<g>
</g>
<g>
</g>
<g>
</g>
<g>
</g>
<g>
</g>
</svg>
