<?xml version="1.0" encoding="iso-8859-1"?>
<!-- Generator: Adobe Illustrator 19.0.0, SVG Export Plug-In . SVG Version: 6.00 Build 0)  -->
<svg version="1.1" id="Capa_1" xmlns="http://www.w3.org/2000/svg" xmlns:xlink="http://www.w3.org/1999/xlink" x="0px" y="0px"
	 viewBox="0 0 512 512" style="enable-background:new 0 0 512 512;" xml:space="preserve">
<g>
	<g>
		<path d="M494.706,229.672L269.464,119.799c-1.135-0.553-2.292-1.028-3.465-1.435v-19.37c22.792-4.646,39.997-24.848,39.997-48.993
			c0-27.568-22.429-49.997-49.997-49.997s-49.997,22.429-49.997,49.997c0,5.523,4.477,9.999,9.999,9.999
			c5.523,0,9.999-4.477,9.999-9.999c0-16.541,13.457-29.998,29.998-29.998s29.998,13.457,29.998,29.998
			c0,16.541-13.457,29.998-29.998,29.998c-5.523,0-9.999,4.477-9.999,9.999v28.365c-1.173,0.407-2.331,0.881-3.465,1.435
			L17.294,229.672c-13.132,6.406-19.747,20.275-16.459,34.512c3.287,14.236,15.312,23.801,29.923,23.801h23.255v202.654
			c0,2.652,1.054,5.196,2.929,7.071c9.207,9.206,21.448,14.276,34.471,14.276c0.011,0,0.022,0,0.034,0
			c13.027-0.009,25.276-5.089,34.491-14.303c5.438-5.438,12.666-8.431,20.356-8.431s14.919,2.995,20.356,8.432
			c9.214,9.214,21.467,14.289,34.498,14.289s25.282-5.075,34.498-14.289c5.438-5.438,12.666-8.432,20.356-8.432
			c7.689,0,14.919,2.995,20.356,8.432c9.214,9.214,21.467,14.289,34.498,14.289c13.031,0,25.283-5.075,34.498-14.289
			c11.225-11.224,29.488-11.224,40.712,0c9.214,9.214,21.462,14.297,34.486,14.312c0.02,0,0.039,0,0.059,0
			c13.016,0,25.249-5.065,34.451-14.266c1.875-1.875,2.929-4.419,2.929-7.071V287.986h23.255c14.611,0,26.636-9.565,29.923-23.801
			C514.453,249.947,507.838,236.078,494.706,229.672z M437.988,486.146c-8.12,6.178-18.803,7.422-27.998,3.792v-95.977
			c0-5.523-4.477-9.999-9.999-9.999s-9.999,4.477-9.999,9.999v81.755c-7.31-4.21-15.622-6.465-24.284-6.465
			c-13.031,0-25.283,5.075-34.498,14.289c-11.224,11.225-29.488,11.224-40.711,0c-9.214-9.214-21.467-14.289-34.498-14.289
			c-13.031,0-25.283,5.075-34.498,14.289c-5.438,5.438-12.666,8.432-20.356,8.432c-7.69,0-14.919-2.995-20.356-8.432
			c-9.214-9.214-21.467-14.289-34.498-14.289s-25.283,5.075-34.498,14.29c-5.441,5.441-12.672,8.439-20.363,8.445
			c-0.007,0-0.013,0-0.02,0c-6.371,0-12.423-2.057-17.401-5.856V273.351c0-4.061,3.304-7.364,7.364-7.364h20.635v91.995
			c0,5.523,4.477,9.999,9.999,9.999s9.999-4.477,9.999-9.999v-91.995h308.615c4.061,0,7.364,3.304,7.364,7.364V486.146z
			 M491.679,259.684c-0.927,4.014-4.155,8.302-10.437,8.302h-23.786c-2.5-12.528-13.579-21.999-26.831-21.999H81.376
			c-13.252,0-24.331,9.47-26.831,21.999H30.758c-6.283,0-9.51-4.289-10.437-8.302s0.095-9.283,5.741-12.038l225.242-109.874
			c2.985-1.456,6.409-1.456,9.393,0l225.242,109.874C491.584,250.401,492.606,255.671,491.679,259.684z"/>
	</g>
</g>
<g>
	<g>
		<path d="M407.06,335.802c-1.86-1.86-4.43-2.93-7.07-2.93c-2.63,0-5.21,1.07-7.07,2.93s-2.93,4.44-2.93,7.07
			c0,2.63,1.07,5.21,2.93,7.07c1.86,1.87,4.44,2.93,7.07,2.93s5.21-1.06,7.07-2.93c1.86-1.86,2.93-4.44,2.93-7.07
			C409.99,340.242,408.92,337.662,407.06,335.802z"/>
	</g>
</g>
<g>
	<g>
		<path d="M119.079,401.998c-1.86-1.86-4.44-2.93-7.07-2.93s-5.21,1.07-7.07,2.93c-1.86,1.86-2.93,4.44-2.93,7.07
			c0,2.63,1.07,5.21,2.93,7.07c1.86,1.86,4.44,2.93,7.07,2.93s5.21-1.07,7.07-2.93s2.93-4.44,2.93-7.07
			C122.009,406.438,120.939,403.858,119.079,401.998z"/>
	</g>
</g>
<g>
	<g>
		<path d="M282.033,312.978c-4.809-2.716-10.909-1.018-13.623,3.792l-53.765,95.239c-2.715,4.81-1.018,10.908,3.792,13.623
			c1.554,0.877,3.241,1.294,4.907,1.294c3.49,0,6.879-1.83,8.716-5.086l53.765-95.239
			C288.54,321.792,286.842,315.692,282.033,312.978z"/>
	</g>
</g>
<g>
	<g>
		<path d="M290.94,372.644c-16.541,0-29.998,13.457-29.998,29.998s13.457,29.998,29.998,29.998s29.998-13.457,29.998-29.998
			S307.481,372.644,290.94,372.644z M290.94,412.641c-5.514,0-9.999-4.486-9.999-9.999c0-5.514,4.486-9.999,9.999-9.999
			c5.514,0,9.999,4.486,9.999,9.999C300.939,408.156,296.453,412.641,290.94,412.641z"/>
	</g>
</g>
<g>
	<g>
		<path d="M221.06,295.575c-16.541,0-29.998,13.457-29.998,29.998s13.457,29.998,29.998,29.998s29.998-13.457,29.998-29.998
			S237.601,295.575,221.06,295.575z M221.06,335.572c-5.514,0-9.999-4.486-9.999-9.999c0-5.514,4.486-9.999,9.999-9.999
			s9.999,4.486,9.999,9.999C231.06,331.087,226.574,335.572,221.06,335.572z"/>
	</g>
</g>
<g>
</g>
<g>
</g>
<g>
</g>
<g>
</g>
<g>
</g>
<g>
</g>
<g>
</g>
<g>
</g>
<g>
</g>
<g>
</g>
<g>
</g>
<g>
</g>
<g>
</g>
<g>
</g>
<g>
</g>
</svg>
