<?xml version="1.0" encoding="iso-8859-1"?>
<!-- Generator: Adobe Illustrator 19.0.0, SVG Export Plug-In . SVG Version: 6.00 Build 0)  -->
<svg version="1.1" id="Capa_1" xmlns="http://www.w3.org/2000/svg" xmlns:xlink="http://www.w3.org/1999/xlink" x="0px" y="0px"
	 viewBox="0 0 511.998 511.998" style="enable-background:new 0 0 511.998 511.998;" xml:space="preserve">
<g>
	<g>
		<path d="M506.621,347.689L335.049,50.515c-4.003-6.934-10.467-11.896-18.199-13.974L185.915,1.38
			c-4.414-1.185-8.913-1.599-13.341-1.273c-0.387-0.045-0.779-0.075-1.178-0.075H36.603c-16.24,0-30.317,10.442-35.029,25.983
			c-3.05,10.062-1.625,20.958,3.912,29.896c5.537,8.938,14.658,15.067,25.024,16.817l48.957,8.264l-26.68,26.65
			c-5.674,5.668-8.798,13.206-8.798,21.225v343.132c0,22.056,17.944,40,40,40h185.999c11.315,0,21.975-4.837,29.468-12.998
			c0.364,0.108,0.725,0.223,1.094,0.322c3.446,0.923,6.943,1.38,10.417,1.38c6.931,0,13.772-1.818,19.935-5.376l161.08-92.999
			c9.253-5.342,15.872-13.968,18.637-24.288C513.383,367.72,511.963,356.942,506.621,347.689z M33.84,53.008
			c-4.771-0.806-8.803-3.515-11.351-7.629c-2.549-4.114-3.179-8.93-1.775-13.561c2.137-7.05,8.523-11.786,15.89-11.786h103.892
			l-43.659,43.61L33.84,53.008z M128.746,60.037l-2.31,8.602l-5.391-0.91L128.746,60.037z M269.989,492H111.988v-87.985
			c0-5.523-4.477-10-10-10s-10,4.477-10,10v87.986h-8c-11.028,0-20-8.972-20-20V128.867c0-2.673,1.042-5.186,2.933-7.075
			l36.755-36.714l17.55,2.963l-19.524,72.702c-2.08,7.745-1.018,15.836,2.993,22.781l171.567,297.162
			c1.569,2.719,3.429,5.203,5.526,7.435C278.411,490.592,274.295,492,269.989,492z M491.299,372.864
			c-1.382,5.16-4.692,9.473-9.318,12.144l-161.08,92.999c-4.627,2.671-10.017,3.379-15.176,1.998
			c-5.16-1.383-9.473-4.692-12.144-9.319L122.014,173.526c-1.336-2.315-1.691-5.012-0.998-7.593l20.019-74.546l29.951,5.056
			c0.695,3.771,2.038,7.436,4.012,10.855c4.541,7.865,11.873,13.491,20.645,15.841c2.929,0.785,5.902,1.173,8.855,1.173
			c5.892,0,11.706-1.545,16.945-4.57c7.865-4.541,13.491-11.873,15.841-20.645c2.351-8.772,1.145-17.935-3.396-25.8
			c-4.541-7.865-11.873-13.491-20.645-15.841c-8.772-2.351-17.935-1.144-25.8,3.396c-6.336,3.658-11.216,9.13-14.104,15.704
			l-27.093-4.573l9.979-37.159c1.386-5.159,4.697-9.47,9.325-12.139c3.08-1.776,6.496-2.683,9.958-2.683
			c1.741,0,3.493,0.229,5.219,0.693l75.837,20.366c0.069,0.133,0.129,0.269,0.205,0.4l48.508,84.017
			c1.852,3.209,5.213,5.001,8.669,5.001c1.696,0,3.416-0.432,4.991-1.341c4.783-2.761,6.422-8.877,3.66-13.66l-38.732-67.085
			l27.796,7.464c2.578,0.692,4.732,2.347,6.067,4.658l171.573,297.173C491.973,362.315,492.681,367.704,491.299,372.864z
			 M196.325,80.437l-1.54-0.26c0.798-0.759,1.68-1.439,2.658-2.004c2.157-1.246,4.551-1.881,6.977-1.881
			c1.216,0,2.44,0.16,3.646,0.483c3.612,0.968,6.631,3.284,8.501,6.523c1.87,3.239,2.366,7.011,1.398,10.624
			c-0.968,3.612-3.284,6.631-6.523,8.501c-3.238,1.871-7.011,2.367-10.624,1.398c-2.364-0.633-4.465-1.853-6.165-3.522
			c0.007-0.001,0.013,0,0.02,0c4.791,0,9.024-3.455,9.848-8.337C205.44,86.516,201.771,81.356,196.325,80.437z"/>
	</g>
</g>
<g>
	<g>
		<path d="M431.798,314.299c-9.676-16.76-31.183-22.523-47.942-12.847c-16.759,9.676-22.521,31.183-12.846,47.942
			c6.494,11.247,18.314,17.541,30.453,17.541c5.95,0,11.977-1.513,17.489-4.695c8.118-4.687,13.926-12.255,16.352-21.31
			S436.485,322.417,431.798,314.299z M415.985,335.753c-1.043,3.895-3.541,7.15-7.033,9.166c-7.209,4.163-16.459,1.683-20.622-5.525
			c-4.162-7.208-1.683-16.459,5.525-20.622c2.326-1.343,4.907-2.029,7.523-2.029c1.311,0,2.631,0.172,3.932,0.521
			c3.895,1.043,7.15,3.542,9.167,7.034C416.494,327.79,417.029,331.858,415.985,335.753z"/>
	</g>
</g>
<g>
	<g>
		<path d="M297.854,271.289c-4.687-8.118-12.255-13.925-21.31-16.351c-9.054-2.425-18.513-1.18-26.632,3.506
			c-8.118,4.687-13.926,12.255-16.352,21.31c-2.426,9.055-1.181,18.513,3.506,26.631c6.493,11.247,18.314,17.541,30.453,17.541
			c5.95,0,11.976-1.512,17.489-4.695c8.119-4.688,13.926-12.255,16.352-21.311S302.541,279.407,297.854,271.289z M282.042,292.745
			c-1.043,3.895-3.542,7.15-7.033,9.166c-7.208,4.163-16.459,1.684-20.622-5.525c-2.016-3.492-2.552-7.56-1.508-11.455
			c1.043-3.895,3.541-7.15,7.033-9.166c2.326-1.343,4.908-2.029,7.524-2.029c1.311,0,2.631,0.172,3.932,0.521
			c3.895,1.043,7.15,3.542,9.166,7.033C282.55,284.782,283.086,288.85,282.042,292.745z"/>
	</g>
</g>
<g>
	<g>
		<path d="M330.48,236.383c-5.523,0-10,4.477-10,10v147.885c0,5.523,4.477,10,10,10s10-4.477,10-10V246.383
			C340.48,240.86,336.003,236.383,330.48,236.383z"/>
	</g>
</g>
<g>
	<g>
		<path d="M109.059,345.85c-1.86-1.86-4.44-2.93-7.07-2.93s-5.21,1.07-7.07,2.93c-1.86,1.86-2.93,4.44-2.93,7.08
			c0,2.62,1.07,5.2,2.93,7.07c1.86,1.86,4.44,2.92,7.07,2.92s5.21-1.06,7.07-2.92c1.86-1.87,2.93-4.44,2.93-7.07
			C111.988,350.29,110.918,347.71,109.059,345.85z"/>
	</g>
</g>
<g>
	<g>
		<path d="M346.557,157.651c-1.86-1.86-4.44-2.93-7.07-2.93c-2.64,0-5.21,1.07-7.08,2.93c-1.86,1.86-2.92,4.44-2.92,7.07
			c0,2.64,1.06,5.21,2.92,7.07c1.87,1.87,4.45,2.93,7.08,2.93c2.63,0,5.2-1.06,7.07-2.93c1.86-1.86,2.93-4.44,2.93-7.07
			S348.417,159.521,346.557,157.651z"/>
	</g>
</g>
<g>
</g>
<g>
</g>
<g>
</g>
<g>
</g>
<g>
</g>
<g>
</g>
<g>
</g>
<g>
</g>
<g>
</g>
<g>
</g>
<g>
</g>
<g>
</g>
<g>
</g>
<g>
</g>
<g>
</g>
</svg>
