<?xml version="1.0" encoding="iso-8859-1"?>
<!-- Generator: Adobe Illustrator 19.0.0, SVG Export Plug-In . SVG Version: 6.00 Build 0)  -->
<svg version="1.1" id="Capa_1" xmlns="http://www.w3.org/2000/svg" xmlns:xlink="http://www.w3.org/1999/xlink" x="0px" y="0px"
	 viewBox="0 0 512 512" style="enable-background:new 0 0 512 512;" xml:space="preserve">
<g>
	<g>
		<path d="M509.071,248.927l-69.434-69.434l54.973-54.973c1.875-1.875,2.929-4.419,2.929-7.071c0-2.652-1.054-5.196-2.929-7.071
			L399.122,14.89c-1.424-1.447-3.291-2.47-5.415-2.838L325.034,0.149c-2.785-0.483-5.642,0.235-7.868,1.976
			c-2.226,1.74-3.611,4.341-3.814,7.16c-2.165,30.067-27.497,53.621-57.671,53.621c-30.124,0-55.451-23.512-57.661-53.528
			c-0.208-2.815-1.595-5.411-3.819-7.148c-2.225-1.737-5.078-2.454-7.862-1.971l-68.047,11.795
			c-2.126,0.369-3.996,1.395-5.421,2.844l-95.485,95.485c-1.875,1.875-2.929,4.419-2.929,7.071c0,2.652,1.054,5.196,2.929,7.071
			l54.973,54.973l-69.431,69.43C1.054,250.803,0,253.346,0,255.999v216c0,22.056,17.944,40,40,40h432
			c9.693,0,18.591-3.468,25.521-9.225c0.217-0.175,0.43-0.354,0.634-0.549C506.626,494.885,512,484.062,512,472V256
			C512,253.346,510.946,250.803,509.071,248.927z M402,46.053l71.397,71.397L402,188.846V46.053z M402,217.131l23.495-23.495
			l59.608,59.608L402,296.751V217.131z M130,30.321l49.657-8.607c7.693,35.074,39.196,61.19,76.024,61.19
			c36.891,0,68.403-26.162,76.052-61.296L382,30.321v182.663c0,0.003,0,0.007,0,0.01v94.228l-89.209,46.704l-3.334-2.169
			c-20.246-13.174-46.415-13.18-66.666-0.016l-3.554,2.311l-41.263-21.625v-94.443c0-5.523-4.477-10-10-10s-10,4.477-10,10v83.961
			L130,307.284V30.321z M38.6,117.452L110,46.053v142.799L38.6,117.452z M86.502,193.639L110,217.137v79.666l-83.107-43.555
			L86.502,193.639z M22.625,481.864C20.963,478.95,20,475.587,20,471.999V272.216l180.006,94.338L22.625,481.864z M43.73,491.999
			L233.692,368.51c13.628-8.857,31.235-8.854,44.857,0.011l189.75,123.478H43.73z M492,471.999c0,3.585-0.961,6.944-2.619,9.857
			L312.016,366.437L492,272.208V471.999z"/>
	</g>
</g>
<g>
	<g>
		<path d="M175.05,179.818c-1.87-1.86-4.44-2.93-7.08-2.93c-2.63,0-5.2,1.07-7.07,2.93c-1.86,1.86-2.93,4.44-2.93,7.07
			c0,2.64,1.07,5.21,2.93,7.07c1.86,1.87,4.44,2.93,7.07,2.93c2.64,0,5.21-1.06,7.08-2.93c1.86-1.86,2.92-4.43,2.92-7.07
			C177.97,184.258,176.91,181.678,175.05,179.818z"/>
	</g>
</g>
<g>
</g>
<g>
</g>
<g>
</g>
<g>
</g>
<g>
</g>
<g>
</g>
<g>
</g>
<g>
</g>
<g>
</g>
<g>
</g>
<g>
</g>
<g>
</g>
<g>
</g>
<g>
</g>
<g>
</g>
</svg>
