<?xml version="1.0" encoding="iso-8859-1"?>
<!-- Generator: Adobe Illustrator 19.0.0, SVG Export Plug-In . SVG Version: 6.00 Build 0)  -->
<svg version="1.1" id="Capa_1" xmlns="http://www.w3.org/2000/svg" xmlns:xlink="http://www.w3.org/1999/xlink" x="0px" y="0px"
	 viewBox="0 0 511.999 511.999" style="enable-background:new 0 0 511.999 511.999;" xml:space="preserve">
<g>
	<g>
		<path d="M501.992,476.993h-12v-4.088V214.051c6.603-3.15,12.262-8.178,16.257-14.686c7.086-11.544,7.657-25.646,1.525-37.725
			l-17.781-35.03V65.005c0-27.569-22.429-49.999-49.999-49.999H72.005c-27.569,0-49.999,22.429-49.999,49.999v61.605L4.225,161.64
			c-6.131,12.079-5.561,26.181,1.525,37.725c3.995,6.508,9.654,11.536,16.257,14.686v262.942h-12c-5.523,0-10,4.477-10,10
			s4.477,10,10,10h491.986c5.523,0,10-4.477,10-10S507.515,476.993,501.992,476.993z M42.006,65.005
			c0-16.542,13.458-29.999,29.999-29.999h367.989c16.542,0,29.999,13.458,29.999,29.999v53.998H42.006V65.005z M297.305,217.801
			h5.386c16.924,0,31.955-8.242,41.306-20.917c8.396,11.382,21.37,19.186,36.184,20.661L265.999,331.726V207.101
			C274.669,213.801,285.527,217.801,297.305,217.801z M265.999,166.495v-27.492h67.998v27.492c0,17.263-14.044,31.306-31.306,31.306
			h-5.386C280.044,197.801,265.999,183.758,265.999,166.495z M353.997,166.495v-27.492h67.998v27.492
			c0,17.263-14.044,31.306-31.306,31.306h-5.386C368.041,197.801,353.997,183.758,353.997,166.495z M158.002,139.003v27.492
			c0,17.263-14.044,31.306-31.306,31.306h-5.386c-17.262,0-31.306-14.044-31.306-31.306v-27.492H158.002z M22.794,188.903
			c-3.472-5.656-3.74-12.293-0.736-18.209l16.087-31.689h31.861v27.491c0,17.263-14.044,31.306-31.306,31.306
			C32.063,197.801,26.266,194.557,22.794,188.903z M182.003,231.92h-0.001L68.913,345.01c-3.905,3.905-3.905,10.237,0,14.143
			c1.953,1.953,4.512,2.929,7.071,2.929c2.559,0,5.119-0.976,7.071-2.929l98.947-98.947v216.789H42.006v-16.242l72.877-72.877
			c3.905-3.905,3.905-10.237,0-14.143c-3.904-3.905-10.237-3.905-14.142,0l-58.734,58.735V217.683
			c15.566-0.996,29.263-8.957,37.999-20.799c9.351,12.676,24.381,20.917,41.306,20.917h5.386c16.925,0,31.955-8.242,41.306-20.917
			c3.808,5.163,8.562,9.583,14,13.016V231.92z M178.002,166.495v-27.492H246v27.492c0,17.263-14.044,31.306-31.306,31.306h-5.386
			C192.046,197.801,178.002,183.758,178.002,166.495z M469.993,476.993H299.422c4.345-14.999,18.194-26,34.575-26
			c1.852,0,3.719,0.143,5.548,0.425c4.363,0.671,8.652-1.595,10.552-5.58c10.405-21.827,32.739-35.932,56.898-35.932
			c34.737,0,62.998,28.261,62.998,62.998V476.993z M469.993,418.962c-15.234-17.765-37.816-29.053-62.998-29.053
			c-29.467,0-56.871,15.924-71.65,41.102c-0.45-0.011-0.899-0.016-1.348-0.016c-27.463,0-50.357,19.878-55.086,46h-76.91V217.272
			c2.388,0.342,4.826,0.529,7.307,0.529h5.386c11.78,0,22.636-4,31.306-10.7v146.897c0,5.523,4.477,10,10,10h213.994V418.962z
			 M469.993,343.997H368.635l45.862-45.862c3.905-3.905,3.905-10.237,0-14.143c-3.905-3.905-10.237-3.905-14.143,0l-59.894,59.894
			c-0.035,0.035-0.065,0.074-0.099,0.11h-58.349l131.573-131.573c0.022-0.022,0.039-0.045,0.061-0.067
			c7.269-3.654,13.556-8.978,18.348-15.475c8.736,11.844,22.433,19.803,37.999,20.799V343.997z M473.3,197.801
			c-17.263,0-31.306-14.044-31.306-31.306v-27.492h31.861l16.087,31.689c3.004,5.917,2.735,12.555-0.736,18.209
			C485.734,194.557,479.937,197.801,473.3,197.801z"/>
	</g>
</g>
<g>
	<g>
		<path d="M157.072,346.925c-1.86-1.86-4.44-2.93-7.07-2.93c-2.63,0-5.21,1.07-7.07,2.93c-1.86,1.86-2.93,4.44-2.93,7.07
			s1.07,5.21,2.93,7.07c1.86,1.86,4.44,2.93,7.07,2.93c2.63,0,5.21-1.07,7.07-2.93c1.86-1.86,2.93-4.43,2.93-7.07
			C160.002,351.365,158.932,348.785,157.072,346.925z"/>
	</g>
</g>
<g>
	<g>
		<path d="M441.664,256.818c-1.86-1.86-4.43-2.92-7.07-2.92c-2.63,0-5.21,1.06-7.07,2.92c-1.86,1.86-2.93,4.44-2.93,7.08
			c0,2.63,1.07,5.21,2.93,7.07c1.86,1.86,4.44,2.93,7.07,2.93s5.21-1.07,7.07-2.93c1.87-1.86,2.93-4.44,2.93-7.07
			C444.594,261.258,443.534,258.688,441.664,256.818z"/>
	</g>
</g>
<g>
</g>
<g>
</g>
<g>
</g>
<g>
</g>
<g>
</g>
<g>
</g>
<g>
</g>
<g>
</g>
<g>
</g>
<g>
</g>
<g>
</g>
<g>
</g>
<g>
</g>
<g>
</g>
<g>
</g>
</svg>
